<svg viewBox="0 0 64 64" xmlns="http://www.w3.org/2000/svg" xmlns:xlink="http://www.w3.org/1999/xlink"><linearGradient id="a" gradientUnits="userSpaceOnUse" x1="32" x2="32" y1="63" y2="57"><stop offset="0" stop-color="#949aaf"/><stop offset="1" stop-color="#c6ccda"/></linearGradient><linearGradient id="b" x1="32" x2="32" xlink:href="#a" y1="17" y2="11"/><linearGradient id="c" x1="14" x2="14" xlink:href="#a" y1="11" y2="7"/><linearGradient id="d" gradientUnits="userSpaceOnUse" x1="32" x2="32" y1="57" y2="17"><stop offset="0" stop-color="#474f72"/><stop offset="1" stop-color="#878c9f"/></linearGradient><linearGradient id="e" gradientUnits="userSpaceOnUse" x1="32" x2="32" y1="53" y2="21"><stop offset="0" stop-color="#6ab891"/><stop offset="1" stop-color="#85cba9"/></linearGradient><linearGradient id="f" gradientUnits="userSpaceOnUse" x1="32" x2="32" y1="49" y2="25"><stop offset="0" stop-color="#d4d8e1"/><stop offset="1" stop-color="#f3f4f5"/></linearGradient><linearGradient id="g" gradientUnits="userSpaceOnUse" x1="32" x2="32" y1="43" y2="28.43"><stop offset="0" stop-color="#8cdd79"/><stop offset="1" stop-color="#d4e6b6"/></linearGradient><linearGradient id="h" x1="14" x2="14" xlink:href="#d" y1="7" y2="1"/><linearGradient id="i" x1="50" x2="50" xlink:href="#a" y1="11" y2="7"/><linearGradient id="j" x1="50" x2="50" xlink:href="#d" y1="7" y2="1"/><path d="m1 57h62v6h-62z" fill="url(#a)"/><path d="m1 11h62v6h-62z" fill="url(#b)"/><path d="m1 15h62v2h-62z" fill="#8288a1"/><path d="m1 61h62v2h-62z" fill="#8288a1"/><path d="m8 7h12v4h-12z" fill="url(#c)"/><path d="m3 17h58v40h-58z" fill="url(#d)"/><path d="m3 55h58v2h-58z" fill="#42455e"/><path d="m3 17h58v2h-58z" fill="#575f7c"/><path d="m7 21h50v32h-50z" fill="url(#e)"/><path d="m7 51h50v2h-50z" fill="#4da67f"/><path d="m7 21h50v2h-50z" fill="#78c19b"/><circle cx="32" cy="37" fill="url(#f)" r="12"/><path d="m32 49a12 12 0 0 1 -12-13 12 12 0 0 0 24 0 12 12 0 0 1 -12 13z" fill="#c7cdd8"/><path d="m36.29 37.66c0 4.02-4.29 5.34-4.29 5.34s-4.29-1.32-4.29-5.34 4.29-9.23 4.29-9.23 4.29 5.2 4.29 9.23z" fill="url(#g)"/><path d="m11 1h6v6h-6z" fill="url(#h)"/><path d="m44 7h12v4h-12z" fill="url(#i)"/><path d="m8 9h12v2h-12z" fill="#8288a1"/><path d="m44 9h12v2h-12z" fill="#8288a1"/><path d="m47 1h6v6h-6z" fill="url(#j)"/><path d="m11 5h6v2h-6z" fill="#42455e"/><path d="m47 5h6v2h-6z" fill="#42455e"/><path d="m63 18a1 1 0 0 0 1-1v-6a1 1 0 0 0 -1-1h-6v-3a1 1 0 0 0 -1-1h-2v-5a1 1 0 0 0 -1-1h-6a1 1 0 0 0 -1 1v5h-2a1 1 0 0 0 -1 1v3h-22v-3a1 1 0 0 0 -1-1h-2v-5a1 1 0 0 0 -1-1h-6a1 1 0 0 0 -1 1v5h-2a1 1 0 0 0 -1 1v3h-6a1 1 0 0 0 -1 1v6a1 1 0 0 0 1 1h1v38h-1a1 1 0 0 0 -1 1v6a1 1 0 0 0 1 1h62a1 1 0 0 0 1-1v-6a1 1 0 0 0 -1-1h-1v-38zm-15-16h4v4h-4zm-3 6h10v2h-10zm-33-6h4v4h-4zm-3 6h10v2h-10zm-7 4h60v4h-60zm60 50h-60v-4h60zm-2-6h-56v-38h56z"/><path d="m7 54h50a1 1 0 0 0 1-1v-32a1 1 0 0 0 -1-1h-50a1 1 0 0 0 -1 1v32a1 1 0 0 0 1 1zm1-32h48v30h-48z"/><path d="m31.23 27.79c-4.72 5.74-7 12.84-.23 15.89v1.89a1 1 0 0 0 2 0v-1.89c6.81-3 4.49-10.16-.23-15.89a1 1 0 0 0 -1.54 0zm1.77 13.63v-6.13a1 1 0 0 0 -2 0v6.13c-4.15-2.58-1.9-7.28 1-11.33 2.86 3.99 5.17 8.74 1 11.33z"/><path d="m32 24a13 13 0 1 0 13 13 13 13 0 0 0 -13-13zm0 24a11 11 0 1 1 11-11 11 11 0 0 1 -11 11z"/><path d="m17 27h-1.5v-1.5a1 1 0 0 0 -2 0v1.5h-1.5a1 1 0 0 0 0 2h1.5v1.5a1 1 0 0 0 2 0v-1.5h1.5a1 1 0 0 0 0-2z"/><path d="m52 27h-5a1 1 0 0 0 0 2h5a1 1 0 0 0 0-2z"/></svg>