<svg viewBox="0 0 64 64" xmlns="http://www.w3.org/2000/svg" xmlns:xlink="http://www.w3.org/1999/xlink"><linearGradient id="a" gradientUnits="userSpaceOnUse" x1="57" x2="57" y1="19" y2="12"><stop offset="0" stop-color="#949aaf"/><stop offset="1" stop-color="#c6ccda"/></linearGradient><linearGradient id="b" x1="57" x2="57" xlink:href="#a" y1="23" y2="19"/><linearGradient id="c" gradientUnits="userSpaceOnUse" x1="16" x2="16" y1="63" y2="1"><stop offset="0" stop-color="#6ab891"/><stop offset="1" stop-color="#85cba9"/></linearGradient><linearGradient id="d" gradientUnits="userSpaceOnUse" x1="16" x2="16" y1="59" y2="11"><stop offset="0" stop-color="#d4d8e1"/><stop offset="1" stop-color="#f3f4f5"/></linearGradient><linearGradient id="e" gradientUnits="userSpaceOnUse" x1="16" x2="16" y1="42" y2="25"><stop offset="0" stop-color="#8cdd79"/><stop offset="1" stop-color="#d4e6b6"/></linearGradient><path d="m52 12h10a0 0 0 0 1 0 0v4a3 3 0 0 1 -3 3h-4a3 3 0 0 1 -3-3v-4a0 0 0 0 1 0 0z" fill="url(#a)"/><path d="m55 19h4v4h-4z" fill="url(#b)"/><path d="m55 21h4v2h-4z" fill="#8288a1"/><path d="m31 9v52a2 2 0 0 1 -2 2h-26a2 2 0 0 1 -2-2v-52a2 2 0 0 1 2-2h6v-6h14v6h6a2 2 0 0 1 2 2z" fill="url(#c)"/><path d="m31 58v3a2 2 0 0 1 -2 2h-26a2 2 0 0 1 -2-2v-3a2 2 0 0 0 2 2h26a2 2 0 0 0 2-2z" fill="#4da67f"/><path d="m5 11h22v48h-22z" fill="url(#d)"/><path d="m5 56h22v3h-22z" fill="#c7cdd8"/><path d="m5 11h22v3h-22z" fill="#dfe3ea"/><path d="m21 35.77c0 4.69-5 6.23-5 6.23s-5-1.54-5-6.23 5-10.77 5-10.77 5 6.07 5 10.77z" fill="url(#e)"/><path d="m9 1h14v6h-14z" fill="#78c19b"/><path d="m27 10h-22a1 1 0 0 0 -1 1v48a1 1 0 0 0 1 1h22a1 1 0 0 0 1-1v-48a1 1 0 0 0 -1-1zm-1 48h-20v-46h20z"/><path d="m15 42.69v2.31a1 1 0 0 0 2 0v-2.31c2-.87 5-3.1 5-6.92 0-5-5-11.15-5.23-11.41a1 1 0 0 0 -1.54 0c-.23.26-5.23 6.41-5.23 11.41 0 3.82 3 6.05 5 6.92zm1-16c3.62 5 6.32 10.77 1 13.81v-7.5a1 1 0 0 0 -2 0v7.45c-5.34-3.04-2.6-8.85 1-13.8z"/><path d="m63 11h-2v-4a1 1 0 0 0 -2 0v4h-4v-4a1 1 0 0 0 -2 0v4h-2a1 1 0 0 0 0 2v3a4 4 0 0 0 3 3.86v3.14a1 1 0 0 0 1 1h1v32a6 6 0 0 1 -12 0v-9a8 8 0 0 0 -8-8h-4v-30a3 3 0 0 0 -3-3h-5v-5a1 1 0 0 0 -1-1h-14a1 1 0 0 0 -1 1v5h-5a3 3 0 0 0 -3 3v52a3 3 0 0 0 3 3h26a3 3 0 0 0 3-3v-20h4a6 6 0 0 1 6 6v9a8 8 0 0 0 16 0v-32h1a1 1 0 0 0 1-1v-3.14a4 4 0 0 0 3-3.86v-3a1 1 0 0 0 0-2zm-33 50a1 1 0 0 1 -1 1h-26a1 1 0 0 1 -1-1v-52a1 1 0 0 1 1-1h6a1 1 0 0 0 1-1v-5h12v5a1 1 0 0 0 1 1h6a1 1 0 0 1 1 1zm28-39h-2v-2h2zm3-6a2 2 0 0 1 -2 2h-4a2 2 0 0 1 -2-2v-3h8z"/></svg>