<svg viewBox="0 0 64 64" xmlns="http://www.w3.org/2000/svg" xmlns:xlink="http://www.w3.org/1999/xlink"><linearGradient id="a" gradientUnits="userSpaceOnUse" x1="19" x2="19" y1="11" y2="7"><stop offset="0" stop-color="#949aaf"/><stop offset="1" stop-color="#c6ccda"/></linearGradient><linearGradient id="b" gradientUnits="userSpaceOnUse" x1="19" x2="19" y1="7" y2="1"><stop offset="0" stop-color="#d4d8e1"/><stop offset="1" stop-color="#f3f4f5"/></linearGradient><linearGradient id="c" gradientUnits="userSpaceOnUse" x1="31.5" x2="31.5" y1="63" y2="1"><stop offset="0" stop-color="#6ab891"/><stop offset="1" stop-color="#85cba9"/></linearGradient><linearGradient id="d" x1="32" x2="32" xlink:href="#b" y1="50" y2="22"/><linearGradient id="e" gradientUnits="userSpaceOnUse" x1="32" x2="32" y1="43" y2="26"><stop offset="0" stop-color="#8cdd79"/><stop offset="1" stop-color="#d4e6b6"/></linearGradient><path d="m12 7h14v4h-14z" fill="url(#a)"/><path d="m14 1h10v6h-10z" fill="url(#b)"/><path d="m53.66 6.26a6 6 0 0 0 -5.96-5.26h-12.3a6 6 0 0 0 -5.15 2.91l-4.25 7.09h-14.46a3 3 0 0 0 -2.95 2.49c-.79 4.7-.59 3.93-.59 40a42.73 42.73 0 0 0 .59 7 3 3 0 0 0 2.95 2.51h39.92a3 3 0 0 0 3-2.51c.75-4.68.54-3.59.54-43.49zm-5.39 4c-1 1-1 .73-11.77.73a2.51 2.51 0 0 1 -1.77-4.27c1-1 1-.73 11.77-.73a2.51 2.51 0 0 1 1.77 4.28z" fill="url(#c)"/><path d="m54.41 13.49a3 3 0 0 0 -2.95-2.49h-39.92a3 3 0 0 0 -2.95 2.49 42.73 42.73 0 0 0 -.59 7c0 6.72-.21.72.59-4.05a3 3 0 0 1 2.95-2.44h39.92a3 3 0 0 1 2.95 2.49 42.73 42.73 0 0 1 .59 7.05 52.63 52.63 0 0 0 -.59-10.05z" fill="#78c19b"/><circle cx="32" cy="36" fill="url(#d)" r="14"/><path d="m32 50a14 14 0 0 1 -13.92-15.5 14 14 0 0 0 27.84 0 14 14 0 0 1 -13.92 15.5z" fill="#c7cdd8"/><path d="m54.42 57.49a3 3 0 0 1 -3 2.51h-39.88a3 3 0 0 1 -2.95-2.49 42.73 42.73 0 0 1 -.59-7 52.72 52.72 0 0 0 .59 10 3 3 0 0 0 2.95 2.49h39.92a3 3 0 0 0 3-2.51 42.39 42.39 0 0 0 .58-7c-.04-6.79.16-.66-.62 4z" fill="#4da67f"/><path d="m37 36.77c0 4.69-5 6.23-5 6.23s-5-1.54-5-6.23 5-10.77 5-10.77 5 6.07 5 10.77z" fill="url(#e)"/><path d="m14 1h10v2h-10z" fill="#dfe3ea"/><path d="m54.65 6.13a7 7 0 0 0 -6.95-6.13h-12.3a7 7 0 0 0 -6 3.4c-4.11 6.85-1.16 2.6-3.4 2.6h-1v-5a1 1 0 0 0 -1-1h-10a1 1 0 0 0 -1 1v5h-1a1 1 0 0 0 -1 1v3.05a4 4 0 0 0 -3.4 3.27 43.69 43.69 0 0 0 -.6 7.22c0 34.59-.22 35.23.6 40.14a4 4 0 0 0 3.94 3.32h39.92a4 4 0 0 0 3.94-3.34 43.54 43.54 0 0 0 .6-7.2c0-43.79.45-32.91-1.35-47.33zm-39.65-4.13h8v4h-8zm-2 6h12v2h-12zm41 45.46a41.72 41.72 0 0 1 -.57 6.87 2 2 0 0 1 -2 1.67h-39.89c-3.1 0-2.54-2.17-2.54-41.46a41.87 41.87 0 0 1 .57-6.89 2 2 0 0 1 2-1.65h14.43c.82 0 .69-.2 5.11-7.57a5 5 0 0 1 4.29-2.43h12.3a5 5 0 0 1 5 4.38c1.74 14.24 1.3 4.77 1.3 47.08z"/><path d="m46.5 5h-10a3.5 3.5 0 0 0 0 7h10a3.5 3.5 0 0 0 0-7zm0 5h-10a1.5 1.5 0 0 1 0-3h10a1.5 1.5 0 0 1 0 3z"/><path d="m31.23 25.36c-.23.26-5.23 6.41-5.23 11.41 0 3.82 3 6 5 6.92v2.31a1 1 0 0 0 2 0v-2.31c2-.87 5-3.1 5-6.92 0-5-5-11.15-5.23-11.41a1 1 0 0 0 -1.54 0zm1.77 16.1v-7.46a1 1 0 0 0 -2 0v7.46c-5.34-3.05-2.59-8.86 1-13.81 3.62 4.98 6.32 10.77 1 13.81z"/><path d="m32 21a15 15 0 1 0 15 15 15 15 0 0 0 -15-15zm0 28a13 13 0 1 1 13-13 13 13 0 0 1 -13 13z"/></svg>