<svg viewBox="0 0 64 64" xmlns="http://www.w3.org/2000/svg" xmlns:xlink="http://www.w3.org/1999/xlink"><linearGradient id="a" gradientUnits="userSpaceOnUse" x1="21.74" x2="21.74" y1="52.47" y2="39"><stop offset="0" stop-color="#8cdd79"/><stop offset="1" stop-color="#d4e6b6"/></linearGradient><linearGradient id="b" gradientTransform="matrix(-1 0 0 -1 84.53 94.53)" x1="42.26" x2="42.26" xlink:href="#a" y1="54" y2="40.53"/><linearGradient id="c" gradientUnits="userSpaceOnUse" x1="31.99" x2="31.99" y1="36.96" y2=".97"><stop offset="0" stop-color="#9dd5df"/><stop offset="1" stop-color="#c3e1f5"/></linearGradient><linearGradient id="d" gradientUnits="userSpaceOnUse" x1="32.07" x2="32.07" y1="35.18" y2="20.87"><stop offset="0" stop-color="#6ab891"/><stop offset="1" stop-color="#85cba9"/></linearGradient><linearGradient id="e" x1="23.27" x2="23.27" xlink:href="#d" y1="21.33" y2="6.77"/><linearGradient id="f" x1="45.04" x2="45.04" xlink:href="#d" y1="27.47" y2="6.49"/><linearGradient id="g" x1="32.92" x2="32.92" xlink:href="#d" y1="9.41" y2="1"/><linearGradient id="h" gradientUnits="userSpaceOnUse" x1="32" x2="32" y1="64" y2="58"><stop offset="0" stop-color="#9b756d"/><stop offset="1" stop-color="#bc9388"/></linearGradient><path d="m12.47 39h6.74a11.79 11.79 0 0 1 11.79 11.79v1.68a0 0 0 0 1 0 0h-6.74a11.79 11.79 0 0 1 -11.79-11.79v-1.68a0 0 0 0 1 0 0z" fill="url(#a)"/><path d="m44.79 40.53h6.74a0 0 0 0 1 0 0v1.68a11.79 11.79 0 0 1 -11.79 11.79h-6.74a0 0 0 0 1 0 0v-1.68a11.79 11.79 0 0 1 11.79-11.79z" fill="url(#b)" transform="matrix(-1 0 0 -1 84.53 94.53)"/><path d="m31 52.47h-6.74a11.79 11.79 0 0 1 -11.79-11.79c0-1.92 0-1.68.07-1.68a11.79 11.79 0 0 0 11.72 10.47h6.66a22.66 22.66 0 0 1 .08 3z" fill="#7ece67"/><path d="m51.53 42.21a11.79 11.79 0 0 1 -11.79 11.79h-6.74a27.15 27.15 0 0 1 .07-3h6.67a11.78 11.78 0 0 0 11.71-10.47c.11 0 .08-.25.08 1.68z" fill="#7ece67"/><path d="m44.94 6.49a18 18 0 0 1 2.93 21c-8.17 15.33-31.54 11.22-33.73-6.26-2.14-17.17 18.86-27.1 30.8-14.74z" fill="url(#c)"/><path d="m47.87 27.47c-9.08 17.07-35.55 9.56-33.8-10 .69 17.11 25.15 23.27 33.8 7a17.5 17.5 0 0 0 2.06-7 17.73 17.73 0 0 1 -2.06 10z" fill="#77cacb"/><path d="m26.92 21.33c1 .79 1.79-.21 3.57-.44s6.48 1 6.71 2.79-2.2 3.91-3.8 5.92-1.12 5.58-1.12 5.58l-2-1.56c-1-.79.22-5.47.1-6.37s-3-2.34-2.23-3.34-.22-1.79-1.23-2.58z" fill="url(#d)"/><path d="m30.38 12.74a4.82 4.82 0 0 0 -2.23 3.9c.11.9-2.68.35-3.46 1.35s1.23 2.56 2.23 3.34c-1-.78-3.79-1.33-5.69-2s-2.34-4.24-2.46-5.13c-.09-.71-1.93-1.77-3.19-2.57a18 18 0 0 1 3-4.58c8.82-.82 6.21.32 7.8 1.55 1 .78-.09.12 1.7-.11s3.98 3.13 2.3 4.25z" fill="url(#e)"/><path d="m44.94 6.49a18 18 0 0 1 2.93 21c-1.26-1-1.78-5.18-2-6.69-.23-1.79-5.58-1.12-5.81-2.91s1.34-3.79 1.34-3.79c.78-1 3.58-.45 5.36-.67s-2-1.57-4.91-3 1.59-1.16 3.09-3.94z" fill="url(#f)"/><path d="m38.09 2.06a2.58 2.58 0 0 0 .22 1.52c1.23 2.57-1.24 3.13-2.81 5.14s-4-.66-4.34-4.24c-.16-1.48-3.91-2.24-3.91-2.24a4.4 4.4 0 0 1 -.05-.59 18 18 0 0 1 10.89.41z" fill="url(#g)"/><path d="m54 64h-44a47 47 0 0 1 22-6 47 47 0 0 1 22 6z" fill="url(#h)"/><path d="m54 64h-44c12.51-3.82 30.53-4.12 44 0z" fill="#8a6762"/><path d="m54.45 62.11a54.79 54.79 0 0 0 -21.45-5.11v-2h5.74a12.81 12.81 0 0 0 12.79-12.79v-1.68a1 1 0 0 0 -1-1h-6.74a12.77 12.77 0 0 0 -10.79 5.95v-7.48a19 19 0 0 0 17.85-21.36c-2.11-16.86-23.71-22.64-33.98-9.14a19 19 0 0 0 14.13 30.5v6a12.77 12.77 0 0 0 -10.79-6h-6.74a1 1 0 0 0 -1 1v1.68a12.8 12.8 0 0 0 12.79 12.79h5.74v3.53a54.79 54.79 0 0 0 -21.45 5.11 1 1 0 0 0 .45 1.89c.89 0 9.26-5 22-5a53.43 53.43 0 0 1 21.55 4.89 1 1 0 0 0 .9-1.78zm-10.66-20.58h5.74c0 7.39-5.38 11.47-10.79 11.47h-4.85c1.69-2.3 5.25-6.42 9.06-6.42a1 1 0 0 0 1-1c0-2.15-5.69-1.21-10.82 5.12a10.81 10.81 0 0 1 10.66-9.17zm-12.41-14.4c-.15-1.16-1.71-2-2.3-2.81a2 2 0 0 0 .13-2.05 5.88 5.88 0 0 1 1.41-.39c1.72-.2 5.48 1.08 5.59 1.92s-1.16 2.34-2.28 3.62c-1.49 1.7-2.45 2.66-2.67 5.69-.21-.16-.7.29-.07-3.95a8.84 8.84 0 0 0 .19-2.03zm1.51 8.87a1 1 0 0 0 .38-.9c-.1-.87-.15-3.46.92-4.84 1.64-2.1 4.28-4.33 4-6.66-.35-2.72-6-3.88-7.82-3.65-1.52.19-2.46.91-2.83.64-.1-.1-1.81-1.35-2-2 .75-.47 3.87 0 3.61-2a3.94 3.94 0 0 1 1.79-2.94c2.73-1.82-.48-7.27-4.05-5.82-.14-.11-.18-.17-.17-.18-.57-2.14-3.23-1.86-5.46-1.73a16.81 16.81 0 0 1 5.27-2.92.94.94 0 0 0 .53.3c1.58.32 3 1 3.11 1.36.5 4.68 4 7.54 6.13 4.75 1.35-1.72 4.13-2.72 3.15-5.61a17.22 17.22 0 0 1 4.17 2.9c-1.37 1.46-3.66 1.44-3.67 3 0 1.18 1.43 1.72 4 2.85-1.33 0-2.59.14-3.26 1-.19.24-1.82 2.4-1.55 4.53.32 2.51 5.22 2.2 5.81 2.93.32 2.53.78 5.2 1.75 6.65a16.88 16.88 0 0 1 -13.81 8.34zm-9.31-17c-.7-.2-1.41-.41-2-.62-.38-.14-1.34-.83-1.8-4.32-.12-1-1.17-1.73-2.89-2.8a17 17 0 0 1 2.11-3.26c.64-.06 5.77-.54 5.73.07a2.8 2.8 0 0 0 1.27 1.53 1.09 1.09 0 0 0 1.64 0 2.57 2.57 0 0 1 .53-.11c.79-.14 2.27 1.81 1.66 2.42a6.09 6.09 0 0 0 -2.68 4.3c-1.05.18-2.48.19-3.24 1.17a1.8 1.8 0 0 0 -.33 1.62zm13.5-16.21a3.44 3.44 0 0 0 .32 1.21c.85 1.76-1 1.93-2.69 4.09-.28.36-.45.31-.53.28-.68-.19-1.79-1.73-2-4a3.21 3.21 0 0 0 -2.07-2.26 16.92 16.92 0 0 1 6.97.68zm8 5.35a17 17 0 0 1 2.41 3.86c-.92-.63-2.87-1.38-4.87-2.35 2.28-1.09 2.28-1.72 2.46-1.51zm2.7 17.14c-1.58-5 .52-5.91-4.58-6.93a7.7 7.7 0 0 1 -2.11-.6 5.19 5.19 0 0 1 1.13-3.06c.73-.76 5.16.52 5.92-1a16.82 16.82 0 0 1 -.36 11.59zm-31.73-12.17a8.69 8.69 0 0 1 1.74 1.3c.75 5.68 2.72 5.8 5.26 6.53 3.26.93 3.36 1.26 3.26 1.18 1.31 1 1.15 1.05 1.05 1.17-1.35 1.74 1.45 3.37 2 4.15-.06 1.64-1.3 5.75.27 7l2 1.56a17 17 0 0 1 -15.58-22.89zm-1.58 26.89h5.74a10.81 10.81 0 0 1 10.66 9.18c-2.12-2.62-5.72-6.13-9.82-6.13a1 1 0 0 0 0 2c3.81 0 7.37 4.12 9.06 6.42h-4.85c-5.47 0-10.79-4.14-10.79-11.47z"/></svg>