<svg viewBox="0 0 64 64" xmlns="http://www.w3.org/2000/svg" xmlns:xlink="http://www.w3.org/1999/xlink"><linearGradient id="a" gradientUnits="userSpaceOnUse" x1="31.99" x2="31.99" y1="58.96" y2="22.97"><stop offset="0" stop-color="#9dd5df"/><stop offset="1" stop-color="#c3e1f5"/></linearGradient><linearGradient id="b" gradientUnits="userSpaceOnUse" x1="32.07" x2="32.07" y1="57.18" y2="42.87"><stop offset="0" stop-color="#6ab891"/><stop offset="1" stop-color="#85cba9"/></linearGradient><linearGradient id="c" x1="23.27" x2="23.27" xlink:href="#b" y1="43.33" y2="28.77"/><linearGradient id="d" x1="45.04" x2="45.04" xlink:href="#b" y1="49.47" y2="28.49"/><linearGradient id="e" x1="32.92" x2="32.92" xlink:href="#b" y1="31.41" y2="23"/><linearGradient id="f" gradientUnits="userSpaceOnUse" x1="32" x2="32" y1="63" y2="19"><stop offset="0" stop-color="#d4d8e1"/><stop offset="1" stop-color="#f3f4f5"/></linearGradient><linearGradient id="g" x1="32" x2="32" xlink:href="#b" y1="19" y2="7"/><path d="m44.94 28.49a18 18 0 0 1 2.93 21c-8.17 15.33-31.54 11.22-33.73-6.26-2.14-17.17 18.86-27.1 30.8-14.74z" fill="url(#a)"/><path d="m47.87 49.47c-9.08 17.07-35.55 9.56-33.8-10 .69 17.11 25.15 23.27 33.8 7a17.5 17.5 0 0 0 2.06-7 17.73 17.73 0 0 1 -2.06 10z" fill="#77cacb"/><path d="m26.92 43.33c1 .79 1.79-.21 3.57-.44s6.48 1 6.71 2.79-2.2 3.91-3.8 5.92-1.12 5.58-1.12 5.58l-2-1.56c-1-.79.22-5.47.1-6.37s-3-2.34-2.23-3.34-.22-1.79-1.23-2.58z" fill="url(#b)"/><path d="m30.38 34.74a4.82 4.82 0 0 0 -2.23 3.9c.11.9-2.68.35-3.46 1.35s1.23 2.56 2.23 3.34c-1-.78-3.79-1.33-5.69-2s-2.34-4.24-2.46-5.13c-.09-.71-1.93-1.77-3.19-2.57a18 18 0 0 1 3-4.58c8.82-.82 6.21.32 7.8 1.55 1 .78-.09.12 1.7-.11s3.98 3.13 2.3 4.25z" fill="url(#c)"/><path d="m44.94 28.49a18 18 0 0 1 2.93 21c-1.26-1-1.78-5.18-2-6.69-.23-1.79-5.58-1.12-5.81-2.91s1.34-3.79 1.34-3.79c.78-1 3.58-.45 5.36-.67s-2-1.57-4.91-3 1.59-1.16 3.09-3.94z" fill="url(#d)"/><path d="m38.09 24.06a2.58 2.58 0 0 0 .22 1.52c1.23 2.57-1.24 3.13-2.81 5.14s-4-.66-4.34-4.24c-.16-1.48-3.91-2.24-3.91-2.24a4.4 4.4 0 0 1 -.05-.59 18 18 0 0 1 10.89.41z" fill="url(#e)"/><path d="m3 19h58v44h-58z" fill="url(#f)"/><path d="m3 60h58v3h-58z" fill="#c7cdd8"/><path d="m3 19h58v3h-58z" fill="#dfe3ea"/><path d="m44.94 28.49a18 18 0 0 1 2.93 21c-8.17 15.33-31.54 11.22-33.73-6.26-2.14-17.17 18.86-27.1 30.8-14.74z" fill="url(#a)"/><path d="m47.87 49.47c-9.08 17.07-35.55 9.56-33.8-10 .69 17.11 25.15 23.27 33.8 7a17.5 17.5 0 0 0 2.06-7 17.73 17.73 0 0 1 -2.06 10z" fill="#77cacb"/><path d="m26.92 43.33c1 .79 1.79-.21 3.57-.44s6.48 1 6.71 2.79-2.2 3.91-3.8 5.92-1.12 5.58-1.12 5.58l-2-1.56c-1-.79.22-5.47.1-6.37s-3-2.34-2.23-3.34-.22-1.79-1.23-2.58z" fill="url(#b)"/><path d="m30.38 34.74a4.82 4.82 0 0 0 -2.23 3.9c.11.9-2.68.35-3.46 1.35s1.23 2.56 2.23 3.34c-1-.78-3.79-1.33-5.69-2s-2.34-4.24-2.46-5.13c-.09-.71-1.93-1.77-3.19-2.57a18 18 0 0 1 3-4.58c8.82-.82 6.21.32 7.8 1.55 1 .78-.09.12 1.7-.11s3.98 3.13 2.3 4.25z" fill="url(#c)"/><path d="m44.94 28.49a18 18 0 0 1 2.93 21c-1.26-1-1.78-5.18-2-6.69-.23-1.79-5.58-1.12-5.81-2.91s1.34-3.79 1.34-3.79c.78-1 3.58-.45 5.36-.67s-2-1.57-4.91-3 1.59-1.16 3.09-3.94z" fill="url(#d)"/><path d="m38.09 24.06a2.58 2.58 0 0 0 .22 1.52c1.23 2.57-1.24 3.13-2.81 5.14s-4-.66-4.34-4.24c-.16-1.48-3.91-2.24-3.91-2.24a4.4 4.4 0 0 1 -.05-.59 18 18 0 0 1 10.89.41z" fill="url(#e)"/><rect fill="url(#g)" height="12" rx="2" width="62" x="1" y="7"/><path d="m63 15v2a2 2 0 0 1 -2 2h-58a2 2 0 0 1 -2-2v-2a2 2 0 0 0 2 2h58a2 2 0 0 0 2-2z" fill="#4da67f"/><path d="m34.36 59.85a19 19 0 0 0 16.49-21.21c-2.14-17.06-23.85-22.48-33.98-9.14s.76 32.44 17.49 30.35zm-18.31-24.74a8.69 8.69 0 0 1 1.74 1.3c.75 5.68 2.72 5.8 5.26 6.53 3.26.93 3.36 1.26 3.26 1.18 1.31 1 1.15 1.05 1.05 1.17-1.35 1.74 1.45 3.37 2 4.15-.06 1.64-1.3 5.75.27 7 2.49 1.93 1.81 1.41 2 1.56a17 17 0 0 1 -15.58-22.89zm2.95-5.11c.64-.06 5.77-.54 5.73.07a2.8 2.8 0 0 0 1.27 1.53 1.09 1.09 0 0 0 1.64 0c1.41-.56 2.75 1.75 2.19 2.31a6.09 6.09 0 0 0 -2.68 4.3c-1.05.18-2.48.19-3.24 1.17a1.8 1.8 0 0 0 -.33 1.62c-.7-.2-1.41-.41-2-.62-.38-.14-1.34-.83-1.8-4.32-.12-1-1.17-1.73-2.89-2.8a17.11 17.11 0 0 1 2.11-3.26zm10.21 14.27a5.88 5.88 0 0 1 1.41-.39c1.72-.2 5.48 1.08 5.59 1.92.14 1.2-2.21 3.39-3.6 5.2a7.76 7.76 0 0 0 -1.35 4.13l-.3-.23c-.38-.91.53-4.81.42-5.75-.15-1.16-1.71-2-2.3-2.81a2 2 0 0 0 .13-2.07zm3.68 13.73a1 1 0 0 0 .38-.9c-.1-.87-.15-3.46.92-4.84 1.64-2.1 4.28-4.33 4-6.66-.35-2.72-6-3.88-7.82-3.65-1.53.19-2.49.92-2.83.64-.1-.1-1.81-1.35-2-2 .75-.47 3.87 0 3.61-2.05a3.94 3.94 0 0 1 1.79-2.94c2.75-1.83-.5-7.27-4.05-5.82-.14-.11-.18-.17-.17-.18-.57-2.13-3.22-1.86-5.46-1.73a16.81 16.81 0 0 1 5.27-2.92.94.94 0 0 0 .53.3c1.58.32 3 1 3.11 1.36.5 4.68 4 7.54 6.13 4.75 1.35-1.72 4.13-2.72 3.15-5.61a17.22 17.22 0 0 1 4.17 2.9c-1.37 1.46-3.66 1.44-3.67 3 0 1.18 1.43 1.72 4 2.85-1.33 0-2.59.14-3.26 1-.19.24-1.82 2.4-1.55 4.53.32 2.51 5.22 2.2 5.81 2.93.32 2.53.78 5.2 1.75 6.65a16.9 16.9 0 0 1 -13.81 8.39zm4.19-33.16a3.44 3.44 0 0 0 .32 1.16c.85 1.76-1 1.93-2.69 4.09-.28.36-.45.31-.53.28-.68-.19-1.79-1.73-2-4a3.21 3.21 0 0 0 -2.07-2.26 16.84 16.84 0 0 1 6.97.68zm8 5.35a17.35 17.35 0 0 1 2.41 3.81c-.92-.63-2.87-1.38-4.87-2.35 2.28-1.09 2.28-1.72 2.46-1.51zm2.7 17.14c-1.58-5 .52-5.91-4.58-6.93a7.7 7.7 0 0 1 -2.11-.6 5.19 5.19 0 0 1 1.13-3.06c.71-.75 5.18.5 5.92-1a16.82 16.82 0 0 1 -.36 11.54z"/><path d="m61 6h-6c-.45-8-5.55-8-6 0h-4c-.45-8-5.55-8-6 0h-4c-.45-8-5.55-8-6 0h-4c-.45-8-5.55-8-6 0h-4c-.45-8-5.55-8-6 0h-6a3 3 0 0 0 -3 3v8a3 3 0 0 0 2 2.82v43.18a1 1 0 0 0 1 1h58a1 1 0 0 0 1-1v-43.18a3 3 0 0 0 2-2.82v-8a3 3 0 0 0 -3-3zm-9-3.91a8.18 8.18 0 0 1 1 3.91h-2a8.18 8.18 0 0 1 1-3.91zm-10 0a8.18 8.18 0 0 1 1 3.91h-2a8.18 8.18 0 0 1 1-3.91zm-10 0a8.18 8.18 0 0 1 1 3.91h-2a8.18 8.18 0 0 1 1-3.91zm-10 0a8.18 8.18 0 0 1 1 3.91h-2a8.18 8.18 0 0 1 1-3.91zm-10 0a8.18 8.18 0 0 1 1 3.91h-2a8.18 8.18 0 0 1 1-3.91zm48 59.91h-56v-42h56zm2-45a1 1 0 0 1 -1 1h-58a1 1 0 0 1 -1-1v-8a1 1 0 0 1 1-1h6c.37 7.09 4 6.63 4 5a1 1 0 0 0 -.91-1c-.31-.25-.92-1.62-1.06-4h8c.16 3.13 1.1 6 3 6a1 1 0 0 0 .09-2c-.31-.25-.92-1.62-1.06-4h8c.37 7.09 4 6.63 4 5a1 1 0 0 0 -.91-1c-.31-.25-.92-1.62-1.06-4h8c.16 3.13 1.1 6 3 6a1 1 0 0 0 .09-2c-.31-.25-.92-1.62-1.06-4h8c.37 7.09 4 6.63 4 5a1 1 0 0 0 -.91-1c-.31-.25-.92-1.62-1.06-4h9.85a1 1 0 0 1 1 1z"/></svg>