<svg viewBox="0 0 64 64" xmlns="http://www.w3.org/2000/svg" xmlns:xlink="http://www.w3.org/1999/xlink"><linearGradient id="a" gradientUnits="userSpaceOnUse" x1="31" x2="31" y1="63" y2="1"><stop offset="0" stop-color="#9dd5df"/><stop offset="1" stop-color="#c3e1f5"/></linearGradient><linearGradient id="b" gradientUnits="userSpaceOnUse" x1="16" x2="16" y1="35" y2="11"><stop offset="0" stop-color="#d4d8e1"/><stop offset="1" stop-color="#f3f4f5"/></linearGradient><path d="m18.3 18.06a112.21 112.21 0 0 1 12.7-17.06s21 22.39 21 41.33a20.83 20.83 0 0 1 -21 20.67 20.83 20.83 0 0 1 -21-20.67 38.8 38.8 0 0 1 3.42-14.77" fill="url(#a)"/><path d="m31 63a20.83 20.83 0 0 1 -20.95-22.32 20.85 20.85 0 0 0 20.95 19.32 20.85 20.85 0 0 0 21-19.3 20.83 20.83 0 0 1 -21 22.3z" fill="#77cacb"/><path d="m28 23a12 12 0 0 0 -12 12 12 12 0 0 0 -12-12 12 12 0 0 0 12-12 12 12 0 0 0 12 12z" fill="url(#b)"/><path d="m31.73.32a1 1 0 0 0 -1.46 0 114.77 114.77 0 0 0 -12 15.86 11.09 11.09 0 0 1 -1.27-5.18 1 1 0 0 0 -2 0 11 11 0 0 1 -11 11 1 1 0 0 0 0 2 11 11 0 0 1 8.26 3.76 39 39 0 0 0 -3.26 14.57 22 22 0 0 0 44 0c0-19.12-20.4-41.09-21.27-42.01zm-22.73 22.68a13.05 13.05 0 0 0 7-7 13.15 13.15 0 0 0 7 7 13.05 13.05 0 0 0 -7 7 13.07 13.07 0 0 0 -7-7zm22 39a19.86 19.86 0 0 1 -20-19.67 35.82 35.82 0 0 1 2.64-12.62c2.21 4 .55 6.29 2.36 6.29a1 1 0 0 0 1-1 11 11 0 0 1 11-11 1 1 0 0 0 0-2 10.91 10.91 0 0 1 -8.49-4 114.53 114.53 0 0 1 11.49-15.51c3.68 4.15 20 23.51 20 39.84a19.86 19.86 0 0 1 -20 19.67z"/><path d="m47 42.33a15.86 15.86 0 0 1 -16 15.67 1 1 0 0 0 0 2 17.86 17.86 0 0 0 18-17.67 1 1 0 0 0 -2 0z"/></svg>