<svg viewBox="0 0 64 64" xmlns="http://www.w3.org/2000/svg" xmlns:xlink="http://www.w3.org/1999/xlink"><linearGradient id="a" gradientUnits="userSpaceOnUse" x1="58" x2="58" y1="63.01" y2="29"><stop offset="0" stop-color="#9dd5df"/><stop offset="1" stop-color="#c3e1f5"/></linearGradient><linearGradient id="b" x1="28.98" x2="28.98" xlink:href="#a" y1="51.02" y2="6.95"/><linearGradient id="c" gradientUnits="userSpaceOnUse" x1="29.08" x2="29.08" y1="48.78" y2="31.29"><stop offset="0" stop-color="#6ab891"/><stop offset="1" stop-color="#85cba9"/></linearGradient><linearGradient id="d" x1="18.33" x2="18.33" xlink:href="#c" y1="31.86" y2="14.06"/><linearGradient id="e" x1="44.94" x2="44.94" xlink:href="#c" y1="39.36" y2="13.71"/><linearGradient id="f" x1="30.12" x2="30.12" xlink:href="#c" y1="17.29" y2="7"/><path d="m55 39.39a28 28 0 0 1 -45.8 9.41c-18.13-18.11-4.2-49.38 21.62-47.74a28 28 0 0 1 26.18 28.12z" fill="#ffd9cc"/><path d="m61 54v-22a3 3 0 0 0 -6 0v22a5 5 0 1 0 6 0z" fill="url(#a)"/><path d="m56.93 62.89a5 5 0 0 1 -3.82-5.89c1 5.29 8.67 5.31 9.79 0a5 5 0 0 1 -5.97 5.89z" fill="#77cacb"/><path d="m50.78 32.11a22 22 0 0 1 -18.05 18.57c-20.94 3.62-34.51-22-19.29-37.23 14.96-14.96 40.31-2.13 37.34 18.66z" fill="url(#b)"/><path d="m32.73 50.68a22 22 0 0 1 -25.67-23.18 22 22 0 0 0 43.94.09 22 22 0 0 1 -18.27 23.09z" fill="#77cacb"/><path d="m22.8 31.86c1.23 1 2.18-.27 4.36-.54s7.91 1.22 8.19 3.4-2.72 4.78-4.63 7.28-1.38 6.82-1.38 6.82l-2.44-1.9c-1.24-1 .26-6.69.13-7.79s-3.69-2.9-2.73-4.13-.3-2.18-1.5-3.14z" fill="url(#c)"/><path d="m27 21.36a5.86 5.86 0 0 0 -2.72 4.77c.13 1.09-3.28.42-4.23 1.64s1.5 3.14 2.73 4.09c-1.23-.95-4.65-1.63-7-2.45s-2.86-5.19-3-6.28c-.06-.86-2.31-2.13-3.86-3.13a22.31 22.31 0 0 1 3.62-5.6c10.78-1 7.6.39 9.55 1.9 1.22.95-.12.15 2.07-.14s4.91 3.84 2.84 5.2z" fill="url(#d)"/><path d="m44.82 13.71a22 22 0 0 1 3.58 25.65c-1.54-1.26-2.17-6.36-2.4-8.18-.29-2.18-6.83-1.36-7.11-3.56s1.64-4.62 1.64-4.62c1-1.23 4.37-.55 6.55-.82s-2.46-1.91-6-3.68 1.92-1.39 3.74-4.79z" fill="url(#e)"/><path d="m36.44 8.3a3.34 3.34 0 0 0 .27 1.86c1.5 3.14-1.52 3.82-3.43 6.28s-4.85-.8-5.31-5.18c-.19-1.81-4.77-2.74-4.77-2.74a5.26 5.26 0 0 1 -.07-.72 22 22 0 0 1 13.31.5z" fill="url(#f)"/><path d="m24.85 6.39c-18.02 3.3-25.33 25.66-12.12 38.88a23 23 0 0 0 36.55-5.43c9-16.84-5.37-36.94-24.43-33.45zm23.43 30.93c-2.46-6.39.86-7.59-5.63-8.89-.75-.15-2.72-.55-2.76-.93-.18-1.44 1-3.3 1.43-3.9s4-.21 5.88-.44c1.07-.13 1.37-.67 1.43-1.09.25-1.67-3-2.35-7.16-4.5a10.14 10.14 0 0 0 3.43-2.26 21 21 0 0 1 3.38 22.01zm-12.47-26.72c1.1 2.29-1.35 2.7-3.32 5.23-.43.56-.75.47-.89.43-.91-.26-2.33-2.18-2.64-5.11-.14-1.41-1.66-2.33-3.12-2.9a20.76 20.76 0 0 1 9.58.75 4 4 0 0 0 .39 1.6zm-12.53 15.19c-1.11.22-3.07.17-4 1.37a2.08 2.08 0 0 0 -.22 2.19c-.87-.26-2-.56-2.89-.88-.64-.23-1.79-1.23-2.35-5.46-.14-1.12-1.45-2-3.6-3.38a19.9 19.9 0 0 1 2.84-4.28c5.79-.51 6.84-.2 6.94-.16.81.63-.09.65 1.8 2.16.74.6 1.38.45 1.71 0a2.08 2.08 0 0 1 .77-.18c1.09-.13 3.19 2.36 2.18 3.37a7.14 7.14 0 0 0 -3.18 5.25zm-9.13 18.06a20.93 20.93 0 0 1 -4.75-22.37 10.64 10.64 0 0 1 2.44 1.83c.2 1.49.8 6 3.66 7.05 3.29 1.15 6.7 1.51 8 3.52.5.76-2.08 1.16 1.5 4.38a10.74 10.74 0 0 1 1 1 14.26 14.26 0 0 1 -.22 1.89c-1 6.42-.36 5.92 2.92 8.47a1 1 0 0 0 1.61-.91s-.46-4 1.17-6.09c2-2.56 5.17-5.25 4.84-8-.41-3.18-7.17-4.53-9.32-4.26s-3 1.2-3.62.74c-2.38-1.85-2.58-2.5-2.56-2.69.64-.81 4.74 0 4.44-2.38a4.93 4.93 0 0 1 2.28-3.81c3.16-2.11-.73-8.58-4.87-6.68-.77-.64-.14-.86-1.48-1.9-.48-.38-1.43-.73-6-.43a20.78 20.78 0 0 1 7.19-4.1 1 1 0 0 0 .62.39c1.95.4 3.92 1.32 4 1.86.59 5.57 4.61 8.89 7.09 5.69 1.7-2.17 5.3-3.41 3.6-7.17a20.45 20.45 0 0 1 5.84 4c-1.64 2-4.57 1.94-4.59 3.67 0 1.42 2 2 5.69 3.72-2 0-3.93-.06-4.87 1.14-.22.29-2.15 2.86-1.84 5.38.23 1.81 2.42 2.25 4.35 2.64.74.14 2.71.54 2.76.94.39 3.15 1 6.48 2.17 8.17a21 21 0 0 1 -33.05 4.31zm11.12-11a8.86 8.86 0 0 1 2-.57c2.12-.26 6.92 1.29 7.08 2.53s-1.44 3-2.83 4.61c-1.8 2-3.07 3.28-3.24 7.25-.9-.69-1.26-.24-.5-5.31.4-2.7.53-2.86-1.41-4.61a7.5 7.5 0 0 1 -1.22-1.27 2.26 2.26 0 0 0 .12-2.6z"/><path d="m59 56.28v-19.28a1 1 0 0 0 -2 0v19.28a2 2 0 1 0 2 0z"/><path d="m62 53.55v-21.55a4 4 0 0 0 -4-4 33.25 33.25 0 0 0 -1.44-8 29 29 0 0 0 -10.24-14.25c-19-14.2-46.32-.62-46.32 23.25 0 29.16 39 40.25 54 14.71v9.84a6 6 0 1 0 8 0zm-52.09-5.46a27 27 0 0 1 0-38.17c16.77-16.82 45.69-5.1 46.09 18.65a4 4 0 0 0 -2 3.43v7.19a27 27 0 0 1 -44.09 8.9zm50.61 13a4 4 0 0 1 -6.45-2.35 4 4 0 0 1 1.53-3.93c.6-.45.4.92.4-22.82a2 2 0 0 1 4 0c0 23.93-.17 22.39.4 22.82a4 4 0 0 1 .12 6.29z"/></svg>