<svg viewBox="0 0 64 64" xmlns="http://www.w3.org/2000/svg" xmlns:xlink="http://www.w3.org/1999/xlink"><linearGradient id="a" gradientUnits="userSpaceOnUse" x1="16.5" x2="16.5" y1="64" y2="28"><stop offset="0" stop-color="#f2c4b0"/><stop offset="1" stop-color="#ffe3d7"/></linearGradient><linearGradient id="b" x1="47.49" x2="47.49" xlink:href="#a" y2="28"/><linearGradient id="c" gradientUnits="userSpaceOnUse" x1="21" x2="21" y1="17" y2="1"><stop offset="0" stop-color="#8cdd79"/><stop offset="1" stop-color="#d4e6b6"/></linearGradient><linearGradient id="d" gradientTransform="matrix(-1 0 0 -1 86 24)" x1="43" x2="43" xlink:href="#c" y1="20" y2="4"/><linearGradient id="e" gradientUnits="userSpaceOnUse" x1="32" x2="32" y1="56" y2="35.02"><stop offset="0" stop-color="#9b756d"/><stop offset="1" stop-color="#bc9388"/></linearGradient><path d="m32 56v8h-11c.49-3.86-.26-8-3-10a90.16 90.16 0 0 1 -10-9c-3-3-7-13-7-15a2 2 0 0 1 3.77-.92c4.41 10.46 5.45 11.14 15.23 16.92a44.72 44.72 0 0 1 -4-6c-3-5-.12-5.71 2-5 3 1 5 7 8 9s6 8.11 6 12z" fill="url(#a)"/><path d="m63 30c0 2-4 12-7 15a90.16 90.16 0 0 1 -10 9c-2.71 2-3.51 6-3 10h-11c0-8-.14-8.66.35-10.61.86-3.64 3.25-7.79 5.65-9.39 3-2 5-8 8-9 2.12-.71 5 0 2 5a44.72 44.72 0 0 1 -4 6c9.78-5.78 10.81-6.46 15.21-16.91a2 2 0 0 1 3.79.91z" fill="url(#b)"/><path d="m10 1h8a14 14 0 0 1 14 14v2a0 0 0 0 1 0 0h-8a14 14 0 0 1 -14-14v-2a0 0 0 0 1 0 0z" fill="url(#c)"/><path d="m46 4h8a0 0 0 0 1 0 0v2a14 14 0 0 1 -14 14h-8a0 0 0 0 1 0 0v-2a14 14 0 0 1 14-14z" fill="url(#d)" transform="matrix(-1 0 0 -1 86 24)"/><path d="m32 15v2h-8a14 14 0 0 1 -14-14v-2a14 14 0 0 0 14 14z" fill="#7ece67"/><path d="m54 4v2a14 14 0 0 1 -14 14h-8v-2h8a14 14 0 0 0 14-14z" fill="#7ece67"/><path d="m40.81 40.9a11.71 11.71 0 0 1 -2.81 3.1c-3 2-6 8-6 12 0-4-3-10-6-12a11.71 11.71 0 0 1 -2.81-3.1c6.01-7.84 11.6-7.85 17.62 0z" fill="url(#e)"/><path d="m40.81 40.9a11.71 11.71 0 0 1 -2.81 3.1c-3 2-6 8-6 12 0-4-3-10-6-12a11.71 11.71 0 0 1 -2.81-3.1l.15-.19c2.42 4.38 14.9 4.37 17.32 0z" fill="#8a6762"/><path d="m32 59a3.61 3.61 0 0 1 -3.24 2h-.93a9.09 9.09 0 0 1 -7.53-4 14.68 14.68 0 0 1 .7 7h11c0-5.76 0-4.9 0-5z" fill="#eab39b"/><path d="m43.7 57a9.09 9.09 0 0 1 -7.53 4c-1.28 0-3.13.08-4.17-2v5h11a14.54 14.54 0 0 1 .7-7z" fill="#eab39b"/><path d="m58.31 28.69c-4.18 10-5.62 10.67-10.75 13.94 1.45-2.31 3.84-5.79 2.17-7.86-1-1.21-2.73-1.16-4-.72-2.11.7-3.65 3.22-5 5.18q-3.85-4.59-7.73-5.12v-13.11h7a15 15 0 0 0 15-15v-2a1 1 0 0 0 -1-1h-8a15 15 0 0 0 -13.45 8.41 15 15 0 0 0 -14.55-11.41h-8a1 1 0 0 0 -1 1v2a15 15 0 0 0 15 15h7v16.11q-3.87.53-7.73 5.12c-1.3-2-2.86-4.48-4.95-5.18-3.51-1.18-6.37 1.13-3.18 6.47.48.8.92 1.5 1.3 2.11-5.25-3.35-6.5-3.87-10.78-14a3 3 0 0 0 -5.66 1.37c0 2.25 4.13 12.55 7.29 15.71a91.88 91.88 0 0 0 10.11 9.09c3.46 2.59 2.62 8 2.61 8a1 1 0 0 0 2 .32c0-.26 1.05-6.63-3.39-10a89.39 89.39 0 0 1 -9.89-8.91c-2.89-2.79-6.73-12.63-6.73-14.21a1 1 0 0 1 1.85-.53c4.49 10.74 5.83 11.58 15.62 17.38a1 1 0 0 0 1.26-1.52c-.78-.88-5.89-8.08-4.9-9.31.25-.31 1.06-.34 1.85-.07 2.5.83 4.61 6.78 7.77 8.88 2.69 1.8 5.55 7.54 5.55 11.17v7a1 1 0 0 0 2 0v-7c0-3.63 2.86-9.37 5.55-11.17 3.15-2.09 5.27-8 7.77-8.88.79-.27 1.6-.24 1.85.07 1 1.23-4.17 8.48-4.9 9.31a1 1 0 0 0 1.26 1.52c9.69-5.67 11.25-6.85 15.59-17.31a1 1 0 0 1 1.88.46c0 1.58-3.84 11.42-6.71 14.29a89.39 89.39 0 0 1 -9.89 8.91c-4.4 3.33-3.4 9.7-3.4 9.96a1 1 0 0 0 2-.32c0-.06-.85-5.45 2.61-8a91.88 91.88 0 0 0 10.11-9.09c3.15-3.2 7.28-13.5 7.28-15.75a3 3 0 0 0 -5.69-1.31zm-12.31-23.69h7v1a13 13 0 0 1 -13 13h-6.12c1.93-2.69 6.35-8 11.12-8a1 1 0 0 0 0-2c-5.07 0-9.52 4.62-11.94 7.74a13 13 0 0 1 12.94-11.74zm-35-2v-1h7a13 13 0 0 1 12.94 11.74c-2.42-3.12-6.87-7.74-11.94-7.74a1 1 0 0 0 0 2c4.77 0 9.19 5.31 11.12 8h-6.12a13 13 0 0 1 -13-13zm26.45 40.17c-2.15 1.43-4.25 4.67-5.45 7.94-1.2-3.27-3.3-6.51-5.45-7.94a9.36 9.36 0 0 1 -2.11-2.24c5.28-6.53 9.82-6.56 15.12 0a9.36 9.36 0 0 1 -2.11 2.24z"/></svg>