<svg viewBox="0 0 64 64" xmlns="http://www.w3.org/2000/svg" xmlns:xlink="http://www.w3.org/1999/xlink"><linearGradient id="a" gradientUnits="userSpaceOnUse" x1="32" x2="32" y1="50" y2="9"><stop offset="0" stop-color="#949aaf"/><stop offset="1" stop-color="#c6ccda"/></linearGradient><linearGradient id="b" xlink:href="#a" y1="55" y2="49"/><linearGradient id="c" gradientUnits="userSpaceOnUse" x1="32" x2="32" y1="45" y2="13"><stop offset="0" stop-color="#d4d8e1"/><stop offset="1" stop-color="#f3f4f5"/></linearGradient><linearGradient id="d" gradientUnits="userSpaceOnUse" x1="24" x2="24" y1="31.63" y2="19"><stop offset="0" stop-color="#8cdd79"/><stop offset="1" stop-color="#d4e6b6"/></linearGradient><linearGradient id="e" gradientTransform="matrix(-1 0 0 -1 80 55.37)" x1="40" x2="40" xlink:href="#d" y1="34" y2="21.37"/><path d="m58 12v37h-19l-1 1h-12l-1-1h-19v-37a3 3 0 0 1 3-3h46a3 3 0 0 1 3 3z" fill="url(#a)"/><path d="m58 47v2h-19l-1 1h-12l-1-1h-19v-2h19.83l1 1h10.34l1-1z" fill="#8288a1"/><path d="m63 49v4l-6 2h-50l-6-2v-4h24l1 1h12l1-1z" fill="url(#b)"/><path d="m63 51v2l-6 2h-50l-6-2v-2l6 2h50z" fill="#8288a1"/><path d="m10 13h44v32h-44z" fill="url(#c)"/><path d="m10 43h44v2h-44z" fill="#c7cdd8"/><path d="m10 13h44v2h-44z" fill="#dfe3ea"/><path d="m16 19h5.39a10.61 10.61 0 0 1 10.61 10.61v2a0 0 0 0 1 0 0h-5.39a10.61 10.61 0 0 1 -10.61-10.61v-2a0 0 0 0 1 0 0z" fill="url(#d)"/><path d="m42.61 21.37h5.39a0 0 0 0 1 0 0v2a10.61 10.61 0 0 1 -10.61 10.63h-5.39a0 0 0 0 1 0 0v-2a10.61 10.61 0 0 1 10.61-10.63z" fill="url(#e)" transform="matrix(-1 0 0 -1 80 55.37)"/><path d="m32 29.63v2h-5.39a10.61 10.61 0 0 1 -10.61-10.63v-2a10.61 10.61 0 0 0 10.61 10.63z" fill="#7ece67"/><path d="m48 21.39v2a10.61 10.61 0 0 1 -10.61 10.61h-5.39v-2h5.39a10.61 10.61 0 0 0 10.61-10.61z" fill="#7ece67"/><path d="m63 48h-4v-36a4 4 0 0 0 -4-4h-46a4 4 0 0 0 -4 4v36h-4a1 1 0 0 0 -1 1c0 4.12-.22 4.65.68 5 6.56 2.13 6.09 2 6.32 2h50.32c6.39-2.18 6.68-2 6.68-3v-4a1 1 0 0 0 -1-1zm-56-36a2 2 0 0 1 2-2h46a2 2 0 0 1 2 2v36c-20.37 0-18.06-.35-19.41 1h-11.18c-.59-.6-.87-1-1.41-1h-18zm55 40.28-5.16 1.72h-49.68l-5.16-1.72v-2.28h22.59c.59.6.87 1 1.41 1 13.74 0 12.07.34 13.41-1h22.59z"/><path d="m54 46a1 1 0 0 0 1-1v-32a1 1 0 0 0 -1-1h-44a1 1 0 0 0 -1 1v32a1 1 0 0 0 1 1zm-12.55-20.89c-3.43 0-6.46 3-8.33 5.44a9.61 9.61 0 0 1 9.49-8.18h4.39v1a9.62 9.62 0 0 1 -9.61 9.63h-3.59c1.65-2.42 4.68-5.89 7.65-5.89a1 1 0 0 0 0-2zm-18.9-.37c3 0 6 3.47 7.65 5.89h-3.59a9.62 9.62 0 0 1 -9.61-9.63v-1h4.39a9.61 9.61 0 0 1 9.49 8.18c-1.88-2.42-4.88-5.44-8.33-5.44a1 1 0 0 0 0 2zm-11.55-10.74h42v30h-20v-9h4.39a11.63 11.63 0 0 0 11.61-11.61v-2a1 1 0 0 0 -1-1h-5.39a11.59 11.59 0 0 0 -10.1 5.91 11.64 11.64 0 0 0 -11.12-8.3h-5.39a1 1 0 0 0 -1 1v2a11.63 11.63 0 0 0 11.61 11.63h4.39v11.37h-20z"/></svg>