<svg viewBox="0 0 64 64" xmlns="http://www.w3.org/2000/svg" xmlns:xlink="http://www.w3.org/1999/xlink"><linearGradient id="a" gradientUnits="userSpaceOnUse" x1="22.74" x2="22.74" y1="14.47" y2="1"><stop offset="0" stop-color="#8cdd79"/><stop offset="1" stop-color="#d4e6b6"/></linearGradient><linearGradient id="b" gradientTransform="matrix(-1 0 0 -1 82.53 20.53)" x1="41.26" x2="41.26" xlink:href="#a" y1="17" y2="3.53"/><linearGradient id="c" gradientUnits="userSpaceOnUse" x1="31.98" x2="31.98" y1="63.02" y2="22.96"><stop offset="0" stop-color="#9dd5df"/><stop offset="1" stop-color="#c3e1f5"/></linearGradient><linearGradient id="d" gradientUnits="userSpaceOnUse" x1="32.08" x2="32.08" y1="60.98" y2="45.08"><stop offset="0" stop-color="#6ab891"/><stop offset="1" stop-color="#85cba9"/></linearGradient><linearGradient id="e" x1="22.31" x2="22.31" xlink:href="#d" y1="45.6" y2="29.42"/><linearGradient id="f" x1="46.49" x2="46.49" xlink:href="#d" y1="52.42" y2="29.1"/><linearGradient id="g" x1="33.02" x2="33.02" xlink:href="#d" y1="32.35" y2="23"/><path d="m13.47 1h6.74a11.79 11.79 0 0 1 11.79 11.79v1.68a0 0 0 0 1 0 0h-6.74a11.79 11.79 0 0 1 -11.79-11.79v-1.68a0 0 0 0 1 0 0z" fill="url(#a)"/><path d="m43.79 3.53h6.74a0 0 0 0 1 0 0v1.68a11.79 11.79 0 0 1 -11.79 11.79h-6.74a0 0 0 0 1 0 0v-1.68a11.79 11.79 0 0 1 11.79-11.79z" fill="url(#b)" transform="matrix(-1 0 0 -1 82.53 20.53)"/><path d="m32 14.47h-6.74a11.79 11.79 0 0 1 -11.79-11.79c0-1.92 0-1.68.07-1.68a11.79 11.79 0 0 0 11.72 10.47h6.66a22.73 22.73 0 0 1 .08 3z" fill="#7ece67"/><path d="m50.53 5.21a11.79 11.79 0 0 1 -11.79 11.79h-6.74a27.15 27.15 0 0 1 .07-3h6.67a11.78 11.78 0 0 0 11.71-10.47c.11 0 .08-.25.08 1.68z" fill="#7ece67"/><path d="m51.8 45.82a20 20 0 0 1 -16.41 16.89c-19.04 3.29-31.39-20.01-17.53-33.85 13.6-13.6 36.64-1.93 33.94 16.96z" fill="url(#c)"/><path d="m35.39 62.71a20 20 0 0 1 -23.33-21.21 20 20 0 0 0 39.88 0 20 20 0 0 1 -16.55 21.21z" fill="#77cacb"/><path d="m26.36 45.6c1.12.87 2-.24 4-.49s7.19 1.11 7.45 3.09-2.48 4.35-4.22 6.58-1.27 6.22-1.27 6.22l-2.23-1.73c-1.12-.87.24-6.08.12-7.08s-3.35-2.6-2.48-3.71-.25-2.01-1.37-2.88z" fill="url(#d)"/><path d="m30.2 36.05a5.34 5.34 0 0 0 -2.47 4.34c.12 1-3 .38-3.85 1.49s1.37 2.85 2.48 3.72c-1.11-.87-4.22-1.48-6.33-2.22s-2.6-4.72-2.73-5.71c-.1-.79-2.15-2-3.55-2.85a20.43 20.43 0 0 1 3.25-5.1c9.8-.9 6.91.36 8.68 1.73 1.11.87-.11.14 1.88-.12s4.51 3.48 2.64 4.72z" fill="url(#e)"/><path d="m46.38 29.1a20 20 0 0 1 3.26 23.32c-1.41-1.14-2-5.75-2.19-7.44-.25-2-6.2-1.24-6.45-3.23s1.49-4.22 1.49-4.22c.86-1.11 4-.49 5.95-.74s-2.24-1.74-5.44-3.34 1.72-1.26 3.38-4.35z" fill="url(#f)"/><path d="m38.77 24.18a3 3 0 0 0 .24 1.7c1.37 2.85-1.38 3.47-3.11 5.7s-4.41-.73-4.83-4.71c-.18-1.64-4.34-2.49-4.34-2.49a5.81 5.81 0 0 1 -.06-.65 19.92 19.92 0 0 1 12.1.45z" fill="url(#g)"/><path d="m33 22v-4h5.74a12.81 12.81 0 0 0 12.79-12.79v-1.68a1 1 0 0 0 -1-1h-6.74a12.79 12.79 0 0 0 -11.28 6.78 12.81 12.81 0 0 0 -12.3-9.31h-6.74a1 1 0 0 0 -1 1v1.68a12.8 12.8 0 0 0 12.79 12.79h5.74v6.53c-18.18.9-26.68 23-13.85 35.85 12.23 12.24 33.22 5.15 35.64-11.85a21 21 0 0 0 -19.79-24zm16.55 28.3c-.18.42-.93-4-1.1-5.45-.37-2.85-5.87-2.23-6.45-3.23a5.8 5.8 0 0 1 1.29-3.47c.38-.5 3.83-.19 5.28-.37 1.84-.23 1.17-1.66 1.45-.83a19.1 19.1 0 0 1 -.47 13.35zm-3.09-19.61a18.71 18.71 0 0 1 3 4.89c-.85-.77-3.65-1.84-5.93-3a9.23 9.23 0 0 0 2.93-1.89zm-8.35-4.38c1 2-1.21 2.35-3 4.66-.36.46-.6.39-.72.36-.8-.23-2-1.94-2.33-4.57-.13-1.22-1.34-2.05-2.59-2.58a18.91 18.91 0 0 1 8.28.72 3.72 3.72 0 0 0 .36 1.41zm5.68-21.78h5.74c0 7.39-5.38 11.47-10.79 11.47h-4.85c1.69-2.3 5.25-6.42 9.06-6.42a1 1 0 0 0 1-1c0-2.15-5.69-1.21-10.82 5.12a10.81 10.81 0 0 1 10.66-9.17zm-29.32-2.53h5.74a10.81 10.81 0 0 1 10.66 9.18c-2.12-2.62-5.72-6.13-9.82-6.13a1 1 0 0 0 0 2c3.81 0 7.37 4.12 9.06 6.42h-4.85c-5.47 0-10.79-4.14-10.79-11.47zm12.24 38c-1.09.21-2.77.17-3.62 1.27a1.92 1.92 0 0 0 -.27 1.91c-.68-.2-1.65-.47-2.45-.75-.45-.16-1.56-1-2.08-4.89-.13-1-1.31-1.88-3.25-3.09a18.45 18.45 0 0 1 2.52-3.77c5.17-.46 6.13-.18 6.2-.17.74.58-.13.56 1.64 2a1.27 1.27 0 0 0 1 .38 1 1 0 0 0 .67-.38 2.3 2.3 0 0 1 .66-.16c.57-.08 1.62.77 2 1.84.3.83 0 1-.1 1.06a6.71 6.71 0 0 0 -2.92 4.75zm-8.15 16.44a18.94 18.94 0 0 1 -4.33-20.14 10 10 0 0 1 2.09 1.57c.18 1.39.74 5.51 3.38 6.45 2.23.78 4.84 1.26 6.05 2.07 1.38 1.07 1.35 1.24 1.19 1.45-1.46 1.88 1.72 3.67 2.28 4.52 0 .28-.12 1-.21 1.63-.89 6-.25 5.5 2.69 7.78a1 1 0 0 0 1.61-.91s-.42-3.59 1-5.46c1.83-2.36 4.73-4.8 4.42-7.33-.38-3-6.6-4.2-8.57-4-1.8.22-2.74 1.06-3.22.69-1.6-1.24-2.28-2-2.31-2.31.54-.7 4.33 0 4-2.24a4.46 4.46 0 0 1 2-3.38c3-2-.68-7.91-4.47-6.25-.62-.5 0-.71-1.3-1.7-.46-.35-1.3-.67-5.26-.42a18.7 18.7 0 0 1 6.4-3.46.94.94 0 0 0 .58.36c1.82.37 3.5 1.21 3.54 1.62.55 5.18 4.31 8.18 6.61 5.22 1.52-2 4.72-3.07 3.39-6.4a18.68 18.68 0 0 1 5 3.43c-1.57 1.77-4.12 1.68-4.19 3.33 0 1.4 2.17 2.07 4.83 3.28-1.69 0-3.25 0-4.06 1.08-.21.26-2 2.63-1.7 4.95.36 2.82 5.89 2.25 6.46 3.26.36 2.84.88 5.85 2 7.41a19 19 0 0 1 -29.9 3.9zm10.17-9.86a7.56 7.56 0 0 1 1.72-.48c2-.24 6.21 1.23 6.34 2.22s-1.3 2.68-2.56 4.12c-1.62 1.85-2.76 3-3 6.48-.59-.46-.95-.12-.28-4.64.37-2.49.49-2.66-1.31-4.28a8.23 8.23 0 0 1 -1.06-1.08 2 2 0 0 0 .15-2.34z"/></svg>