<svg viewBox="0 0 64 64" xmlns="http://www.w3.org/2000/svg" xmlns:xlink="http://www.w3.org/1999/xlink"><linearGradient id="a" gradientUnits="userSpaceOnUse" x1="32" x2="32" y1="47" y2="1"><stop offset="0" stop-color="#fbcc88"/><stop offset="1" stop-color="#ffe5c3"/></linearGradient><linearGradient id="b" gradientUnits="userSpaceOnUse" x1="25" x2="25" y1="30" y2="18"><stop offset="0" stop-color="#8cdd79"/><stop offset="1" stop-color="#d4e6b6"/></linearGradient><linearGradient id="c" gradientTransform="matrix(-1 0 0 -1 78 54)" x1="39" x2="39" xlink:href="#b" y1="33" y2="21"/><linearGradient id="d" gradientUnits="userSpaceOnUse" x1="32" x2="32" y1="59" y2="47"><stop offset="0" stop-color="#949aaf"/><stop offset="1" stop-color="#c6ccda"/></linearGradient><path d="m46.26 37.41a13.14 13.14 0 0 0 -4.26 9.59h-20a13 13 0 0 0 -4.24-9.57c-13.76-12.67-5.13-35.43 13.11-36.43 19.67-1 29.69 23.21 15.39 36.41z" fill="url(#a)"/><path d="m42.37 44a12.51 12.51 0 0 0 -.37 3h-20a12.57 12.57 0 0 0 -.36-3z" fill="#f6b756"/><path d="m18 18h3a11 11 0 0 1 11 11v1a0 0 0 0 1 0 0h-3a11 11 0 0 1 -11-11v-1a0 0 0 0 1 0 0z" fill="url(#b)"/><path d="m43 21h3a0 0 0 0 1 0 0v1a11 11 0 0 1 -11 11h-3a0 0 0 0 1 0 0v-1a11 11 0 0 1 11-11z" fill="url(#c)" transform="matrix(-1 0 0 -1 78 54)"/><path d="m32 30h-3a11 11 0 0 1 -11-10.95c0-1.13-.06-1.05 0-1.05a10.94 10.94 0 0 0 11 10h3a18.72 18.72 0 0 1 0 2z" fill="#7ece67"/><path d="m46 22.05a11 11 0 0 1 -11 11h-3c0-1 0-1.47 0-2h3a10.94 10.94 0 0 0 11-10.05c.06 0 0-.08 0 1.05z" fill="#7ece67"/><path d="m22 47h20a0 0 0 0 1 0 0v8a4 4 0 0 1 -4 4h-12a4 4 0 0 1 -4-4v-8a0 0 0 0 1 0 0z" fill="url(#d)"/><path d="m32 63a3 3 0 0 1 -3-3v-1h6v1a3 3 0 0 1 -3 3z" fill="#8288a1"/><path d="m47.14 6c-13.8-13.06-36.91-3.53-37.14 15.73a22.07 22.07 0 0 0 7.08 16.44 12.09 12.09 0 0 1 3.92 8.83v2a1 1 0 1 0 0 2v2a1 1 0 1 0 0 2 5 5 0 0 0 5 5h2a4 4 0 0 0 8 0h2a5 5 0 0 0 4.59-3h.41a1 1 0 0 0 .09-2c-.13 0-.09.29-.09-2a1 1 0 0 0 0-2c0-4.27-.57-8.67 3.94-12.85a22 22 0 0 0 .2-32.15zm-15.14 56a2 2 0 0 1 -2-2h4a2 2 0 0 1 -2 2zm6-4h-12a3 3 0 0 1 -3-2.81l17.39 1.58a3 3 0 0 1 -2.39 1.23zm-15-4.82v-2l18 1.63v2zm0-4v-1.18h18v2.81zm16.34-23.93-6.26 5.47a10 10 0 0 1 9.92-8.72h2a10 10 0 0 1 -10 10c-.55 0-1.3.8 5.61-5.25a1 1 0 0 0 -1.27-1.5zm-16-1.5c6.91 6.04 6.15 5.25 5.66 5.25a10 10 0 0 1 -10-10h2.05a10 10 0 0 1 9.87 8.72l-6.26-5.47a1 1 0 0 0 -1.32 1.5zm22.24 12.93a14.18 14.18 0 0 0 -4.58 9.32h-7a1 1 0 0 1 -1-1v-11h2a12 12 0 0 0 12-11.95v-1.05a1 1 0 0 0 -1-1h-3a11.94 11.94 0 0 0 -10.34 6 12 12 0 0 0 -11.56-9h-3.1a1 1 0 0 0 -1 1v1.05a12 12 0 0 0 12 11.95h2v14a1 1 0 0 1 -1 1h-7a14.11 14.11 0 0 0 -4.52-9.3c-13.14-12.09-4.8-33.77 12.44-34.7 18.84-1 28.23 22.12 14.66 34.68z"/></svg>