<svg viewBox="0 0 64 64" xmlns="http://www.w3.org/2000/svg" xmlns:xlink="http://www.w3.org/1999/xlink"><linearGradient id="a" gradientUnits="userSpaceOnUse" x1="32" x2="32" y1="63" y2="57"><stop offset="0" stop-color="#9b756d"/><stop offset="1" stop-color="#bc9388"/></linearGradient><linearGradient id="b" gradientUnits="userSpaceOnUse" x1="32" x2="32" y1="31" y2="1"><stop offset="0" stop-color="#7aa8d7"/><stop offset="1" stop-color="#c3d2e7"/></linearGradient><linearGradient id="c" gradientUnits="userSpaceOnUse" x1="51" x2="51" y1="5" y2="1"><stop offset="0" stop-color="#d1a788"/><stop offset="1" stop-color="#f2d3b8"/></linearGradient><linearGradient id="d" x1="51" x2="51" xlink:href="#a" y1="18.06" y2="5"/><linearGradient id="e" gradientUnits="userSpaceOnUse" x1="32" x2="32" y1="57" y2="8"><stop offset="0" stop-color="#d4d8e1"/><stop offset="1" stop-color="#f3f4f5"/></linearGradient><linearGradient id="f" gradientUnits="userSpaceOnUse" x1="25" x2="25" y1="50" y2="38"><stop offset="0" stop-color="#8cdd79"/><stop offset="1" stop-color="#d4e6b6"/></linearGradient><linearGradient id="g" gradientTransform="matrix(-1 0 0 -1 78 94)" x1="39" x2="39" xlink:href="#f" y1="53" y2="41"/><linearGradient id="h" gradientUnits="userSpaceOnUse" x1="32" x2="32" y1="37" y2="17"><stop offset="0" stop-color="#e9a254"/><stop offset="1" stop-color="#f4bb79"/></linearGradient><path d="m1 57h62v6h-62z" fill="url(#a)"/><path d="m1 61h62v2h-62z" fill="#8a6762"/><path d="m63 31-31-23-31 23v-7l31-23 31 23z" fill="url(#b)"/><path d="m63 28v3l-31-23-31 23v-3l31-23z" fill="#5b8dc9"/><path d="m45 1h12v4h-12z" fill="url(#c)"/><path d="m47 12.13v-7.13h8v13.06z" fill="url(#d)"/><path d="m55 25.06v31.94h-46v-31.94l23-17.06z" fill="url(#e)"/><path d="m9 55h46v2h-46z" fill="#c7cdd8"/><path d="m18 38h3a11 11 0 0 1 11 11v1a0 0 0 0 1 0 0h-3a11 11 0 0 1 -11-11v-1a0 0 0 0 1 0 0z" fill="url(#f)"/><path d="m43 41h3a0 0 0 0 1 0 0v1a11 11 0 0 1 -11 11h-3a0 0 0 0 1 0 0v-1a11 11 0 0 1 11-11z" fill="url(#g)" transform="matrix(-1 0 0 -1 78 94)"/><path d="m32 50h-3a11 11 0 0 1 -11-10.95c0-1.13-.06-1 0-1a10.94 10.94 0 0 0 11 9.95h3a18.72 18.72 0 0 1 0 2z" fill="#7ece67"/><path d="m46 42.05a11 11 0 0 1 -11 11h-3c0-1 0-1.47 0-2h3a10.94 10.94 0 0 0 11-10.05c.06 0 0-.08 0 1.05z" fill="#7ece67"/><circle cx="32" cy="27" fill="url(#h)" r="10"/><path d="m32 37a10 10 0 0 1 -9.95-11 10 10 0 0 0 19.95 0 10 10 0 0 1 -10 11z" fill="#dd8b37"/><path d="m36 27-3-1v-5l-5 6 3 1v5z" fill="#fff"/><path d="m55 25.06v2.49l-23-17.06-23 17.06v-2.49l23-17.06z" fill="#dfe3ea"/><path d="m63.45 31.89c.76-.38.55-.44.55-7.89 0-.7.12-.42-8-6.44v-11.56h1a1 1 0 0 0 1-1v-4a1 1 0 0 0 -1-1h-12a1 1 0 0 0 -1 1v4a1 1 0 0 0 1 1h1v4.14l-13.4-9.94a1 1 0 0 0 -1.2 0l-31 23c-.57.43-.4.44-.4 7.8a1 1 0 0 0 1.6.8l6.4-4.75v28.95h-7a1 1 0 0 0 -1 1v6a1 1 0 0 0 1 1h62a1 1 0 0 0 1-1v-6a1 1 0 0 0 -1-1h-7v-28.95c6.93 5.15 6.71 5.22 7.45 4.84zm-17.45-29.89h10v2h-10zm2 4h6v10.08l-6-4.45zm-46 18.5 30-22.25 30 22.25v4.5l-29.4-21.8a1 1 0 0 0 -1.2 0l-29.4 21.8zm60 37.5h-60v-4h60zm-30-26a9 9 0 1 1 9-9 9 9 0 0 1 -9 9zm7.34 9.25-6.26 5.47a10 10 0 0 1 9.92-8.72h2a10 10 0 0 1 -10 10c-.55 0-1.3.8 5.61-5.25a1 1 0 0 0 -1.27-1.5zm-16-1.5c6.91 6.04 6.15 5.25 5.66 5.25a10 10 0 0 1 -10-10h2.05a10 10 0 0 1 9.87 8.72l-6.26-5.47a1 1 0 0 0 -1.32 1.5zm30.66 12.25h-20a1 1 0 0 1 -1-1v-1h2a12 12 0 0 0 12-12v-1a1 1 0 0 0 -1-1h-3a11.94 11.94 0 0 0 -10 5.35v-7.35a11 11 0 1 0 -2 0v4.4a11.94 11.94 0 0 0 -9.95-5.4h-3.05a1 1 0 0 0 -1 1v1a12 12 0 0 0 12 12h2v4a1 1 0 0 1 -1 1h-20v-30.43l22-16.32 22 16.32z"/><path d="m34 25.28v-4.28a1 1 0 0 0 -1.77-.64c-6.46 7.75-6.6 6.91-2.23 8.36 0 4.34-.22 4.9.66 5.22a1 1 0 0 0 1.11-.3c6.46-7.75 6.6-6.91 2.23-8.36zm-2 5c0-3.34.37-2.84-2.29-3.73l2.29-2.79c0 3.34-.37 2.84 2.29 3.73z"/></svg>