<svg viewBox="0 0 64 64" xmlns="http://www.w3.org/2000/svg" xmlns:xlink="http://www.w3.org/1999/xlink"><linearGradient id="a" gradientUnits="userSpaceOnUse" x1="32" x2="32" y1="63" y2="1"><stop offset="0" stop-color="#474f72"/><stop offset="1" stop-color="#878c9f"/></linearGradient><linearGradient id="b" gradientUnits="userSpaceOnUse" x1="32" x2="32" y1="50" y2="14"><stop offset="0" stop-color="#6ab891"/><stop offset="1" stop-color="#85cba9"/></linearGradient><linearGradient id="c" gradientUnits="userSpaceOnUse" x1="32" x2="32" y1="46" y2="18"><stop offset="0" stop-color="#d4d8e1"/><stop offset="1" stop-color="#f3f4f5"/></linearGradient><linearGradient id="d" gradientUnits="userSpaceOnUse" x1="32" x2="32" y1="39" y2="22"><stop offset="0" stop-color="#8cdd79"/><stop offset="1" stop-color="#d4e6b6"/></linearGradient><path d="m63 37v-10l-6.7-.86a25 25 0 0 0 -3-7.18l4.13-5.34-7.05-7.08-5.38 4.13a25 25 0 0 0 -7.18-3l-.82-6.67h-10l-.86 6.7a25 25 0 0 0 -7.18 3l-5.34-4.16-7.08 7.08 4.13 5.38a25 25 0 0 0 -3 7.18l-6.67.82v10l6.7.86a25 25 0 0 0 3 7.18l-4.16 5.34 7.08 7.08 5.38-4.13a25 25 0 0 0 7.18 3l.82 6.67h10l.86-6.7a25 25 0 0 0 7.18-3l5.34 4.13 7.08-7.08-4.13-5.35a25 25 0 0 0 3-7.18z" fill="url(#a)"/><circle cx="32" cy="32" fill="url(#b)" r="18"/><path d="m32 50a18 18 0 0 1 -18-19 18 18 0 0 0 36 0 18 18 0 0 1 -18 19z" fill="#4da67f"/><path d="m53.33 45 4.13 5.34-7.08 7.08-5.38-4.09a25 25 0 0 1 -7.18 3l-.82 6.67h-10l-.86-6.7a25 25 0 0 1 -7.18-3l-5.34 4.13-7.08-7.05 4.13-5.38a24.69 24.69 0 0 1 -2.83-6.65c9.36 20.78 39 20.79 48.32 0a24.69 24.69 0 0 1 -2.83 6.65z" fill="#42455e"/><circle cx="32" cy="32" fill="url(#c)" r="14"/><path d="m37 32.77c0 4.69-5 6.23-5 6.23s-5-1.54-5-6.23 5-10.77 5-10.77 5 6.07 5 10.77z" fill="url(#d)"/><path d="m46 33a14 14 0 0 0 -28 0 14 14 0 1 1 28 0z" fill="#dfe3ea"/><path d="m7.7 37.86c.11.5.29.9-.11 0z" fill="#42455e"/><path d="m56.3 37.86c.11 0 .19-.13-.14.53.05-.18.1-.39.14-.53z" fill="#42455e"/><path d="m63.13 26-6-.78a25.83 25.83 0 0 0 -2.59-6.22l3.71-4.8a1 1 0 0 0 -.09-1.32l-7.07-7.04a1 1 0 0 0 -1.32-.09l-4.77 3.71a25.83 25.83 0 0 0 -6.2-2.56l-.8-6.03a1 1 0 0 0 -1-.87h-10a1 1 0 0 0 -1 .87l-.78 6a25.83 25.83 0 0 0 -6.22 2.59l-4.8-3.71a1 1 0 0 0 -1.32.09l-7.04 7.07a1 1 0 0 0 -.09 1.32l3.71 4.77a25.83 25.83 0 0 0 -2.56 6.2l-6.03.8a1 1 0 0 0 -.87 1v10a1 1 0 0 0 .87 1l6 .78a25.83 25.83 0 0 0 2.59 6.22l-3.71 4.8a1 1 0 0 0 .09 1.32l7.07 7.07a1 1 0 0 0 1.32.09l4.77-3.74a25.83 25.83 0 0 0 6.2 2.56l.78 6a1 1 0 0 0 1.02.9h10a1 1 0 0 0 1-.87l.78-6a25.83 25.83 0 0 0 6.22-2.59l4.8 3.71a1 1 0 0 0 1.32-.09l7.07-7.07a1 1 0 0 0 .09-1.32l-3.74-4.77a25.83 25.83 0 0 0 2.56-6.2l6-.78a1 1 0 0 0 .9-1.02v-10a1 1 0 0 0 -.87-1zm-1.13 10.12c-6.16.8-6.45.61-6.67 1.51-2.45 10.19-5.65 4.31.8 12.67l-5.83 5.83c-4.9-3.78-5-4.13-5.78-3.65-9 5.48-7.05-1-8.4 9.52h-8.24c-.8-6.16-.61-6.45-1.51-6.67-10.14-2.44-4.32-5.64-12.67.8l-5.83-5.83c3.8-4.92 4.13-5 3.65-5.78-5.48-9 1-7.05-9.52-8.4v-8.24c6.16-.8 6.45-.61 6.67-1.51 2.45-10.19 5.65-4.31-.8-12.67l5.83-5.83c4.92 3.8 5 4.13 5.78 3.65 9-5.48 7.05 1 8.4-9.52h8.24c.8 6.16.61 6.45 1.51 6.67 10.14 2.44 4.32 5.64 12.67-.8l5.83 5.83c-3.8 4.92-4.13 5-3.65 5.78 5.48 9-1 7.05 9.52 8.4z"/><path d="m31.23 21.36c-.23.26-5.23 6.41-5.23 11.41 0 3.82 3 6 5 6.92v2.31a1 1 0 0 0 2 0v-2.31c2-.87 5-3.1 5-6.92 0-5-5-11.15-5.23-11.41a1 1 0 0 0 -1.54 0zm1.77 16.1v-7.46a1 1 0 0 0 -2 0v7.46c-5.34-3.05-2.6-8.86 1-13.81 3.62 4.98 6.32 10.77 1 13.81z"/><path d="m32 17a15 15 0 1 0 15 15 15 15 0 0 0 -15-15zm0 28a13 13 0 1 1 13-13 13 13 0 0 1 -13 13z"/><path d="m32 13a19 19 0 1 0 19 19 19 19 0 0 0 -19-19zm0 36a17 17 0 1 1 17-17 17 17 0 0 1 -17 17z"/></svg>