<svg viewBox="0 0 64 64" xmlns="http://www.w3.org/2000/svg" xmlns:xlink="http://www.w3.org/1999/xlink"><linearGradient id="a" gradientUnits="userSpaceOnUse" x1="27.02" x2="27.02" y1="63" y2="11"><stop offset="0" stop-color="#d1a788"/><stop offset="1" stop-color="#f2d3b8"/></linearGradient><linearGradient id="b" gradientUnits="userSpaceOnUse" x1="29" x2="29" y1="47" y2="23"><stop offset="0" stop-color="#d4d8e1"/><stop offset="1" stop-color="#f3f4f5"/></linearGradient><linearGradient id="c" gradientUnits="userSpaceOnUse" x1="29" x2="29" y1="41" y2="26.43"><stop offset="0" stop-color="#8cdd79"/><stop offset="1" stop-color="#d4e6b6"/></linearGradient><path d="m19.94 61.94-17.88-17.88a3.62 3.62 0 0 1 0-5.12l26.88-26.88a3.62 3.62 0 0 1 2.56-1.06h16.5a5 5 0 0 1 5 5c0 17.56.37 17.63-1.06 19.06l-26.88 26.88a3.62 3.62 0 0 1 -5.12 0z" fill="url(#a)"/><circle cx="29" cy="35" fill="url(#b)" r="12"/><path d="m29 47a12 12 0 0 1 -12-13 12 12 0 0 0 24 0 12 12 0 0 1 -12 13z" fill="#c7cdd8"/><path d="m53 28.5c0 3.81.3 5.2-1.06 6.56l-26.88 26.88a3.63 3.63 0 0 1 -5.12 0l-17.88-17.88a3.63 3.63 0 0 1 -.46-4.56c.27.42-.9-.8 18.34 18.44a3.63 3.63 0 0 0 5.12 0l26.88-26.88a3.62 3.62 0 0 0 1.06-2.56z" fill="#cba07a"/><path d="m33.29 35.66c0 4.02-4.29 5.34-4.29 5.34s-4.29-1.32-4.29-5.34 4.29-9.23 4.29-9.23 4.29 5.2 4.29 9.23z" fill="url(#c)"/><path d="m28.23 25.79c-4.72 5.74-7 12.84-.23 15.89v1.89a1 1 0 0 0 2 0v-1.89c6.81-3 4.49-10.16-.23-15.89a1 1 0 0 0 -1.54 0zm1.77 13.63v-6.13a1 1 0 0 0 -2 0v6.13c-4.15-2.58-1.9-7.28 1-11.33 2.86 3.99 5.17 8.74 1 11.33z"/><path d="m29 22a13 13 0 1 0 13 13 13 13 0 0 0 -13-13zm0 24a11 11 0 1 1 11-11 11 11 0 0 1 -11 11z"/><path d="m54 0a10 10 0 0 0 -10 10c-13.28 0-14-.44-15.77 1.35l-26.88 26.88a4.64 4.64 0 0 0 0 6.54l17.88 17.88a4.64 4.64 0 0 0 6.54 0l26.88-26.88a4.65 4.65 0 0 0 1.35-3.27v-12.5a10 10 0 0 0 0-20zm-2 32.5c0 1.5 1.56-.5-27.65 28.73a2.68 2.68 0 0 1 -3.7 0l-17.88-17.88a2.62 2.62 0 0 1 0-3.7c29.23-29.22 27.23-27.65 28.73-27.65h12.72a9.63 9.63 0 0 0 1.21 3.1 2.5 2.5 0 1 0 1.68-1.1 8.3 8.3 0 0 1 -.85-2h1.74a4 4 0 0 1 4 4zm2-14.5v-2a6 6 0 0 0 -6-6h-2a8 8 0 1 1 8 8z"/></svg>