<svg viewBox="0 0 64 64" xmlns="http://www.w3.org/2000/svg" xmlns:xlink="http://www.w3.org/1999/xlink"><linearGradient id="a" gradientUnits="userSpaceOnUse" x1="29" x2="29" y1="58" y2="31"><stop offset="0" stop-color="#6ab891"/><stop offset="1" stop-color="#85cba9"/></linearGradient><linearGradient id="b" gradientUnits="userSpaceOnUse" x1="32" x2="32" y1="41" y2="31"><stop offset="0" stop-color="#9dd5df"/><stop offset="1" stop-color="#c3e1f5"/></linearGradient><linearGradient id="c" gradientUnits="userSpaceOnUse" x1="3" x2="3" y1="50.02" y2="44.18"><stop offset="0" stop-color="#fbcc88"/><stop offset="1" stop-color="#ffe5c3"/></linearGradient><linearGradient id="d" x1="55" x2="55" xlink:href="#c" y1="51" y2="46"/><linearGradient id="e" gradientUnits="userSpaceOnUse" x1="34" x2="34" y1="27" y2="1"><stop offset="0" stop-color="#e9a254"/><stop offset="1" stop-color="#f4bb79"/></linearGradient><linearGradient id="f" gradientTransform="matrix(0 1 -1 0 23 5)" gradientUnits="userSpaceOnUse" x1="9" x2="9" y1="18" y2="10"><stop offset="0" stop-color="#949aaf"/><stop offset="1" stop-color="#c6ccda"/></linearGradient><linearGradient id="g" gradientUnits="userSpaceOnUse" x1="49" x2="49" y1="63" y2="53"><stop offset="0" stop-color="#474f72"/><stop offset="1" stop-color="#878c9f"/></linearGradient><linearGradient id="h" x1="10" x2="10" xlink:href="#g"/><linearGradient id="i" x1="10" x2="10" xlink:href="#f" y1="56" y2="60"/><linearGradient id="j" x1="49" x2="49" xlink:href="#f" y1="56" y2="60"/><path d="m57 58v-12l-2.81-10.55a6 6 0 0 0 -5.19-4.45c-.46 0 1.16 0-20.84 0-2.81 0-3.11.78-14.17 10-9.67 3-9.22 2.8-9.89 3.18a6 6 0 0 0 -3.1 5.25v8.57z" fill="url(#a)"/><path d="m50 38.1a2.9 2.9 0 0 1 -2.9 2.9h-33.1c11.14-9.29 11.36-10 14.17-10h19.83c2.07 6.89 2 6.5 2 7.1z" fill="url(#b)"/><path d="m47.1 41h-33.1l2.4-2h30.7a2.9 2.9 0 0 0 2.73-1.92 2.92 2.92 0 0 1 -2.73 3.92z" fill="#77cacb"/><path d="m1 50c0-2.77 1.08-4.68 3.11-5.78a3.5 3.5 0 0 1 -3.11 5.78z" fill="url(#c)"/><path d="m55 46h2a0 0 0 0 1 0 0v5a0 0 0 0 1 0 0h-2a2 2 0 0 1 -2-2v-1a2 2 0 0 1 2-2z" fill="url(#d)"/><circle cx="34" cy="14" fill="url(#e)" r="13"/><path d="m34 27a13 13 0 0 1 -12.91-14.5 13 13 0 0 0 25.82 0 13 13 0 0 1 -12.91 14.5z" fill="#dd8b37"/><path d="m39 14-3.57-1.38v-7.62l-6.43 9 3.57 1.38v7.62z" fill="#fff"/><path d="m5 11h8a0 0 0 0 1 0 0v3a3 3 0 0 1 -3 3h-2a3 3 0 0 1 -3-3v-3a0 0 0 0 1 0 0z" fill="url(#f)" transform="matrix(0 -1 1 0 -5 23)"/><path d="m12 13v2a3 3 0 0 1 -3 3h-3v-2h3a3 3 0 0 0 3-3z" fill="#8288a1"/><path d="m1 55h56v3h-56z" fill="#4da67f"/><circle cx="49" cy="58" fill="url(#g)" r="5"/><circle cx="10" cy="58" fill="url(#h)" r="5"/><path d="m49 63a5 5 0 0 1 -4.9-6 5 5 0 0 0 9.8 0 5 5 0 0 1 -4.9 6z" fill="#42455e"/><path d="m10 63a5 5 0 0 1 -4.9-6 5 5 0 0 0 9.8 0 5 5 0 0 1 -4.9 6z" fill="#42455e"/><path d="m10 60a2 2 0 1 1 2-2 2 2 0 0 1 -2 2z" fill="url(#i)"/><path d="m49 60a2 2 0 1 1 2-2 2 2 0 0 1 -2 2z" fill="url(#j)"/><circle cx="10" cy="58" r="2"/><circle cx="49" cy="58" r="2"/><path d="m32 44h-3a1 1 0 0 0 0 2h3a1 1 0 0 0 0-2z"/><path d="m55 13h-7a14 14 0 0 0 -27.9 0h-8.1a4 4 0 0 0 -4-4h-2a1 1 0 0 0 -2 0v1h-3a1 1 0 0 0 0 2h3v4h-3a1 1 0 0 0 0 2h3v1a1 1 0 0 0 2 0h2a4 4 0 0 0 4-4h8.05a14 14 0 0 0 27.95 0h7a7 7 0 0 1 7 7v28.26a3 3 0 0 1 -3 3h-1c0-9.59.63-5-2.84-18.07a7.08 7.08 0 0 0 -6.77-5.19h-20.22c-3.35 0-4.06 1.27-14.66 10.1-9.26 2.9-9.09 2.75-9.88 3.2-2.29 1.25-3.63 3.45-3.63 6.7v8a1 1 0 0 0 1 1h3.09a6 6 0 0 0 11.82 0h27.18a6 6 0 0 0 11.82 0h2.09a1 1 0 0 0 1-1v-2.74h1a5 5 0 0 0 5-5v-28.26a9 9 0 0 0 -9-9zm-45 2a2 2 0 0 1 -2 2h-2v-6h2a2 2 0 0 1 2 2zm24 11a12 12 0 1 1 12-12 12 12 0 0 1 -12 12zm22 24h-1a1 1 0 0 1 -1-1v-1a1 1 0 0 1 1-1h1zm-7.08-12.45a1.9 1.9 0 0 1 -1.82 2.45h-12l.8-8h11.36zm-15.03-5.55-.8 8h-16.33c11.05-9.21 7.89-8 17.13-8zm-31.89 16.87a4.92 4.92 0 0 1 1.79-3.28c.96 2.33-1.79 3.66-1.79 3.28zm8 13.13a4 4 0 1 1 4-4 4 4 0 0 1 -4 4zm39 0a4 4 0 1 1 4-4 4 4 0 0 1 -4 4zm7-5h-1.09a6 6 0 0 0 -11.82 0h-27.18a6 6 0 0 0 -11.82 0h-2.09v-6a4.46 4.46 0 0 0 3.58-6.31l8.57-2.69h33a3.91 3.91 0 0 0 3.74-5l-1.46-4.86a5 5 0 0 1 3.84 3.6l2.43 9.26h-.7a3 3 0 0 0 -3 3v1a3 3 0 0 0 3 3h1z"/><path d="m36.43 11.93v-6.93a1 1 0 0 0 -1.81-.58c-6.91 9.66-6.77 9.21-6.58 9.87s.34.54 3.53 1.78v6.93a1 1 0 0 0 1.81.58c6.91-9.66 6.78-9.21 6.58-9.87s-.34-.54-3.53-1.78zm-2.86 8c0-4.67.21-5.1-.64-5.43l-2.37-.92 3.87-5.41c0 4.67-.21 5.1.64 5.43l2.37.92z"/></svg>