<svg viewBox="0 0 64 64" xmlns="http://www.w3.org/2000/svg" xmlns:xlink="http://www.w3.org/1999/xlink"><linearGradient id="a" gradientUnits="userSpaceOnUse" x1="13" x2="13" y1="55" y2="42.02"><stop offset="0" stop-color="#d1a788"/><stop offset="1" stop-color="#f2d3b8"/></linearGradient><linearGradient id="b" x1="32" x2="32" xlink:href="#a" y2="41.99"/><linearGradient id="c" x1="51" x2="51" xlink:href="#a" y2="42.02"/><linearGradient id="d" gradientUnits="userSpaceOnUse" x1="51.85" x2="51.85" y1="43" y2="32"><stop offset="0" stop-color="#6ab891"/><stop offset="1" stop-color="#85cba9"/></linearGradient><linearGradient id="e" x1="51" x2="51" xlink:href="#d" y1="33.82" y2="24"/><linearGradient id="f" gradientTransform="matrix(-1 0 0 1 100.31 0)" x1="49.31" x2="49.31" xlink:href="#d" y1="25" y2="15"/><linearGradient id="g" x1="12.15" x2="12.15" xlink:href="#d"/><linearGradient id="h" x1="32" x2="32" xlink:href="#d" y2="30"/><linearGradient id="i" x1="32" x2="32" xlink:href="#d" y1="32" y2="20"/><linearGradient id="j" x1="32" x2="32" xlink:href="#d" y1="21.24" y2="9"/><linearGradient id="k" x1="13" x2="13" xlink:href="#d" y1="33.82" y2="24"/><linearGradient id="l" x1="13" x2="13" xlink:href="#d" y1="25" y2="15"/><path d="m15 42.02v12.98h-4v-12.98" fill="url(#a)"/><path d="m30 41.99h4v13.01h-4z" fill="url(#b)"/><path d="m49 42.02h4v12.98h-4z" fill="url(#c)"/><path d="m53 42.02v2.23l-2 .98-2-.98v-2.23z" fill="#cba07a"/><path d="m15 42v2.23l-2 .98-2-.98v-2.23z" fill="#cba07a"/><path d="m63 40.24h-4.24l-1.41 2.07-3.53-.69-2.82 1.38-2.82-1.38-3.53.69-1.41-2.07h-2.55l2.07-3.5c.6-.65 1.24-1.4 1.89-2.24 1.53-1.93 1.27-1.64 1.35-2.5h10l.07.79a34.51 34.51 0 0 0 6.93 7.45z" fill="url(#d)"/><path d="m57.35 34.51-.66 1-3.28-.69-2.41 1.25-2.41-1.24-3.28.69-.66-1c1.53-1.93 1.27-1.64 1.35-2.5h10l.07.79c.43.59.86 1.19 1.28 1.7z" fill="#4da67f"/><path d="m60 31.64h-3.18l-1.06 1.64-2.64-.55-2.12 1.09-2.12-1.09-2.64.55-1.06-1.64h-3.18a27.73 27.73 0 0 0 5.89-7l.11-.64h6c.32 1.89 4.33 6.39 6 7.64z" fill="url(#e)"/><path d="m55.33 26.51-.24.36-2.4-.47-1.69.83-1.69-.83-2.4.47-.24-.36c1.33-1.9 1.23-1.93 1.33-2.51h6c.1.58 0 .62 1.33 2.51z" fill="#4da67f"/><path d="m45 23.62h2.12l.7 1 1.77-.35 1.41.73 1.41-.69 1.77.35.7-1h2.12a19.08 19.08 0 0 1 -6-8.66 19.08 19.08 0 0 1 -6 8.62z" fill="url(#f)"/><path d="m18.07 32.79-.07-.79h-10l-.07.79a33 33 0 0 1 -6.93 7.45h4.24l1.41 2.07 3.53-.69 2.82 1.38 2.82-1.38 3.53.69 1.41-2.07h2.55c-4.18-7.06-1.15-1.65-5.24-7.45z" fill="url(#g)"/><path d="m19.35 34.51-.66 1-3.28-.69-2.41 1.25-2.41-1.24-3.28.69-.66-1c1.53-1.95 1.27-1.66 1.35-2.52h10l.07.79c.43.61.86 1.21 1.28 1.72z" fill="#4da67f"/><path d="m34 41.99v2.24l-2 1.01-2-1.01v-2.24z" fill="#cba07a"/><path d="m46 39.69h-4.94l-1.65 2.48-4.12-.83-3.29 1.66-3.29-1.66-4.12.83-1.65-2.48h-4.94a40.58 40.58 0 0 0 7.93-8.69l.07-1h12l.07 1a40.62 40.62 0 0 0 7.93 8.69z" fill="url(#h)"/><path d="m39.32 32.69-.58.88-3.87-.78-2.87 1.45-2.87-1.45-3.87.78-.58-.88c.42-.54.83-1.11 1.25-1.72l.07-.97h12l.07 1c.42.58.83 1.15 1.25 1.69z" fill="#4da67f"/><path d="m43 29.38h-3.88l-1.3 2-3.23-.65-2.59 1.27-2.59-1.31-3.23.65-1.3-2h-3.88c3.77-2.78 7-8.17 8-9.38h6c1.18 1.42 4.12 6.56 8 9.42z" fill="url(#i)"/><path d="m36.92 22.69-.24.36-2.68-.55-2 1-1.95-1-2.73.55-.24-.36a20.13 20.13 0 0 1 1.92-2.69h6a21.2 21.2 0 0 1 1.92 2.69z" fill="#4da67f"/><path d="m39.09 19.55h-2.5l-.84 1.27-2.08-.42-1.67.84-1.67-.84-2.08.42-.84-1.27h-2.5a23.18 23.18 0 0 0 7.09-10.55 23.18 23.18 0 0 0 7.09 10.55z" fill="url(#j)"/><path d="m16.11 24.65-.11-.65h-6l-.11.65a26.32 26.32 0 0 1 -5.89 7h3.18l1.06 1.64 2.64-.55 2.12 1.08 2.12-1.09 2.64.55 1.06-1.64h3.18a26.32 26.32 0 0 1 -5.89-6.99z" fill="url(#k)"/><path d="m17.33 26.51-.24.36-2.4-.47-1.69.83-1.69-.83-2.4.47-.24-.36c1.33-1.9 1.23-1.93 1.33-2.51h6c.1.58 0 .62 1.33 2.51z" fill="#4da67f"/><path d="m19 23.62h-2.12l-.7 1-1.77-.35-1.41.73-1.41-.69-1.77.35-.7-1h-2.12a19.08 19.08 0 0 0 6-8.66 19.08 19.08 0 0 0 6 8.62z" fill="url(#l)"/><path d="m57.28 32.76.08-.12c2.45 0 3.28.23 3.59-.68.46-1.4-1.76-1.2-5.61-7.23.1-.15-.16-.11 1.66-.11a1 1 0 0 0 .58-1.81 18.34 18.34 0 0 1 -5.64-8.15 1 1 0 0 0 -1.88 0 18.34 18.34 0 0 1 -5.64 8.15 1 1 0 0 0 .58 1.81c1.83 0 1.56 0 1.66.11a29.64 29.64 0 0 1 -3 3.93 32.86 32.86 0 0 1 -6.76-7.79l.22-.32c1.62 0 2.6.23 2.91-.68a1 1 0 0 0 -.36-1.12 22.55 22.55 0 0 1 -6.73-10.08 1 1 0 0 0 -1.88 0 22.55 22.55 0 0 1 -6.74 10.08 1 1 0 0 0 -.32 1.11c.28.84.89.69 2.92.69l.21.32a34 34 0 0 1 -6.76 7.79 29.64 29.64 0 0 1 -3-3.93c.1-.15-.16-.11 1.66-.11a1 1 0 0 0 .58-1.81 18.34 18.34 0 0 1 -5.64-8.15 1 1 0 0 0 -1.88 0 18.34 18.34 0 0 1 -5.64 8.15 1 1 0 0 0 .55 1.81c1.83 0 1.56 0 1.66.11-3.87 6.06-6.08 5.82-5.61 7.27.29.86.9.68 3.59.68l.08.12a32.69 32.69 0 0 1 -6.3 6.67 1 1 0 0 0 .58 1.77h3.71c1.77 2.6.91 2.29 5.29 1.43v11.33h-9a1 1 0 0 0 0 2h61a1 1 0 0 0 0-2h-8v-11.33c4.46.88 3.51 1.18 5.29-1.43 3.73 0 4.37.21 4.66-.69.47-1.47-1.78-1.08-6.67-7.79zm-6.28-15.2a20.88 20.88 0 0 0 3.51 5.13c-.33.13-.41.31-.79.86-1.68-.33-1.23-.39-2.72.34-1.51-.74-1-.67-2.72-.34-.4-.58-.46-.72-.79-.86a20.88 20.88 0 0 0 3.51-5.13zm-2.49 8c1.18-.23.72-.29 2.05.36a1 1 0 0 0 .88 0c1.33-.65.87-.59 2.05-.36 3.52 5.64 4.84 5.1 3.33 5.1-.7 0-.9.55-1.53 1.52-2.77-.58-1.91-.69-4.29.54-2.36-1.21-1.51-1.12-4.29-.54-.68-1-.85-1.52-1.53-1.52-1.51-.02-.18.48 3.33-5.12zm-6.51 4.82c-.51.45-1.16.79-.9 1.58s.9.68 3.59.68l.07.11q-1 1.3-2 2.49a45.72 45.72 0 0 1 -3.48-4.24l.38-.57zm6 23.62h-13v-11.39c.62-.31-.11-.33 4.21.54.79.16 1-.35 2-1.91h1.48c1.77 2.6.91 2.29 5.29 1.43zm-32-11.33c4.38.86 3.5 1.19 5.29-1.43h1.48c1.05 1.57 1.23 2.07 2 1.91 4.34-.88 3.61-.85 4.21-.54v11.39h-12.98zm13.16-2.22c-.41-.21-.33-.15-4.11.61-1.85-2.79-1-2.37-4.36-2.37a45.18 45.18 0 0 0 5.5-6.36 20.68 20.68 0 0 0 3.08-.59c3.25 1.64 2.19 1.65 5.46 0a22.12 22.12 0 0 0 3.08.59 45.37 45.37 0 0 0 5.5 6.36c-3.34 0-2.51-.42-4.36 2.37-3.76-.76-3.7-.82-4.11-.61l-2.84 1.43zm2.84-28.76a25.63 25.63 0 0 0 4.54 6.86c-.62 0-.8.47-1.25 1.16-2.09-.43-1.49-.5-3.29.41-1.85-.93-1.2-.84-3.29-.41-.52-.8-.67-1.13-1.25-1.16a25.63 25.63 0 0 0 4.54-6.86zm-3.07 10 1.26-.25c2.1 1.06 1.53 1.05 3.62 0l1.26.25c4.69 7.47 6.78 6.68 4 6.68-.71 0-.89.54-1.76 1.85-3.52-.71-2.32-.89-5.36.65-3-1.53-1.83-1.36-5.36-.65-.95-1.45-1.09-1.85-1.76-1.85-2.67.01-.6.81 4.1-6.67zm-4.59 8.68.38.57a45.72 45.72 0 0 1 -3.45 4.29q-1-1.18-2-2.49l.07-.11c2.45 0 3.28.23 3.59-.68s-.41-1.14-.9-1.58zm-11.34-12.81a20.88 20.88 0 0 0 3.51 5.13c-.33.13-.41.31-.79.86-1.68-.33-1.23-.39-2.72.34-1.51-.74-1-.67-2.72-.34-.4-.58-.46-.72-.79-.86a20.88 20.88 0 0 0 3.51-5.13zm-6.44 13.08a30.64 30.64 0 0 0 4-5.1l.94-.18c1.77.86 1.33.86 3.1 0l.94.18a30.64 30.64 0 0 0 4 5.1c-1.31 0-1.12-.07-2.15 1.52-2.77-.58-1.91-.69-4.29.54-2.39-1.23-1.52-1.12-4.29-.54-1.07-1.5-.89-1.52-2.25-1.52zm.55 10.56c-1.13-1.64-1.21-2-1.87-2-2.8 0-1.45.83 2.86-5 .25 0 .15 0 2.64-.49 2.7 1.39 1.84 1.38 4.52 0 2.39.5 2.37.53 2.66.48.63.84 1.29 1.65 2 2.43a24.72 24.72 0 0 1 -2.47 2.19 1 1 0 0 0 .55 1.88h1.24l-.35.51c-3.93-.77-2.58-.93-5.89.69-3.33-1.63-2-1.45-5.89-.69zm4.89 12.8v-10.38c1.07.53 1 .51 2 0v10.38zm19 0v-10.38c1.06.53 1 .51 2 0v10.38zm19 0v-10.38c1.07.53 1 .51 2 0v10.38zm8.76-14.76c-.67 0-.79.38-1.87 2-3.93-.77-2.58-.93-5.89.69-3.33-1.63-2-1.45-5.89-.69l-.35-.51h1.24a1 1 0 0 0 .59-1.81 24.72 24.72 0 0 1 -2.47-2.19c.67-.78 1.33-1.59 2-2.43.27.05.1.05 2.66-.48 2.7 1.39 1.84 1.38 4.52 0 2.57.54 2.39.52 2.64.49 4.26 5.74 5.63 4.93 2.82 4.93z"/></svg>