<svg viewBox="0 0 64 64" xmlns="http://www.w3.org/2000/svg" xmlns:xlink="http://www.w3.org/1999/xlink"><linearGradient id="a" gradientUnits="userSpaceOnUse" x1="31.98" x2="31.98" y1="54.02" y2="9.95"><stop offset="0" stop-color="#9dd5df"/><stop offset="1" stop-color="#c3e1f5"/></linearGradient><linearGradient id="b" gradientUnits="userSpaceOnUse" x1="32.09" x2="32.09" y1="51.78" y2="34.29"><stop offset="0" stop-color="#6ab891"/><stop offset="1" stop-color="#85cba9"/></linearGradient><linearGradient id="c" x1="21.34" x2="21.34" xlink:href="#b" y1="34.86" y2="17.06"/><linearGradient id="d" x1="47.94" x2="47.94" xlink:href="#b" y1="42.36" y2="16.71"/><linearGradient id="e" x1="33.13" x2="33.13" xlink:href="#b" y1="20.29" y2="10"/><path d="m62.69 36.38c-3.63 25.46-34.69 35.45-52.61 17.55-20.08-20.11-4.55-54.7 23.92-52.86a31 31 0 0 1 28.69 35.31z" fill="#ffd9cc"/><path d="m53.78 35.11a22 22 0 0 1 -18.05 18.57c-20.94 3.62-34.51-22-19.29-37.23 14.96-14.96 40.31-2.13 37.34 18.66z" fill="url(#a)"/><path d="m35.73 53.68a22 22 0 0 1 -25.67-23.18 22 22 0 0 0 43.94.09 22 22 0 0 1 -18.27 23.09z" fill="#77cacb"/><path d="m25.8 34.86c1.23 1 2.18-.27 4.36-.54s7.91 1.22 8.2 3.4-2.73 4.78-4.64 7.28-1.37 6.82-1.37 6.82l-2.45-1.9c-1.24-1 .27-6.69.13-7.79s-3.68-2.9-2.73-4.13-.3-2.18-1.5-3.14z" fill="url(#b)"/><path d="m30 24.36a5.89 5.89 0 0 0 -2.72 4.77c.14 1.09-3.28.42-4.23 1.64s1.5 3.14 2.73 4.09c-1.23-1-4.64-1.63-7-2.45s-2.87-5.19-3-6.28c-.11-.86-2.36-2.15-3.9-3.13a22.27 22.27 0 0 1 3.61-5.6c10.79-1 7.6.39 9.55 1.9 1.22.95-.12.15 2.07-.14s4.96 3.84 2.89 5.2z" fill="url(#c)"/><path d="m47.82 16.71a22 22 0 0 1 3.58 25.65c-1.54-1.26-2.17-6.36-2.4-8.18-.28-2.18-6.83-1.36-7.1-3.56s1.64-4.62 1.64-4.62c1-1.23 4.36-.55 6.54-.82s-2.46-1.91-6-3.68 1.92-1.39 3.74-4.79z" fill="url(#d)"/><path d="m39.45 11.3a3.25 3.25 0 0 0 .26 1.86c1.51 3.14-1.51 3.82-3.42 6.28s-4.85-.8-5.32-5.18c-.19-1.81-4.77-2.74-4.77-2.74 0-.28-.06-.51-.07-.72a22 22 0 0 1 13.32.5z" fill="url(#e)"/><path d="m31.43 9a23 23 0 0 0 -22.43 23c0 20.45 24.87 30.67 39.26 16.27 14.64-14.64 3.87-39.79-16.83-39.27zm19.85 31.3c-2.46-6.38.86-7.59-5.63-8.89-.74-.15-2.71-.55-2.76-.93-.18-1.44 1-3.3 1.43-3.9s4-.21 5.89-.44c1.06-.13 1.36-.67 1.42-1.09.27-1.8-4.35-2.92-7.15-4.5a10.22 10.22 0 0 0 3.43-2.26 21 21 0 0 1 3.37 22.03zm-12.47-26.7c1.1 2.29-1.35 2.7-3.31 5.23-.44.56-.76.47-.9.43-.9-.26-2.32-2.18-2.63-5.11-.15-1.41-1.67-2.33-3.13-2.9a20.76 20.76 0 0 1 9.58.77 4.18 4.18 0 0 0 .39 1.58zm-12.53 15.19c-1.09.22-3.07.16-4 1.37a2 2 0 0 0 -.22 2.19c-.92-.26-2.09-.6-2.89-.88-.64-.23-1.79-1.23-2.35-5.46-.14-1.12-1.45-2-3.6-3.38a20.54 20.54 0 0 1 2.84-4.28c5.79-.51 6.84-.2 6.94-.16.81.63-.09.66 1.8 2.16.74.6 1.38.45 1.71 0 1.93-1 4 2.5 2.95 3.18-.1.1-3.11 2.06-3.18 5.26zm-9.13 18.06a20.94 20.94 0 0 1 -4.75-22.37 10.75 10.75 0 0 1 2.45 1.83c.19 1.49.79 6 3.65 7.05 2.21.77 5.68 1.5 6.68 2.29 1.6 1.24 1.56 1.44 1.33 1.74-1.57 2 2.07 4.06 2.53 4.82a16.9 16.9 0 0 1 -.23 1.89c-1 6.43-.35 5.92 2.92 8.47a1 1 0 0 0 1.61-.91s-.46-4 1.17-6.09c2-2.56 5.17-5.25 4.84-8-.41-3.18-7.16-4.53-9.31-4.26s-3.12 1.25-3.63.74c-.31-.16-2.64-2.1-2.55-2.69.64-.82 4.73 0 4.43-2.38a4.93 4.93 0 0 1 2.28-3.81c3.17-2.11-.74-8.58-4.86-6.68-.72-.48-.11-.84-1.48-1.9-.49-.38-1.43-.73-6-.43a21.2 21.2 0 0 1 7.19-4.1 1 1 0 0 0 .62.42c1.95.4 3.92 1.32 4 1.86.58 5.54 4.59 8.91 7.09 5.69 1.7-2.18 5.3-3.41 3.6-7.18a20.82 20.82 0 0 1 5.85 4c-1.65 1.95-4.57 1.94-4.59 3.66 0 1.46 2.19 2.12 5.68 3.72-2 0-3.93-.06-4.86 1.14-.23.29-2.16 2.86-1.85 5.38.23 1.81 2.42 2.25 4.35 2.64.74.14 2.71.54 2.76 1 .39 3.14 1 6.47 2.18 8.16a21 21 0 0 1 -33.1 4.3zm11.11-11a8.52 8.52 0 0 1 2-.58c2.12-.26 6.92 1.29 7.08 2.53s-1.43 3-2.83 4.61c-1.81 2.07-3.07 3.3-3.24 7.25-.89-.69-1.26-.24-.5-5.31.41-2.71.53-2.87-1.41-4.61a7.82 7.82 0 0 1 -1.21-1.27 2.15 2.15 0 0 0 .11-2.58z"/><path d="m25.73 6.74a1 1 0 1 0 -.24-2 1 1 0 0 0 .24 2z"/><path d="m22.81 6.59a1 1 0 0 0 -1.81.75 1 1 0 0 0 1.81-.75z"/><path d="m18.26 9.75a1 1 0 1 0 -.5-1.86 1 1 0 0 0 .5 1.86z"/><path d="m15 12.06a1 1 0 1 0 -.64-1.77 1 1 0 0 0 .64 1.77z"/><path d="m10.1 16.18a1 1 0 0 0 -1.1 1.66 1 1 0 0 0 1.1-1.66z"/><path d="m7.08 24.58a1 1 0 0 0 -1.92-.58 1 1 0 0 0 1.92.58z"/><path d="m12 14.83c.42 0 .84-.32.74-.32a1 1 0 1 0 -.74.32z"/><path d="m6.25 28.37a1 1 0 0 0 -2-.27 1 1 0 0 0 2 .27z"/><path d="m7.13 21.43a1 1 0 0 0 .87-1.81 1 1 0 0 0 -.87 1.81z"/><path d="m29.71 6.1h.08a1 1 0 1 0 -.08 0z"/><path d="m6 32.25a1 1 0 0 0 -2 0 1 1 0 0 0 2 0z"/><path d="m55 16a1 1 0 0 0 -1.64 1.15 1 1 0 0 0 1.64-1.15z"/><path d="m57.1 19.59a1 1 0 0 0 -1.79.88 1 1 0 0 0 1.79-.88z"/><path d="m58 24.72a1 1 0 0 0 -.61-1.9 1 1 0 0 0 .61 1.9z"/><path d="m57.66 27.85a1 1 0 0 0 1.15.83 1 1 0 1 0 -1.15-.83z"/><path d="m52.32 12.74a1 1 0 0 0 -1.45 1.38 1 1 0 0 0 1.45-1.38z"/><path d="m38.71 5.83a1 1 0 0 0 -2-.43 1 1 0 0 0 2 .43z"/><path d="m34.74 5.12a1 1 0 0 0 -2-.14 1 1 0 0 0 2 .14z"/><path d="m42.54 7.12a1 1 0 0 0 -1.87-.71 1 1 0 0 0 1.87.71z"/><path d="m49.22 9.93a1 1 0 0 0 -1.22 1.58 1 1 0 0 0 1.22-1.58z"/><path d="m46.13 9a1 1 0 0 0 -1.74-1 1 1 0 0 0 1.74 1z"/><path d="m7.22 39.9a1 1 0 0 0 -1.91.61 1 1 0 0 0 1.91-.61z"/><path d="m51.21 49.53a1 1 0 0 0 1.48 1.35 1 1 0 0 0 -1.48-1.35z"/><path d="m48.38 52.2a1 1 0 1 0 1.41.14 1 1 0 0 0 -1.41-.14z"/><path d="m53.61 46.47a1 1 0 1 0 1.39-.27 1 1 0 0 0 -1.39.27z"/><path d="m41.71 56.13a1 1 0 1 0 1.3.56 1 1 0 0 0 -1.3-.56z"/><path d="m38 57.3a1 1 0 1 0 1.2.74 1 1 0 0 0 -1.2-.74z"/><path d="m45.2 54.42a1 1 0 1 0 1 1.72 1 1 0 0 0 -1-1.72z"/><path d="m59 30.71a1 1 0 0 0 0 2 1 1 0 0 0 0-2z"/><path d="m56.85 42.62a1 1 0 0 0 -.85 1.8 1 1 0 0 0 .85-1.8z"/><path d="m58.88 34.75a1 1 0 0 0 -.29 2 1 1 0 0 0 1.13-.75 0 0 0 0 0 0 0 1 1 0 0 0 -.84-1.25z"/><path d="m58.15 38.79a1 1 0 0 0 -.57 1.92 1 1 0 0 0 .57-1.92z"/><path d="m14.57 52.65a1 1 0 1 0 1.4-.17 1 1 0 0 0 -1.4.17z"/><path d="m11.69 49.82a1 1 0 1 0 1.41 0 1 1 0 0 0 -1.41 0z"/><path d="m5.49 37.27a1 1 0 0 0 -.31-2 1 1 0 0 0 .31 2z"/><path d="m9.25 46.6a1 1 0 1 0 1.4.25 1 1 0 0 0 -1.4-.25z"/><path d="m7.33 43.05a1 1 0 1 0 1.34.45 1 1 0 0 0 -1.34-.45z"/><path d="m26.43 57.4a1 1 0 0 0 -.42 2 1 1 0 0 0 .42-2z"/><path d="m30.28 58c0-.13-1 .08-1.06.93a1 1 0 1 0 1.06-.93z"/><path d="m34.17 57.91a1 1 0 0 0 .08 2 1 1 0 1 0 -.08-2z"/><path d="m19.2 54.64a1 1 0 0 0 -1 1.74 1 1 0 0 0 1-1.74z"/><path d="m22.71 56.3a1 1 0 0 0 -.71 1.86 1 1 0 0 0 .71-1.86z"/><path d="m62.42 22.07a32 32 0 0 0 -38-21.15c-24.05 5.85-32.73 36.08-15.05 53.71a32 32 0 0 0 53.05-32.56zm-.72 14.17c-3.5 24.55-33.54 34.35-50.91 17-18.93-18.95-5.31-51.24 21.21-51.24a30 30 0 0 1 29.7 34.24z"/></svg>