<svg viewBox="0 0 64 64" xmlns="http://www.w3.org/2000/svg" xmlns:xlink="http://www.w3.org/1999/xlink"><linearGradient id="a" gradientUnits="userSpaceOnUse" x1="38.5" x2="38.5" y1="63" y2="25"><stop offset="0" stop-color="#9dd5df"/><stop offset="1" stop-color="#c3e1f5"/></linearGradient><linearGradient id="b" x1="14" x2="14" xlink:href="#a" y2="24.98"/><linearGradient id="c" gradientUnits="userSpaceOnUse" x1="14" x2="14" y1="63" y2="47"><stop offset="0" stop-color="#d1a788"/><stop offset="1" stop-color="#f2d3b8"/></linearGradient><linearGradient id="d" gradientUnits="userSpaceOnUse" x1="5.5" x2="5.5" y1="63" y2="59"><stop offset="0" stop-color="#9b756d"/><stop offset="1" stop-color="#bc9388"/></linearGradient><linearGradient id="e" x1="22.5" x2="22.5" xlink:href="#d"/><linearGradient id="f" x1="45" x2="45" xlink:href="#d"/><linearGradient id="g" gradientUnits="userSpaceOnUse" x1="37" x2="37" y1="55" y2="47"><stop offset="0" stop-color="#d4d8e1"/><stop offset="1" stop-color="#f3f4f5"/></linearGradient><linearGradient id="h" gradientUnits="userSpaceOnUse" x1="32" x2="32" y1="15" y2="7"><stop offset="0" stop-color="#fbcc88"/><stop offset="1" stop-color="#ffe5c3"/></linearGradient><linearGradient id="i" x1="55" x2="55" xlink:href="#g"/><path d="m63 38v25h-49v-38h36a13 13 0 0 1 13 13z" fill="url(#a)"/><path d="m27 38v25h-26c0-27.18 0-25.41.05-26a13 13 0 0 1 26 1z" fill="url(#b)"/><path d="m10 47h8v16h-8z" fill="url(#c)"/><path d="m10 61h8v2h-8z" fill="#cba07a"/><path d="m1 59h9v4h-9z" fill="url(#d)"/><path d="m18 59h9v4h-9z" fill="url(#e)"/><path d="m27 59h36v4h-36z" fill="url(#f)"/><g fill="#8a6762"><path d="m1 61h9v2h-9z"/><path d="m18 61h9v2h-9z"/><path d="m27 61h36v2h-36z"/></g><path d="m33 47h8v8h-8z" fill="url(#g)"/><circle cx="32" cy="11" fill="url(#h)" r="4"/><path d="m32 15a4 4 0 0 1 -3.87-5 4 4 0 0 0 7.74 0 4 4 0 0 1 -3.87 5z" fill="#f6b756"/><path d="m51 47h8v8h-8z" fill="url(#i)"/><path d="m33 47h8v2h-8z" fill="#dfe3ea"/><path d="m51 47h8v2h-8z" fill="#dfe3ea"/><path d="m26 59h2v4h-2z" fill="#8a6762"/><path d="m50 24h-36a14.06 14.06 0 0 0 -14 14v25a1 1 0 0 0 1 1h62a1 1 0 0 0 1-1v-25a14 14 0 0 0 -14-14zm-31 34v-11a1 1 0 0 0 -1-1h-8a1 1 0 0 0 -1 1v11h-2v-19h14v19zm-17 0v-19h3v19zm5-29.73a11.92 11.92 0 0 1 14 0v8.73h-14zm19 8.73h-3v-6.91a12 12 0 0 1 3 6.91zm-3 2h3v19h-3zm5 0h16v19h-16zm18 0h16v19h-16zm4-13a12 12 0 0 1 12 11h-16a14 14 0 0 0 -6.78-11zm-18 0a12 12 0 0 1 12 11h-16a14.08 14.08 0 0 0 -6.78-11zm-27 4.09v6.91h-2.95a12 12 0 0 1 2.95-6.91zm-3 31.91v-2h7v2zm9-14h6v14h-6zm8 14v-2h7v2zm9-2h16v2h-16zm34 2h-16v-2h16z"/><path d="m40 46h-8a1 1 0 0 0 -1 1v8a1 1 0 0 0 1 1h8a1 1 0 0 0 1-1v-8a1 1 0 0 0 -1-1zm-1 8h-6v-6h6z"/><path d="m32 15a5 5 0 1 0 -5-5 5 5 0 0 0 5 5zm0-8a3 3 0 1 1 -3 3 3 3 0 0 1 3-3z"/><path d="m33 3v-2a1 1 0 0 0 -2 0v2a1 1 0 0 0 2 0z"/><path d="m31 17v2a1 1 0 0 0 2 0v-2a1 1 0 0 0 -2 0z"/><path d="m39 11h2a1 1 0 0 0 0-2h-2a1 1 0 0 0 0 2z"/><path d="m23 11h2a1 1 0 0 0 0-2h-2a1 1 0 0 0 0 2z"/><path d="m37 6.05c.6 0 .83-.41 2.12-1.71a1 1 0 0 0 -1.41-1.41l-1.47 1.41a1 1 0 0 0 .76 1.71z"/><path d="m26.34 14.24-1.41 1.42a1 1 0 0 0 1.41 1.41l1.42-1.41a1 1 0 0 0 -1.42-1.42z"/><path d="m36.24 15.66 1.42 1.41a1 1 0 0 0 1.41-1.41l-1.41-1.42a1 1 0 0 0 -1.42 1.42z"/><path d="m26.34 5.76a1 1 0 0 0 1.42-1.42l-1.42-1.41a1 1 0 0 0 -1.41 1.41z"/><path d="m58 46h-8a1 1 0 0 0 -1 1v8a1 1 0 0 0 1 1h8a1 1 0 0 0 1-1v-8a1 1 0 0 0 -1-1zm-1 8h-6v-6h6z"/></svg>