<svg viewBox="0 0 64 64" xmlns="http://www.w3.org/2000/svg" xmlns:xlink="http://www.w3.org/1999/xlink"><linearGradient id="a" gradientUnits="userSpaceOnUse" x1="21" x2="21" y1="63" y2="47"><stop offset="0" stop-color="#8cdd79"/><stop offset="1" stop-color="#d4e6b6"/></linearGradient><linearGradient id="b" x1="43" x2="43" xlink:href="#a"/><linearGradient id="c" gradientUnits="userSpaceOnUse" x1="32" x2="32" y1="37.55" y2="9"><stop offset="0" stop-color="#fbcc88"/><stop offset="1" stop-color="#ffe5c3"/></linearGradient><linearGradient id="d" gradientUnits="userSpaceOnUse" x1="32" x2="32" y1="45" y2="37.55"><stop offset="0" stop-color="#949aaf"/><stop offset="1" stop-color="#c6ccda"/></linearGradient><path d="m32 61v2h-8a14 14 0 0 1 -14-14v-2h8a14 14 0 0 1 14 14z" fill="url(#a)"/><path d="m54 47v2a14 14 0 0 1 -14 14h-8c0-2.48-.11-4.44 1-7.19a14 14 0 0 1 13-8.81z" fill="url(#b)"/><path d="m32 63h-8a14 14 0 0 1 -14-14c0-2.14-.06-2 0-2a14 14 0 0 0 14 13h8z" fill="#7ece67"/><path d="m54 49a14 14 0 0 1 -14 14h-8c0-1.94 0-2.42 0-3h8a14 14 0 0 0 14-13c.06 0 0-.14 0 2z" fill="#7ece67"/><path d="m40.85 31.6a8.14 8.14 0 0 0 -2.64 5.95h-12.42a8.12 8.12 0 0 0 -2.63-5.94c-8.52-7.83-3.16-22.01 8.14-22.61 12.25-.63 18.4 14.4 9.55 22.6z" fill="url(#c)"/><path d="m37 24-3.57-1.39v-7.61l-6.43 9 3.57 1.39v7.61z" fill="#fff"/><path d="m25.79 37.55h12.42a0 0 0 0 1 0 0v5a2.48 2.48 0 0 1 -2.49 2.45h-7.44a2.48 2.48 0 0 1 -2.48-2.48v-5a0 0 0 0 1 -.01.03z" fill="url(#d)"/><path d="m38.21 40.52v2a2.48 2.48 0 0 1 -2.49 2.48h-7.44a2.48 2.48 0 0 1 -2.49-2.48v-2a2.48 2.48 0 0 0 2.49 2.48h7.44a2.48 2.48 0 0 0 2.49-2.48z" fill="#8288a1"/><path d="m38.64 35a7.8 7.8 0 0 0 -.43 2.55h-12.42a7.84 7.84 0 0 0 -.42-2.55z" fill="#f6b756"/><path d="m54 46h-8a15 15 0 0 0 -13 7.55v-7.55h2.72a3.49 3.49 0 0 0 3.49-3.48c0-4.4-.58-7.5 2.32-10.19 9.53-8.82 2.91-25-10.28-24.31-12.25.64-17.9 15.89-8.77 24.33 2.84 2.62 2.31 5.34 2.31 10.17a3.49 3.49 0 0 0 3.49 3.48h2.72v7.55a15 15 0 0 0 -13-7.55h-8a1 1 0 0 0 -1 1v2a15 15 0 0 0 15 15h16a15 15 0 0 0 15-15v-2a1 1 0 0 0 -1-1zm-30.16-15.12c-7.84-7.27-2.84-20.32 7.51-20.88 11.25-.59 17 13.25 8.82 20.85a9.24 9.24 0 0 0 -2.91 5.68h-10.52a9.23 9.23 0 0 0 -2.9-5.65zm2.95 11.64v-4h10.42v4a1.49 1.49 0 0 1 -1.49 1.48h-7.44a1.49 1.49 0 0 1 -1.49-1.48zm-15.79 6.48v-1h7a13 13 0 0 1 12.94 11.74c-2.42-3.12-6.87-7.74-11.94-7.74a1 1 0 0 0 0 2c4.77 0 9.19 5.31 11.12 8h-6.12a13 13 0 0 1 -13-13zm42 0a13 13 0 0 1 -13 13h-6.12c1.93-2.69 6.35-8 11.12-8a1 1 0 0 0 0-2c-5.07 0-9.52 4.62-11.94 7.74a13 13 0 0 1 12.94-11.74h7z"/><path d="m29.57 33a1 1 0 0 0 1 1c.73 0 .37.2 7.24-9.42a1 1 0 0 0 -.45-1.51l-2.93-1.14v-6.93a1 1 0 0 0 -1.81-.58c-6.91 9.66-6.78 9.21-6.58 9.87s.34.54 3.53 1.78zm-1-9.47 3.87-5.41v4.5c0 .86.58.91 3 1.85l-3.87 5.41v-4.5c0-.86-.57-.91-3.01-1.85z"/><path d="m49 22h4a1 1 0 0 0 0-2h-4a1 1 0 0 0 0 2z"/><path d="m11 22h4a1 1 0 0 0 0-2h-4a1 1 0 0 0 0 2z"/><path d="m44.73 32.31a1 1 0 0 0 -1.42 1.42c3.07 3.07 3 3.12 3.54 3.12a1 1 0 0 0 .71-1.71z"/><path d="m19.27 9.69a1 1 0 0 0 1.42-1.42l-2.83-2.83a1 1 0 0 0 -1.42 1.42z"/><path d="m44 10c.55 0 .46-.05 3.54-3.12a1 1 0 0 0 -1.42-1.42l-2.81 2.81a1 1 0 0 0 .69 1.73z"/><path d="m17.15 36.85c.55 0 .46-.05 3.54-3.12a1 1 0 0 0 -1.42-1.42l-2.83 2.83a1 1 0 0 0 .71 1.71z"/><path d="m33 5v-4a1 1 0 0 0 -2 0v4a1 1 0 0 0 2 0z"/></svg>