<svg viewBox="0 0 64 64" xmlns="http://www.w3.org/2000/svg" xmlns:xlink="http://www.w3.org/1999/xlink"><linearGradient id="a" gradientUnits="userSpaceOnUse" x1="32" x2="32" y1="63" y2="1"><stop offset="0" stop-color="#8cdd79"/><stop offset="1" stop-color="#d4e6b6"/></linearGradient><linearGradient id="b" gradientUnits="userSpaceOnUse" x1="32" x2="32" y1="54" y2="10"><stop offset="0" stop-color="#d4d8e1"/><stop offset="1" stop-color="#f3f4f5"/></linearGradient><linearGradient id="c" x1="24" x2="24" xlink:href="#a" y1="45.63" y2="33"/><linearGradient id="d" gradientTransform="matrix(-1 0 0 -1 80 83.37)" x1="40" x2="40" xlink:href="#a" y1="48" y2="35.37"/><path d="m63 32c0 2.68-2.53 5-3.19 7.45s.33 5.82-1 8-4.65 3-6.5 4.85-2.58 5.19-4.85 6.5-5.49.28-8 1-4.78 3.2-7.46 3.2-5-2.53-7.45-3.19-5.82.33-8-1-3-4.65-4.85-6.5-5.19-2.58-6.5-4.85-.28-5.49-1-8-3.2-4.78-3.2-7.46 2.53-5 3.19-7.45-.33-5.82 1-8 4.65-3 6.5-4.85 2.58-5.19 4.85-6.5 5.49-.28 8.05-1 4.73-3.2 7.41-3.2 5 2.53 7.45 3.19 5.82-.33 8 1 3 4.65 4.85 6.5 5.19 2.58 6.5 4.85.28 5.49 1 8.05 3.2 4.73 3.2 7.41z" fill="url(#a)"/><circle cx="32" cy="32" fill="#7ece67" r="24"/><circle cx="32" cy="32" fill="url(#b)" r="22"/><path d="m53.94 33.48a22 22 0 0 0 -43.88 0 22 22 0 1 1 43.88 0z" fill="#dfe3ea"/><path d="m16 33h5.39a10.61 10.61 0 0 1 10.61 10.61v2a0 0 0 0 1 0 0h-5.39a10.61 10.61 0 0 1 -10.61-10.61v-2a0 0 0 0 1 0 0z" fill="url(#c)"/><path d="m42.61 35.37h5.39a0 0 0 0 1 0 0v2a10.61 10.61 0 0 1 -10.61 10.63h-5.39a0 0 0 0 1 0 0v-2a10.61 10.61 0 0 1 10.61-10.63z" fill="url(#d)" transform="matrix(-1 0 0 -1 80 83.37)"/><path d="m32 43.63v2h-5.39a10.61 10.61 0 0 1 -10.61-10.63v-2a10.61 10.61 0 0 0 10.61 10.63z" fill="#7ece67"/><path d="m48 35.39v2a10.61 10.61 0 0 1 -10.61 10.61h-5.39v-2h5.39a10.61 10.61 0 0 0 10.61-10.61z" fill="#7ece67"/><path d="m62.15 27.07c-1.49-2.49-1.64-2.94-1.6-6 .06-4.67-.62-6-4.85-8.35-2.61-1.46-3-1.8-4.41-4.41-2.29-4.22-3.66-4.93-8.35-4.86-3.06 0-3.52-.11-6-1.6-4.15-2.48-5.73-2.47-9.86 0-2.49 1.49-2.95 1.64-6 1.6-4.7-.07-6 .65-8.35 4.85-1.46 2.61-1.79 2.95-4.41 4.41-4.23 2.36-4.91 3.68-4.85 8.35 0 3.05-.1 3.5-1.6 6-2.46 4.11-2.5 5.69 0 9.86 1.49 2.49 1.64 2.94 1.6 6-.06 4.67.62 6 4.85 8.35 2.61 1.46 2.95 1.8 4.41 4.41 2.32 4.17 3.62 4.92 8.35 4.85 3.07 0 3.52.11 6 1.6 4.15 2.48 5.73 2.47 9.86 0 2.49-1.49 2.94-1.64 6-1.6 4.73.07 6-.68 8.35-4.85 1.46-2.61 1.79-3 4.41-4.41 4.23-2.36 4.91-3.68 4.85-8.35 0-3 .1-3.5 1.6-6 2.46-4.1 2.5-5.68 0-9.85zm-1.72 8.83c-1.68 2.82-1.92 3.62-1.88 7.06.06 4-.29 4.62-3.82 6.58-2.94 1.64-3.55 2.25-5.19 5.19-2 3.52-2.61 3.88-6.58 3.82-3.44 0-4.26.2-7.06 1.88-3.49 2.1-4.31 2.09-7.8 0-2.43-1.45-3.4-1.88-6.23-1.88-1.65 0-3.6.17-4.87-.56-1.94-1.12-2.71-4.4-4.65-6.34s-5.21-2.65-6.35-4.65-.15-5.13-.87-7.81-3.13-4.89-3.13-7.19 2.46-4.59 3.15-7.2-.24-5.9.85-7.8 4.39-2.71 6.33-4.65 2.73-5.21 4.67-6.35 5.13-.14 7.8-.86c2.44-.64 4.98-3.14 7.2-3.14s4.59 2.46 7.19 3.15 5.91-.24 7.81.85 2.71 4.4 4.65 6.34 5.21 2.71 6.35 4.66.15 5.13.87 7.81 3.13 4.89 3.13 7.19a8.19 8.19 0 0 1 -1.57 3.9z"/><path d="m32 9a23 23 0 1 0 23 23 23 23 0 0 0 -23-23zm9.45 30.11c-3.43 0-6.46 3-8.33 5.44a9.61 9.61 0 0 1 9.49-8.18h4.39v1a9.62 9.62 0 0 1 -9.61 9.63h-3.59c1.65-2.42 4.68-5.89 7.65-5.89a1 1 0 0 0 0-2zm-18.9-.37c3 0 6 3.47 7.65 5.89h-3.59a9.62 9.62 0 0 1 -9.61-9.63v-1h4.39a9.61 9.61 0 0 1 9.49 8.18c-1.88-2.42-4.88-5.44-8.33-5.44a1 1 0 0 0 0 2zm10.45 14.26v-4h4.39a11.63 11.63 0 0 0 11.61-11.61v-2a1 1 0 0 0 -1-1h-5.39a11.59 11.59 0 0 0 -10.1 5.91 11.64 11.64 0 0 0 -11.12-8.3h-5.39a1 1 0 0 0 -1 1v2a11.63 11.63 0 0 0 11.61 11.63h4.39v6.37a21 21 0 1 1 2 0z"/><path d="m26 20a1 1 0 0 0 0-2h-6a1 1 0 0 0 -1 1v10a1 1 0 0 0 1 1h6a1 1 0 0 0 0-2h-5v-3h3.5a1 1 0 0 0 0-2h-3.5v-3z"/><path d="m42 18a4 4 0 0 0 -4 4v4a4 4 0 0 0 8 0v-4a4 4 0 0 0 -4-4zm2 8a2 2 0 0 1 -4 0v-4a2 2 0 0 1 4 0z"/><path d="m33.82 21.25a1 1 0 0 0 1.3.55c1.62-.65-.26-3.8-3.14-3.8a4 4 0 0 0 -4 4v4a4 4 0 0 0 7.68 1.48 1 1 0 0 0 -1.86-.75 2 2 0 0 1 -3.8-.73v-4a2 2 0 0 1 3.82-.75z"/></svg>