<svg viewBox="0 0 64 64" xmlns="http://www.w3.org/2000/svg" xmlns:xlink="http://www.w3.org/1999/xlink"><linearGradient id="a" gradientUnits="userSpaceOnUse" x1="39.5" x2="39.5" y1="23" y2="1"><stop offset="0" stop-color="#8cdd79"/><stop offset="1" stop-color="#d4e6b6"/></linearGradient><linearGradient id="b" x1="11.3" x2="11.3" xlink:href="#a" y1="55.81" y2="21.12"/><linearGradient id="c" x1="47.75" x2="47.75" xlink:href="#a" y1="63" y2="36.67"/><path d="m23 12s2-11 15-11c10 0 18 11 18 22-5-3-6-3-17-3a19.27 19.27 0 0 1 -16-8z" fill="url(#a)"/><path d="m56 23c-5-3-6-3-17-3a19.27 19.27 0 0 1 -16-8 10 10 0 0 1 .41-1.43 19.43 19.43 0 0 0 15.59 7.43c10.93 0 12 0 16.91 2.94 0 .27.09.8.09 2.06z" fill="#7ece67"/><path d="m19.91 55.2s-10.53 3.8-17.03-7.49c-5-8.66.53-21.09 10.05-26.59-.1 5.83.4 6.7 5.9 16.22a19.29 19.29 0 0 1 1.08 17.86z" fill="url(#b)"/><path d="m19.91 55.2c-8.91 3.18-19.52-4.89-18.91-15.78.4 6.22 5.11 12.25 11 13.88a7.57 7.57 0 0 0 9.56-7 18.39 18.39 0 0 1 -1.65 8.9z" fill="#7ece67"/><path d="m58.53 36.67s8.53 7.23 2 18.49c-5 8.66-18.53 10.08-28.06 4.58 5.1-2.83 5.6-3.69 11.1-13.22a19.28 19.28 0 0 1 14.96-9.85z" fill="url(#c)"/><path d="m60.56 55.16c-5 8.66-18.53 10.08-28.06 4.58.68-.38 1.28-.72 1.82-1.06 9.36 4.36 21.55 2.6 26.24-5.52a17.21 17.21 0 0 0 2.44-7.31 16 16 0 0 1 -2.44 9.31z" fill="#7ece67"/><path d="m15.75 22c1.85.47.36-2.54 7.08-8.5a20.37 20.37 0 0 0 16.17 7.5c10.84 0 11.72 0 16.49 2.86a1 1 0 0 0 1.51-.86c0-10.88-7.8-23-19-23-12.31 0-15.39 9.47-15.9 11.46-5.94 5-7 9.12-7.07 9.3a1 1 0 0 0 .72 1.24zm22.25-20c9.15 0 16.13 9.81 16.92 19.22-4.02-2.22-6.02-2.22-15.92-2.22a18.34 18.34 0 0 1 -14.61-6.78c5.74-4 15.61-3 23 2.58a1 1 0 0 0 1.2-1.6c-7.4-5.56-17.18-6.9-23.71-3.61 1.42-3.02 4.92-7.59 13.12-7.59z"/><path d="m32.16 56.5c-.51-1.84-2.36 1-10.9-1.89a20.37 20.37 0 0 0 -1.56-17.77c-5.42-9.38-5.86-10.15-5.77-15.7a1 1 0 0 0 -1.5-.88c-9.43 5.44-16.01 18.25-10.43 27.95 4.47 7.73 11.75 9.75 17.88 8 3.41 1.22 8.61 2.33 11.59 1.47a1 1 0 0 0 .69-1.18zm-28.41-9.29c-4.58-7.92.43-18.87 8.18-24.27.09 4.6 1.09 6.33 6 14.9a18.38 18.38 0 0 1 1.43 16c-6.34-3-10.38-12-9.27-21.22a1 1 0 0 0 -2-.24c-1.09 9.26 2.69 18.41 8.81 22.41-3.32.29-9.03-.44-13.15-7.58z"/><path d="m59.45 36.16c-1.4-7.67-4.39-10.65-4.52-10.78a1 1 0 0 0 -1.41 0c-1.33 1.36 2 1.57 3.82 10.38a20.35 20.35 0 0 0 -14.6 10.24c-5.42 9.41-5.86 10.17-10.74 12.87a1 1 0 0 0 0 1.74 25.89 25.89 0 0 0 16.37 3.14c15.46-2.24 19.95-18.9 11.08-27.59zm.24 18.5c-4.62 8-16.63 9.08-25.11 5 3.94-2.37 4.94-4.1 9.89-12.68a18.33 18.33 0 0 1 13.18-9.26c.6 7-5.24 15-13.74 18.64a1 1 0 0 0 .78 1.84c8.53-3.65 14.58-11.46 15-18.76 1.9 2.77 4.12 8.08 0 15.22z"/></svg>