<svg viewBox="0 0 64 64" xmlns="http://www.w3.org/2000/svg" xmlns:xlink="http://www.w3.org/1999/xlink"><linearGradient id="a" gradientUnits="userSpaceOnUse" x1="31.99" x2="31.99" y1="58" y2="5.88"><stop offset="0" stop-color="#da5466"/><stop offset="1" stop-color="#f4929c"/></linearGradient><linearGradient id="b" gradientUnits="userSpaceOnUse" x1="21" x2="21" y1="36" y2="20"><stop offset="0" stop-color="#8cdd79"/><stop offset="1" stop-color="#d4e6b6"/></linearGradient><linearGradient id="c" gradientTransform="matrix(-1 0 0 -1 86 62)" x1="43" x2="43" xlink:href="#b" y1="39" y2="23"/><path d="m63 24c0 8.83-5.48 16.24-11.83 21.86-2.94 3-11.59 9-19.17 12.14-6.8-2.83-16-8.94-19.17-12.14-29.1-25.75 2.45-51.77 19.17-34.29 11.15-11.66 31-3.82 31 12.43z" fill="url(#a)"/><path d="m63 24c0 8.83-5.48 16.24-11.83 21.86-2.94 3-11.59 9-19.17 12.14-6.8-2.83-16-8.94-19.17-12.14-29.1-25.75 2.45-51.77 19.17-34.29 11.15-11.66 31-3.82 31 12.43z" fill="url(#a)"/><g fill="#cf4055"><path d="m1 24.64c0 .1.09 1.24 0 .62 0-.21 0-.42 0-.62z"/><path d="m63 25.26c0 .55 0-.35 0-.62z"/><path d="m62.93 25.44c-.99 14.48-17.61 27.01-30.93 32.56l-1-.44c0-.17-28.57-12.19-29.93-32.12 1 12 12.9 25 29.93 25.55 17.81.53 30.87-12.94 31.93-25.55z"/></g><path d="m10 20h8a14 14 0 0 1 14 14v2a0 0 0 0 1 0 0h-8a14 14 0 0 1 -14-14v-2a0 0 0 0 1 0 0z" fill="url(#b)"/><path d="m46 23h8a0 0 0 0 1 0 0v2a14 14 0 0 1 -14 14h-8a0 0 0 0 1 0 0v-2a14 14 0 0 1 14-14z" fill="url(#c)" transform="matrix(-1 0 0 -1 86 62)"/><path d="m32 36h-8a14 14 0 0 1 -14-14c0-2.14-.06-2 0-2a14 14 0 0 0 14 13h8z" fill="#7ece67"/><path d="m54 25a14 14 0 0 1 -14 14h-8c0-1.94 0-2.42 0-3h8a14 14 0 0 0 14-13c.06 0 0-.14 0 2z" fill="#7ece67"/><path d="m64 24c0-16.73-20-25.13-32-13.84-12-11.29-32-2.88-32 13.84 0 21.4 30.27 34.36 31.61 34.92a1 1 0 0 0 .78 0c1.34-.56 31.61-13.52 31.61-34.92zm-19 4c-5.07 0-9.52 4.62-11.94 7.74a13 13 0 0 1 12.94-11.74h7v1a13 13 0 0 1 -13 13h-6.12c1.93-2.69 6.35-8 11.12-8a1 1 0 0 0 0-2zm-26-1c4.77 0 9.19 5.31 11.12 8h-6.12a13 13 0 0 1 -13-13v-1h7a13 13 0 0 1 12.94 11.74c-2.42-3.12-6.87-7.74-11.94-7.74a1 1 0 0 0 0 2zm14 29.45v-16.45h7a15 15 0 0 0 15-15v-2a1 1 0 0 0 -1-1h-8a15 15 0 0 0 -13.45 8.41 15 15 0 0 0 -14.55-11.41h-8a1 1 0 0 0 -1 1v2a15 15 0 0 0 15 15h7v19.45c-5.94-2.82-29-14.86-29-32.45 0-15.35 18.75-22.75 29.28-11.74a1 1 0 0 0 1.44 0c10.53-11 29.28-3.63 29.28 11.74 0 17.59-23.06 29.63-29 32.45z"/></svg>