<svg viewBox="0 0 64 64" xmlns="http://www.w3.org/2000/svg" xmlns:xlink="http://www.w3.org/1999/xlink"><linearGradient id="a" gradientUnits="userSpaceOnUse" x1="32" x2="32" y1="63" y2="17"><stop offset="0" stop-color="#deb895"/><stop offset="1" stop-color="#f2d3b8"/></linearGradient><linearGradient id="b" xlink:href="#a" y1="17" y2="1"/><linearGradient id="c" gradientUnits="userSpaceOnUse" x1="32" x2="32" y1="17" y2="1"><stop offset="0" stop-color="#fbcc88"/><stop offset="1" stop-color="#ffe5c3"/></linearGradient><linearGradient id="d" xlink:href="#c" y1="25" y2="17"/><path d="m3 17h58v46h-58z" fill="url(#a)"/><path d="m3 61h58v2h-58z" fill="#cba07a"/><path d="m61 17h-58l12-16h34z" fill="url(#b)"/><path d="m38 17h-12l2.48-16h7.04z" fill="url(#c)"/><g fill="url(#d)"><path d="m38 17v8l-2.99-2-3.01 2-2.99-2-3.01 2v-8z"/><path d="m38 17v8l-2.99-2-3.01 2-2.99-2-3.01 2v-8z"/><path d="m38 17v8l-2.99-2-3.01 2-2.99-2-3.01 2v-8z"/></g><path d="m38 23v2l-2.99-2-3.01 2-2.99-2-3.01 2v-2l3.01-2 2.99 2 3.01-2z" fill="#f6b756"/><path d="m62 17c0-.49.72.64-12.19-16.57-.45-.6 2-.4-34.8-.4-.72 0 .26-1-12.8 16.4-.3.36-.21-2.43-.21 46.57a1 1 0 0 0 1 1h58a1 1 0 0 0 1-1c0-58.78.07-43.42 0-46zm-3-1h-20.14l-2.18-14h11.82zm-32 2h10v5.13c-2.39-1.6-1.6-1.59-5 .67-3.38-2.27-2.58-2.27-5-.67zm7.66-16 2.17 14h-9.66l2.17-14zm-19.16 0h11.82l-2.18 14h-20.14zm44.5 60h-56v-44h21v7a1 1 0 0 0 1.55.83l2.45-1.63c3.55 2.38 2.44 2.37 6 0 2.62 1.8 2.59 1.8 3 1.8a1 1 0 0 0 1-1v-7h21z"/><path d="m37.8 40.6a1 1 0 0 0 -.76.1c-.47.27-.37.26-1.48 4.39a1 1 0 0 0 1 1.26c.36 0 .41-.08 2-1l2 3.39a1 1 0 0 1 -.85 1.49h-3.52a1 1 0 0 0 0 2c3.13 0 5 .33 6.09-1.57a3 3 0 0 0 0-3l-2-3.38c1.66-1 2.13-1.08 2-1.88s-.74-.8-4.48-1.8z"/><path d="m32.7 50.55c-2.88-2.88-3.05-3.32-3.85-3s-.62.83-.62 2.69c-4.11 0-4.36.17-4.75-.49s-.09-.85 1.77-4.11a1 1 0 0 0 -1.74-1c-1.57 2.77-2.86 4.2-1.75 6.1a3 3 0 0 0 2.59 1.49h3.88c0 1.92-.12 2.4.62 2.7a1 1 0 0 0 1.09-.22 37.8 37.8 0 0 0 2.8-2.81 1 1 0 0 0 -.04-1.35z"/><path d="m36.33 37.46c-1.5-2.6-2.16-4.63-4.52-4.49-2.1.13-2.61 1.85-4.33 4.83-1.67-1-2-1.31-2.65-.81s-.34 1.09.66 4.83a1 1 0 0 0 1 .74 34.64 34.64 0 0 0 4-1 1 1 0 0 0 .24-1.84l-1.53-.88 1.92-3.34a1 1 0 0 1 1.74 0l1.73 3a1 1 0 0 0 1.74-1.04z"/></svg>