<svg viewBox="0 0 64 64" xmlns="http://www.w3.org/2000/svg" xmlns:xlink="http://www.w3.org/1999/xlink"><linearGradient id="a" gradientUnits="userSpaceOnUse" x1="32" x2="32" y1="63" y2="17"><stop offset="0" stop-color="#d1a788"/><stop offset="1" stop-color="#f2d3b8"/></linearGradient><linearGradient id="b" x1="22" x2="22" xlink:href="#a" y1="17" y2="1"/><linearGradient id="c" x1="42" x2="42" xlink:href="#a" y1="17" y2="1"/><linearGradient id="d" gradientUnits="userSpaceOnUse" x1="32" x2="32" y1="7" y2="1"><stop offset="0" stop-color="#9b756d"/><stop offset="1" stop-color="#bc9388"/></linearGradient><path d="m11 17h42v46h-42z" fill="url(#a)"/><path d="m11 60h42v3h-42z" fill="#cba07a"/><path d="m11 17h42v3h-42z" fill="#e8c4a6"/><path d="m25 1v16h-6v-10z" fill="url(#b)"/><path d="m45 7v10h-6v-16z" fill="url(#c)"/><path d="m25 1h14v6h-14z" fill="url(#d)"/><path d="m19 14h6v3h-6z" fill="#cba07a"/><path d="m39 14h6v3h-6z" fill="#cba07a"/><path d="m53 16h-7v-9c0-.6.13-.29-6.29-6.71-.44-.43-.19-.29-14.71-.29-.56 0-.32-.09-6.71 6.29-.42.42-.29.07-.29 9.71h-7a1 1 0 0 0 -1 1v46a1 1 0 0 0 1 1h42a1 1 0 0 0 1-1v-46a1 1 0 0 0 -1-1zm-9 0h-4v-12.59l4 4zm-18 0v-8h12v8zm12-10h-12v-4h12zm-18 1.41 4-4v12.59h-4zm32 54.59h-40v-44h40z"/><path d="m40.3 39.33c1.66-1 2.13-1.08 2-1.88s-.78-.85-4.52-1.85a1 1 0 0 0 -.76.1c-.47.27-.37.26-1.48 4.39a1 1 0 0 0 1 1.26c.36 0 .41-.08 2-1 2.07 3.59 2.34 3.72 2 4.38s-1 .51-4.37.55a1 1 0 0 0 0 2h3.53a3 3 0 0 0 2.56-4.5z"/><path d="m32.71 45.56c-2.9-2.9-3.06-3.33-3.86-3s-.62.83-.62 2.69c-4.11 0-4.36.17-4.75-.49s-.09-.85 1.77-4.11a1 1 0 0 0 -1.74-1c-1.57 2.77-2.86 4.2-1.75 6.1a3 3 0 0 0 2.59 1.49h3.88c0 1.93-.13 2.39.62 2.7a1 1 0 0 0 1.09-.22l2.78-2.72a1 1 0 0 0 -.01-1.44z"/><path d="m36.33 32.46-1.73-3a3 3 0 0 0 -3-1.47c-1.89.23-2.28 1.58-4.14 4.81-1.67-1-2-1.31-2.65-.81s-.34 1.09.66 4.83a1 1 0 0 0 1 .74c.19 0 0 0 4.06-1a1 1 0 0 0 .24-1.84l-1.53-.88 1.92-3.34a1 1 0 0 1 1.74 0l1.73 3a1 1 0 0 0 1.7-1.04z"/></svg>