<svg viewBox="0 0 64 64" xmlns="http://www.w3.org/2000/svg" xmlns:xlink="http://www.w3.org/1999/xlink"><linearGradient id="a" gradientUnits="userSpaceOnUse" x1="22.74" x2="22.74" y1="14.47" y2="1"><stop offset="0" stop-color="#8cdd79"/><stop offset="1" stop-color="#d4e6b6"/></linearGradient><linearGradient id="b" gradientTransform="matrix(-1 0 0 -1 82.53 20.53)" x1="41.26" x2="41.26" xlink:href="#a" y1="17" y2="3.53"/><linearGradient id="c" gradientUnits="userSpaceOnUse" x1="7.25" x2="35.75" y1="57.25" y2="28.75"><stop offset="0" stop-color="#deb895"/><stop offset="1" stop-color="#f2d3b8"/></linearGradient><linearGradient id="d" x1="16.5" x2="16.5" xlink:href="#c" y1="41" y2="25"/><linearGradient id="e" x1="27.25" x2="57.75" xlink:href="#c" y1="58.25" y2="27.75"/><linearGradient id="f" x1="47.5" x2="47.5" xlink:href="#c" y1="41" y2="25"/><path d="m13.47 1h6.74a11.79 11.79 0 0 1 11.79 11.79v1.68a0 0 0 0 1 0 0h-6.74a11.79 11.79 0 0 1 -11.79-11.79v-1.68a0 0 0 0 1 0 0z" fill="url(#a)"/><path d="m43.79 3.53h6.74a0 0 0 0 1 0 0v1.68a11.79 11.79 0 0 1 -11.79 11.79h-6.74a0 0 0 0 1 0 0v-1.68a11.79 11.79 0 0 1 11.79-11.79z" fill="url(#b)" transform="matrix(-1 0 0 -1 82.53 20.53)"/><path d="m32 14.47h-6.74a11.79 11.79 0 0 1 -11.79-11.79c0-1.92 0-1.68.07-1.68a11.79 11.79 0 0 0 11.72 10.47h6.66a22.73 22.73 0 0 1 .08 3z" fill="#7ece67"/><path d="m50.53 5.21a11.79 11.79 0 0 1 -11.79 11.79h-6.74a27.15 27.15 0 0 1 .07-3h6.67a11.78 11.78 0 0 0 11.71-10.47c.11 0 .08-.25.08 1.68z" fill="#7ece67"/><path d="m32 25v38l-24-5v-32z" fill="url(#c)"/><path d="m32 25v4.48l-6.88 13.75-17.12-2.98v-14.25z" fill="#cba07a"/><path d="m8 26-7 11 23 4 8-16z" fill="url(#d)"/><path d="m56 26v32l-24 5v-38z" fill="url(#e)"/><g fill="#cba07a"><path d="m32 59.78v3.22l-24-5v-3.22z"/><path d="m56 54.78v3.22l-24 5v-3.22z"/><path d="m56 26v14.25l-17.12 2.98-6.88-13.75v-4.48z"/></g><path d="m56 26 7 11-23 4-8-16z" fill="url(#f)"/><path d="m63.84 36.46c-7.45-11.71-7-11.12-7.35-11.32s1-.08-23.49-1.1v-6.04h5.74a12.81 12.81 0 0 0 12.79-12.79v-1.68a1 1 0 0 0 -1-1h-6.74a12.79 12.79 0 0 0 -11.28 6.78 12.81 12.81 0 0 0 -12.3-9.31h-6.74a1 1 0 0 0 -1 1v1.68a12.8 12.8 0 0 0 12.79 12.79h5.74v8.53c-24.85 1-23.44.79-23.84 1.42-7.51 11.84-7.38 11.29-7.08 11.98s.27.5 6.92 1.66v18.94a1 1 0 0 0 .8 1c25.67 5.35 24 5 24.2 5s-1.54.34 24.2-5a1 1 0 0 0 .8-1v-18.94c6.66-1.16 6.62-1 6.92-1.66a1 1 0 0 0 -.08-.94zm-20.05-31.93h5.74c0 7.39-5.38 11.47-10.79 11.47h-4.85c1.69-2.3 5.25-6.42 9.06-6.42a1 1 0 0 0 1-1c0-2.15-5.69-1.21-10.82 5.12a10.81 10.81 0 0 1 10.66-9.17zm-29.32-2.53h5.74a10.81 10.81 0 0 1 10.66 9.18c-2.12-2.62-5.72-6.13-9.82-6.13a1 1 0 0 0 0 2c3.81 0 7.37 4.12 9.06 6.42h-4.85c-5.47 0-10.79-4.14-10.79-11.47zm-5.91 25 21.79-.91-6.91 13.8-20.79-3.62zm.44 12.41c16.06 2.79 14.87 2.59 15 2.59.87 0 .46.31 7-12.76v32.53l-22-4.58zm46 17.78-22 4.58v-32.53c6.5 13 6.12 12.76 7 12.76.13 0-.72.14 15-2.59zm-14.44-17.3-6.91-13.82 21.79.93 5.91 9.29z"/></svg>