<svg viewBox="0 0 64 64" xmlns="http://www.w3.org/2000/svg" xmlns:xlink="http://www.w3.org/1999/xlink"><linearGradient id="a" gradientUnits="userSpaceOnUse" x1="32" x2="32" y1="63" y2="1"><stop offset="0" stop-color="#e9a254"/><stop offset="1" stop-color="#f4bb79"/></linearGradient><linearGradient id="b" gradientUnits="userSpaceOnUse" x1="32" x2="32" y1="63" y2="1"><stop offset="0" stop-color="#6ab891"/><stop offset="1" stop-color="#85cba9"/></linearGradient><linearGradient id="c" gradientUnits="userSpaceOnUse" x1="32" x2="32" y1="57.73" y2="6.25"><stop offset="0" stop-color="#d4d8e1"/><stop offset="1" stop-color="#f3f4f5"/></linearGradient><linearGradient id="d" gradientUnits="userSpaceOnUse" x1="24" x2="24" y1="28.63" y2="16"><stop offset="0" stop-color="#8cdd79"/><stop offset="1" stop-color="#d4e6b6"/></linearGradient><linearGradient id="e" gradientTransform="matrix(-1 0 0 -1 80 49.37)" x1="40" x2="40" xlink:href="#d" y1="31" y2="18.37"/><linearGradient id="f" gradientUnits="userSpaceOnUse" x1="32" x2="32" y1="57.73" y2="43"><stop offset="0" stop-color="#9b756d"/><stop offset="1" stop-color="#bc9388"/></linearGradient><path d="m32 63a36.84 36.84 0 0 1 -26-35.2v-22.8a78.39 78.39 0 0 0 26-4 78.35 78.35 0 0 0 26 4v22.8a36.84 36.84 0 0 1 -26 35.2z" fill="url(#a)"/><path d="m32 63a36.84 36.84 0 0 1 -26-35.2v-22.8a78.39 78.39 0 0 0 26-4 78.35 78.35 0 0 0 26 4v22.8a36.84 36.84 0 0 1 -26 35.2z" fill="url(#b)"/><path d="m56.79 37.11a36.83 36.83 0 0 1 -24.79 25.89 36.83 36.83 0 0 1 -24.79-25.89 37.61 37.61 0 0 0 24.79 22.89 37.61 37.61 0 0 0 24.79-22.89z" fill="#4da67f"/><path d="m32 57.73a31.66 31.66 0 0 1 -21-29.93v-17.88a82.48 82.48 0 0 0 21-3.67 82.48 82.48 0 0 0 21 3.67v17.88a31.66 31.66 0 0 1 -21 29.93z" fill="url(#c)"/><path d="m53 9.92v3a82.48 82.48 0 0 1 -21-3.67 82.48 82.48 0 0 1 -21 3.67v-3a82.48 82.48 0 0 0 21-3.67 82.48 82.48 0 0 0 21 3.67z" fill="#dfe3ea"/><path d="m16 16h5.39a10.61 10.61 0 0 1 10.61 10.61v2a0 0 0 0 1 0 0h-5.39a10.61 10.61 0 0 1 -10.61-10.61v-2a0 0 0 0 1 0 0z" fill="url(#d)"/><path d="m42.61 18.37h5.39a0 0 0 0 1 0 0v2a10.61 10.61 0 0 1 -10.61 10.63h-5.39a0 0 0 0 1 0 0v-2a10.61 10.61 0 0 1 10.61-10.63z" fill="url(#e)" transform="matrix(-1 0 0 -1 80 49.37)"/><path d="m32 26.63v2h-5.39a10.61 10.61 0 0 1 -10.61-10.63v-2a10.61 10.61 0 0 0 10.61 10.63z" fill="#7ece67"/><path d="m48 18.39v2a10.61 10.61 0 0 1 -10.61 10.61h-5.39v-2h5.39a10.61 10.61 0 0 0 10.61-10.61z" fill="#7ece67"/><path d="m45.17 48.75a31.31 31.31 0 0 1 -13.17 9 31.3 31.3 0 0 1 -13.17-9c8.94-7.49 16.97-7.85 26.34 0z" fill="url(#f)"/><path d="m20.13 47.7c-.44.34-.87.69-1.3 1a31.44 31.44 0 0 1 -6.83-13 31.46 31.46 0 0 0 8.13 12z" fill="#c7cdd8"/><path d="m52 35.75a31.44 31.44 0 0 1 -6.83 13c-.43-.36-.86-.71-1.3-1a31.46 31.46 0 0 0 8.13-12z" fill="#c7cdd8"/><path d="m45.17 48.75a31.31 31.31 0 0 1 -13.17 9 31.3 31.3 0 0 1 -13.17-9c.43-.36.86-.71 1.3-1a33.67 33.67 0 0 0 11.87 7 33.67 33.67 0 0 0 11.87-7c.44.25.87.64 1.3 1z" fill="#8a6762"/><path d="m53 8.92c-13.72-.6-20.23-3.92-21.3-3.62a82 82 0 0 1 -20.7 3.62 1 1 0 0 0 -1 1v17.88a32.47 32.47 0 0 0 21.66 30.87 1 1 0 0 0 .68 0 32.47 32.47 0 0 0 21.66-30.87v-17.88a1 1 0 0 0 -1-1zm-21 47.75a30.86 30.86 0 0 1 -11.75-7.78c8.07-6.48 15.37-6.53 23.5 0a30.86 30.86 0 0 1 -11.75 7.78zm9.45-34.56c-3.43 0-6.46 3-8.33 5.44a9.61 9.61 0 0 1 9.49-8.18h4.39v1a9.62 9.62 0 0 1 -9.61 9.63h-3.59c1.65-2.42 4.68-5.89 7.65-5.89a1 1 0 0 0 0-2zm-18.9-.37c3 0 6 3.47 7.65 5.89h-3.59a9.62 9.62 0 0 1 -9.61-9.63v-1h4.39a9.61 9.61 0 0 1 9.49 8.18c-1.88-2.42-4.88-5.44-8.33-5.44a1 1 0 0 0 0 2zm29.45 6.06a30.71 30.71 0 0 1 -6.93 19.59c-4.07-3.29-8.07-5.08-12.07-5.33v-10.06h4.39a11.63 11.63 0 0 0 11.61-11.61v-2a1 1 0 0 0 -1-1h-5.39a11.59 11.59 0 0 0 -10.1 5.91 11.64 11.64 0 0 0 -11.12-8.3h-5.39a1 1 0 0 0 -1 1v2a11.63 11.63 0 0 0 11.61 11.63h4.39v12.43c-3.95.25-8 2-12.07 5.33a30.71 30.71 0 0 1 -6.93-19.59v-16.93a83.41 83.41 0 0 0 20-3.57 83.5 83.5 0 0 0 20 3.57z"/><path d="m58 4a77.23 77.23 0 0 1 -25.68-3.95c-1.56-.51-7.92 3.95-26.32 3.95a1 1 0 0 0 -1 1v22.8a37.65 37.65 0 0 0 26.71 36.2 1.14 1.14 0 0 0 .58 0 37.65 37.65 0 0 0 26.71-36.2v-22.8a1 1 0 0 0 -1-1zm-1 23.8a35.64 35.64 0 0 1 -25 34.2 35.64 35.64 0 0 1 -25-34.2c0-24.19-.16-21.8.35-21.8a78.79 78.79 0 0 0 24.65-3.95 78.79 78.79 0 0 0 24.65 3.95c.51 0 .35-2.39.35 21.8z"/></svg>