<svg viewBox="0 0 64 64" xmlns="http://www.w3.org/2000/svg" xmlns:xlink="http://www.w3.org/1999/xlink"><linearGradient id="a" gradientUnits="userSpaceOnUse" x1="49.17" x2="37.47" y1="26.13" y2="5.86"><stop offset="0" stop-color="#6ab891"/><stop offset="1" stop-color="#85cba9"/></linearGradient><linearGradient id="b" x1="6.12" x2="16.57" xlink:href="#a" y1="41.24" y2="23.15"/><linearGradient id="c" x1="30.28" x2="52.3" xlink:href="#a" y1="50.93" y2="50.93"/><linearGradient id="d" gradientUnits="userSpaceOnUse" x1="60.54" x2="42.42" y1="52.12" y2="20.75"><stop offset="0" stop-color="#8cdd79"/><stop offset="1" stop-color="#d4e6b6"/></linearGradient><linearGradient id="e" x1="15.84" x2="31.67" xlink:href="#d" y1="30.36" y2="2.95"/><linearGradient id="f" x1=".97" x2="38.31" xlink:href="#d" y1="47.78" y2="47.78"/><path d="m55.55 22.45-12.75 7.34-10.8-18.67c.66-1.15.46-.78.51-.88a10.21 10.21 0 0 1 13.88-3.65c4.52 7.84 3.82 6.63 9.16 15.86z" fill="url(#a)"/><path d="m22.93 26.82c-10.48 18.18-9.56 16.75-9.93 16.75a10.7 10.7 0 0 1 -10.66-10.52c3.51-6.09.46-.81 7.84-13.57z" fill="url(#b)"/><path d="m47.1 58.3h-16.82v-14.73c22.07 0 20.57-.09 20.57.21a10.69 10.69 0 0 1 -3.75 14.52z" fill="url(#c)"/><path d="m50.94 43.94a10.69 10.69 0 0 1 -3.84 14.36h-3.87l2.84-1.71a8.67 8.67 0 0 0 3.12-11.68c-.15-.28-.53-.95-.76-1.34 2.57 0 2.31-.12 2.51.37z" fill="#78c19b"/><path d="m55.55 22.45-12.75 7.34-1.48-2.56 2.35-10.62 10.4 3.27c0 .12-.21-.35 1.48 2.57z" fill="#4da67f"/><path d="m61.53 43.5c-.91 1.82 2.68-4.69-5.42 9.38a10.21 10.21 0 0 1 -9 5.42 10.7 10.7 0 0 0 3.75-14.52c0-.1.06.08-5.76-10l-3.65 2.1c1.49-6.67 1.93-8.69 3.71-16.72l16.34 5.15-3.65 2.1 3.69 6.4a10.62 10.62 0 0 1 -.01 10.69z" fill="url(#d)"/><path d="m10.18 19.48 12.75 7.34-1.48 2.57-10.39 3.29-2.36-10.64z" fill="#4da67f"/><path d="m48.38 10c-2.75-1.54-4.38-2.77-7.08-2.77a8.23 8.23 0 0 0 -7 4l-1.1 1.91-1.16-2c.66-1.15.46-.78.51-.88a10.21 10.21 0 0 1 13.84-3.67z" fill="#78c19b"/><path d="m46.39 6.59a10.21 10.21 0 0 0 -13.88 3.65c-.72 1.45 2.83-4.91-7.28 12.61l3.65 2.15-16.34 5.11c-3.66-16.48-.15-.68-3.71-16.73l3.65 2.1 5-8.65a10.67 10.67 0 0 1 9.25-5.34h10.83a10.22 10.22 0 0 1 8.83 5.1z" fill="url(#e)"/><path d="m13 41.57h1.39l-1.15 2a10.69 10.69 0 0 1 -10.9-10.52l1.94-3.37.06 3.32a8.74 8.74 0 0 0 8.66 8.57z" fill="#78c19b"/><path d="m41.27 50.94-8.03 7.36h-2.96v-14.73h2.96z" fill="#4da67f"/><path d="m38.31 50.94-12.62 11.57v-4.21h-8.51a10.67 10.67 0 0 1 -9.29-5.42l-5.55-9.62a10.2 10.2 0 0 1 0-10.21 10.7 10.7 0 0 0 10.66 10.52h12.69v-4.21z" fill="url(#f)"/><path d="m62.4 32.32-3.19-5.53 2.79-1.6a1 1 0 0 0 -.2-1.82l-5.57-1.76c-13.42-23.21-9.89-21.12-29.51-21.12a11.72 11.72 0 0 0 -10.12 5.84l-4.49 7.79c-2.51-1.45-3.11-2.12-3.87-1.55s-.47.64.88 6.75c-10.12 17.5-7 12.3-7.65 13.23-2.12 4.24-1.86 8 0 11.22.7 1.23 1.13 1.93 5.53 9.57a11.7 11.7 0 0 0 10.18 6h7.51c0 3-.22 3.76.6 4.12s.78.1 5.38-4.12h16.43a11.23 11.23 0 0 0 9.9-5.96c8.15-14.19 4.4-7.52 5.4-9.38a11.89 11.89 0 0 0 0-11.68zm-16.95-14.1a1 1 0 0 0 -1.28.73l-1.79 8.11c-10.42-18-9.27-15.69-9-16.31a9.26 9.26 0 0 1 11.14-3.93c1.52.57.51-.59 8.88 13.9zm-19.08 20.41a1 1 0 0 0 -1.68.73v3.21h-9.69l8.6-14.9 5.58-1.77a1 1 0 0 0 .2-1.82l-2.78-1.6 5.4-9.36 9.74 16.88-1.28 5.71a1 1 0 0 0 1.48 1.09l2.78-1.61 4.28 7.38h-18.33zm-16.61-16.42c1.91 8.57 1.7 8.8 2.69 8.89.31 0-.47.24 8.33-2.54l-8.08 14a9.74 9.74 0 0 1 -9.35-9.26zm2.24-5.86a1 1 0 0 0 1.35-.35l5-8.65a9.68 9.68 0 0 1 8.38-4.84c10.9 0 13.2-.57 16.43 1.9a11.34 11.34 0 0 0 -11.58 5.42c-7.84 13.6-7.47 12.71-7.32 13.28s.44.59 2.14 1.57l-13.12 4.14c-4.08-18.4-2.43-10.93-3-13.44zm13.69 40.95h-8.51a9.71 9.71 0 0 1 -8.38-4.84c-4.05-7.83-7.43-10.59-6.74-15.57a11.77 11.77 0 0 0 11 7.68h12.63a1 1 0 0 0 1-1v-1.93l10.14 9.3-10.14 9.29v-1.93a1 1 0 0 0 -1-1zm21.11 0h-13.95l6.15-5.63a1 1 0 0 0 0-1.47l-6.14-5.63h17.28a9.64 9.64 0 0 1 -3.34 12.73zm13.83-14.23c-6.05 10.41-6.35 12-10 13.53a11.64 11.64 0 0 0 1.16-13.25c0-.11.17.29-5.8-10.06a1 1 0 0 0 -1.37-.37l-1.68 1c1.05-4.71-.3 1.38 3-13.44l13.06 4.11c-3.21 1.85-3 .7 1.65 8.73a9.68 9.68 0 0 1 0 9.68c1.17.67 1.18.64-.02.07z"/></svg>