<svg viewBox="0 0 64 64" xmlns="http://www.w3.org/2000/svg" xmlns:xlink="http://www.w3.org/1999/xlink"><linearGradient id="a" gradientUnits="userSpaceOnUse" x1="32" x2="32" y1="37" y2="1"><stop offset="0" stop-color="#9dd5df"/><stop offset="1" stop-color="#c3e1f5"/></linearGradient><linearGradient id="b" gradientUnits="userSpaceOnUse" x1="16.5" x2="16.5" y1="64" y2="28"><stop offset="0" stop-color="#f2c4b0"/><stop offset="1" stop-color="#ffe3d7"/></linearGradient><linearGradient id="c" x1="47.49" x2="47.49" xlink:href="#b" y2="28"/><path d="m44 25a12 12 0 0 1 -24 0c0-11 12-24 12-24s12 13 12 24z" fill="url(#a)"/><path d="m32 37a12 12 0 0 1 -11.92-13.59 12 12 0 0 0 23.84 0 12 12 0 0 1 -11.92 13.59z" fill="#77cacb"/><path d="m32 56v8h-11c.49-3.86-.26-8-3-10a90.16 90.16 0 0 1 -10-9c-3-3-7-13-7-15a2 2 0 0 1 3.77-.92c4.41 10.46 5.45 11.14 15.23 16.92a44.72 44.72 0 0 1 -4-6c-3-5-.12-5.71 2-5 3 1 5 7 8 9s6 8.11 6 12z" fill="url(#b)"/><path d="m63 30c0 2-4 12-7 15a90.16 90.16 0 0 1 -10 9c-2.71 2-3.51 6-3 10h-11c0-8-.14-8.66.35-10.61.86-3.64 3.25-7.79 5.65-9.39 3-2 5-8 8-9 2.12-.71 5 0 2 5a44.72 44.72 0 0 1 -4 6c9.78-5.78 10.81-6.46 15.21-16.91a2 2 0 0 1 3.79.91z" fill="url(#c)"/><path d="m32 59a3.61 3.61 0 0 1 -3.24 2h-.93a9.09 9.09 0 0 1 -7.53-4 14.68 14.68 0 0 1 .7 7h11c0-5.76 0-4.9 0-5z" fill="#eab39b"/><path d="m43.7 57a9.09 9.09 0 0 1 -7.53 4c-1.28 0-3.13.08-4.17-2v5h11a14.54 14.54 0 0 1 .7-7z" fill="#eab39b"/><path d="m31 63v-7c0-3.63-2.85-9.37-5.55-11.17-3.15-2.1-5.26-8-7.77-8.88-.79-.27-1.6-.24-1.85.07-1 1.23 4.13 8.44 4.9 9.31a1 1 0 0 1 -1.26 1.52c-9.47-5.63-11.15-6.66-15.34-16.7-.23-.56-.34-1.15-1.13-1.15a1 1 0 0 0 -1 1c0 1.58 3.84 11.42 6.71 14.29a89.39 89.39 0 0 0 9.89 8.91c4.4 3.33 3.4 9.7 3.4 9.96a1 1 0 0 1 -2-.32c0-.06.84-5.45-2.61-8a91.88 91.88 0 0 1 -10.1-9.13c-3.16-3.16-7.29-13.46-7.29-15.71a3 3 0 0 1 5.66-1.38c4.28 10.12 5.54 10.67 10.78 14-1.45-2.31-3.84-5.79-2.17-7.86 1-1.21 2.73-1.16 4.05-.72 3.48 1.16 5.41 7.23 8.23 9.12 3.26 2.18 6.45 8.53 6.45 12.84v7a1 1 0 0 1 -2 0z"/><path d="m31 63v-7c0-4.31 3.19-10.66 6.45-12.83 2.82-1.88 4.76-8 8.23-9.12 1.32-.44 3.08-.49 4 .72 1.67 2.08-.72 5.55-2.17 7.86 5.13-3.27 6.55-3.9 10.75-13.94a3 3 0 0 1 5.74 1.31c0 2.25-4.13 12.55-7.29 15.71a91.88 91.88 0 0 1 -10.11 9.09c-3.45 2.59-2.62 8-2.61 8a1 1 0 0 1 -2 .32c0-.26-1-6.63 3.39-10a89.39 89.39 0 0 0 9.89-8.91c2.89-2.79 6.73-12.63 6.73-14.21a1 1 0 0 0 -1.88-.46c-4.37 10.6-5.89 11.57-15.59 17.31a1 1 0 0 1 -1.26-1.52c.74-.84 5.89-8.07 4.9-9.31-.25-.31-1.06-.34-1.85-.07-2.5.83-4.62 6.79-7.77 8.88-2.7 1.8-5.55 7.54-5.55 11.17v7a1 1 0 0 1 -2 0z"/><path d="m32 38a13 13 0 0 1 -13-13c0-11.26 11.76-24.14 12.27-24.68a1 1 0 0 1 1.46 0c.51.54 12.27 13.42 12.27 24.68a13 13 0 0 1 -13 13zm0-35.48c-2.57 3.01-11 13.56-11 22.48a11 11 0 0 0 22 0c0-8.92-8.43-19.47-11-22.48z"/><path d="m34.55 31.52a7 7 0 0 0 4.45-6.52 1 1 0 0 1 2 0 9.07 9.07 0 0 1 -5.72 8.38 1 1 0 0 1 -.73-1.86z"/></svg>