<svg viewBox="0 0 64 64" xmlns="http://www.w3.org/2000/svg" xmlns:xlink="http://www.w3.org/1999/xlink"><linearGradient id="a" gradientUnits="userSpaceOnUse" x1="31.99" x2="31.99" y1="36.96" y2=".97"><stop offset="0" stop-color="#9dd5df"/><stop offset="1" stop-color="#c3e1f5"/></linearGradient><linearGradient id="b" gradientUnits="userSpaceOnUse" x1="32.07" x2="32.07" y1="35.18" y2="20.87"><stop offset="0" stop-color="#6ab891"/><stop offset="1" stop-color="#85cba9"/></linearGradient><linearGradient id="c" x1="23.27" x2="23.27" xlink:href="#b" y1="21.33" y2="6.77"/><linearGradient id="d" x1="45.04" x2="45.04" xlink:href="#b" y1="27.47" y2="6.49"/><linearGradient id="e" x1="32.92" x2="32.92" xlink:href="#b" y1="9.41" y2="1"/><linearGradient id="f" gradientUnits="userSpaceOnUse" x1="16.5" x2="16.5" y1="64" y2="28"><stop offset="0" stop-color="#f2c4b0"/><stop offset="1" stop-color="#ffe3d7"/></linearGradient><linearGradient id="g" x1="47.49" x2="47.49" xlink:href="#f" y2="28"/><path d="m44.94 6.49a18 18 0 0 1 2.93 21c-8.17 15.33-31.54 11.22-33.73-6.26-2.14-17.17 18.86-27.1 30.8-14.74z" fill="url(#a)"/><path d="m47.87 27.47c-9.08 17.07-35.55 9.56-33.8-10 .69 17.11 25.15 23.27 33.8 7a17.5 17.5 0 0 0 2.06-7 17.73 17.73 0 0 1 -2.06 10z" fill="#77cacb"/><path d="m26.92 21.33c1 .79 1.79-.21 3.57-.44s6.48 1 6.71 2.79-2.2 3.91-3.8 5.92-1.12 5.58-1.12 5.58l-2-1.56c-1-.79.22-5.47.1-6.37s-3-2.34-2.23-3.34-.22-1.79-1.23-2.58z" fill="url(#b)"/><path d="m30.38 12.74a4.82 4.82 0 0 0 -2.23 3.9c.11.9-2.68.35-3.46 1.35s1.23 2.56 2.23 3.34c-1-.78-3.79-1.33-5.69-2s-2.34-4.24-2.46-5.13c-.09-.71-1.93-1.77-3.19-2.57a18 18 0 0 1 3-4.58c8.82-.82 6.21.32 7.8 1.55 1 .78-.09.12 1.7-.11s3.98 3.13 2.3 4.25z" fill="url(#c)"/><path d="m44.94 6.49a18 18 0 0 1 2.93 21c-1.26-1-1.78-5.18-2-6.69-.23-1.79-5.58-1.12-5.81-2.91s1.34-3.79 1.34-3.79c.78-1 3.58-.45 5.36-.67s-2-1.57-4.91-3 1.59-1.16 3.09-3.94z" fill="url(#d)"/><path d="m38.09 2.06a2.58 2.58 0 0 0 .22 1.52c1.23 2.57-1.24 3.13-2.81 5.14s-4-.66-4.34-4.24c-.16-1.48-3.91-2.24-3.91-2.24a4.4 4.4 0 0 1 -.05-.59 18 18 0 0 1 10.89.41z" fill="url(#e)"/><path d="m32 56v8h-11c.49-3.86-.26-8-3-10a90.16 90.16 0 0 1 -10-9c-3-3-7-13-7-15a2 2 0 0 1 3.77-.92c4.41 10.46 5.45 11.14 15.23 16.92a44.72 44.72 0 0 1 -4-6c-3-5-.12-5.71 2-5 3 1 5 7 8 9s6 8.11 6 12z" fill="url(#f)"/><path d="m63 30c0 2-4 12-7 15a90.16 90.16 0 0 1 -10 9c-2.71 2-3.51 6-3 10h-11c0-8-.14-8.66.35-10.61.86-3.64 3.25-7.79 5.65-9.39 3-2 5-8 8-9 2.12-.71 5 0 2 5a44.72 44.72 0 0 1 -4 6c9.78-5.78 10.81-6.46 15.21-16.91a2 2 0 0 1 3.79.91z" fill="url(#g)"/><path d="m32 59a3.61 3.61 0 0 1 -3.24 2h-.93a9.09 9.09 0 0 1 -7.53-4 14.68 14.68 0 0 1 .7 7h11c0-5.76 0-4.9 0-5z" fill="#eab39b"/><path d="m43.7 57a9.09 9.09 0 0 1 -7.53 4c-1.28 0-3.13.08-4.17-2v5h11a14.54 14.54 0 0 1 .7-7z" fill="#eab39b"/><path d="m58.31 28.69c-4.18 10-5.62 10.67-10.75 13.94 1.45-2.31 3.84-5.79 2.17-7.86-1-1.21-2.72-1.16-4-.72-3.5 1.17-5.37 7.21-8.23 9.12-2.2 1.43-4.3 4.67-5.5 7.94-1.2-3.27-3.3-6.51-5.45-7.94-2.82-1.88-4.76-8-8.23-9.12-1.32-.44-3.08-.49-4.05.72-1.67 2.08.73 5.57 2.17 7.86-5.22-3.32-6.53-3.94-10.78-14a3 3 0 0 0 -5.66 1.37c0 2.25 4.13 12.55 7.29 15.71a91.88 91.88 0 0 0 10.11 9.09c3.46 2.59 2.62 8 2.61 8a1 1 0 0 0 2 .32c0-.26 1.05-6.63-3.39-10a89.39 89.39 0 0 1 -9.89-8.91c-2.89-2.79-6.73-12.63-6.73-14.21a1 1 0 0 1 1.85-.53c4.44 10.62 5.69 11.53 15.62 17.38a1 1 0 0 0 1.26-1.52c-.78-.88-5.89-8.08-4.9-9.31.25-.31 1.06-.34 1.85-.07 2.5.83 4.61 6.78 7.77 8.88 2.69 1.8 5.55 7.54 5.55 11.17v7a1 1 0 0 0 2 0v-7c0-3.63 2.86-9.37 5.55-11.17 3.15-2.09 5.27-8 7.77-8.88.79-.27 1.6-.24 1.85.07 1 1.23-4.17 8.48-4.9 9.31a1 1 0 0 0 1.26 1.52c9.55-5.59 11.21-6.81 15.34-16.7.26-.63.41-1.15 1.13-1.15a1 1 0 0 1 1 1c0 1.58-3.84 11.42-6.71 14.29a89.39 89.39 0 0 1 -9.89 8.91c-4.4 3.33-3.4 9.7-3.4 9.96a1 1 0 0 0 2-.32c0-.06-.85-5.45 2.61-8a91.88 91.88 0 0 0 10.11-9.09c3.15-3.2 7.28-13.5 7.28-15.75a3 3 0 0 0 -5.69-1.31z"/><path d="m34.36 37.85a19 19 0 0 0 16.49-21.21c-2.03-16.22-22.26-22.39-33.06-10.26-11.55 13.04-.79 33.62 16.57 31.47zm-18.31-24.74a8.69 8.69 0 0 1 1.74 1.3c.75 5.68 2.72 5.8 5.26 6.53a14.62 14.62 0 0 1 3.26 1.18 5.23 5.23 0 0 1 1.12 1.05c0 .24-1.55 1 1.21 3.54a7.58 7.58 0 0 1 .75.73c0 .28-.11.93-.18 1.42-.79 5.29-.31 5 2.47 7.11a17 17 0 0 1 -15.63-22.86zm2.95-5.11c.64-.06 5.77-.54 5.73.07a2.8 2.8 0 0 0 1.27 1.53 1.1 1.1 0 0 0 1.64 0 2.57 2.57 0 0 1 .53-.11c.77-.11 2.28 1.8 1.66 2.42a6.12 6.12 0 0 0 -2.67 4.3c-1 .16-2.48.17-3.25 1.17a1.79 1.79 0 0 0 -.33 1.62c-.7-.2-1.41-.41-2-.62-.38-.14-1.34-.83-1.8-4.32-.12-1-1.17-1.73-2.89-2.81a17.36 17.36 0 0 1 2.11-3.25zm10.2 14.27a6.11 6.11 0 0 1 1.42-.39c1.72-.21 5.48 1.08 5.59 1.92.14 1.2-2.21 3.39-3.59 5.2a7.69 7.69 0 0 0 -1.36 4.13l-.3-.23c-.38-.91.54-4.81.42-5.75-.15-1.16-1.7-2-2.3-2.81a1.88 1.88 0 0 0 .12-2.07zm3.69 13.73a1 1 0 0 0 .38-.89c-.1-.89-.14-3.48.92-4.85 1.63-2.09 4.28-4.33 4-6.66-.35-2.72-6-3.88-7.82-3.65s-2.46.94-2.83.64c.1 0-1.79-1.28-2-2 .76-.48 3.87 0 3.61-2a3.94 3.94 0 0 1 1.79-2.94c2.74-1.82-.47-7.28-4.05-5.82-.4-.33-.05-.65-1.13-1.49-.42-.32-1.15-.61-4.5-.42a16.88 16.88 0 0 1 5.26-2.92 1 1 0 0 0 .54.3c1.44.29 3 1 3.11 1.36.27 2.52 1.78 5.83 4.13 5.83 1.46 0 1.7-1 3.4-2.45 1.11-1 2.47-2.12 1.75-4.24a17.22 17.22 0 0 1 4.17 2.9c-1.37 1.46-3.66 1.44-3.67 3 0 1.26 1.71 1.83 3.92 2.83.49.21-2.12-.38-3.21 1-.19.24-1.82 2.4-1.55 4.53.32 2.51 5.22 2.2 5.81 2.93.32 2.53.78 5.2 1.75 6.65a16.9 16.9 0 0 1 -13.78 8.36zm4.19-33.21a3.44 3.44 0 0 0 .32 1.21c.85 1.76-1 1.93-2.69 4.09-.28.36-.45.31-.53.29-.68-.2-1.79-1.74-2-4a3.21 3.21 0 0 0 -2.07-2.26 16.8 16.8 0 0 1 6.97.67zm8 5.35a16.9 16.9 0 0 1 2.41 3.86c-.93-.63-2.93-1.41-4.87-2.35 2.25-1.08 2.29-1.71 2.46-1.51zm2.7 17.14c-1.58-5 .53-5.91-4.58-6.93a7.31 7.31 0 0 1 -2.11-.61 5.18 5.18 0 0 1 1.13-3c.73-.77 5.16.53 5.92-1a16.81 16.81 0 0 1 -.36 11.54z"/></svg>