<svg viewBox="0 0 64 64" xmlns="http://www.w3.org/2000/svg" xmlns:xlink="http://www.w3.org/1999/xlink"><linearGradient id="a" gradientUnits="userSpaceOnUse" x1="32" x2="32" y1="49" y2="23"><stop offset="0" stop-color="#7aa8d7"/><stop offset="1" stop-color="#c3d2e7"/></linearGradient><linearGradient id="b" gradientUnits="userSpaceOnUse" x1="32" x2="32" y1="59" y2="49"><stop offset="0" stop-color="#949aaf"/><stop offset="1" stop-color="#c6ccda"/></linearGradient><linearGradient id="c" xlink:href="#b" y1="63" y2="59"/><linearGradient id="d" gradientUnits="userSpaceOnUse" x1="32" x2="32" y1="14" y2="6"><stop offset="0" stop-color="#fbcc88"/><stop offset="1" stop-color="#ffe5c3"/></linearGradient><path d="m63 49h-62c2.5-5.87 8.94-21.14 11-26h40c1.76 4.15 8.8 20.83 11 26z" fill="url(#a)"/><path d="m52.85 25h-41.7l.85-2h40z" fill="#86b8e0"/><path d="m30 49h4v10h-4z" fill="url(#b)"/><path d="m24 59h16a3 3 0 0 1 3 3v1a0 0 0 0 1 0 0h-22a0 0 0 0 1 0 0v-1a3 3 0 0 1 3-3z" fill="url(#c)"/><circle cx="32" cy="10" fill="url(#d)" r="4"/><path d="m63 49h-62l.85-2h60.3z" fill="#5b8dc9"/><path d="m30 49h4v2h-4z" fill="#adb3c4"/><path d="m63.92 48.61c-11.83-27.97-10.92-26.61-11.92-26.61-42.68 0-40.52-.33-40.92.61-11.89 28.11-11.36 26.27-10.91 26.94s-1.34.45 28.83.45v8h-5a4 4 0 0 0 -4 4v1a1 1 0 0 0 1 1h22a1 1 0 0 0 1-1v-1a4 4 0 0 0 -4-4h-5v-8h28a1 1 0 0 0 .92-1.39zm-40.77-.61 1.09-8h15.52l1.09 8zm1.36-10 1-7h13.02l1 7zm-14.81-7h13.75l-1 7h-15.71zm16-2 .68-5h11.2l.68 5zm14.81 2h13.79l3 7h-15.79zm12.9-2h-13.13l-.68-5h11.74zm-40.75-5h11.74l-.68 5h-13.17zm-6.77 16h16.33l-1.09 8h-18.62zm36.11 22h-20a2 2 0 0 1 2-2h16a2 2 0 0 1 2 2zm-9-4h-2v-8h2zm9.87-10-1.09-8h16.33l3.38 8z"/><path d="m32 15a5 5 0 1 0 -5-5 5 5 0 0 0 5 5zm0-8a3 3 0 1 1 -3 3 3 3 0 0 1 3-3z"/><path d="m33 3v-2a1 1 0 0 0 -2 0v2a1 1 0 0 0 2 0z"/><path d="m31 17v2a1 1 0 0 0 2 0v-2a1 1 0 0 0 -2 0z"/><path d="m39 11h2a1 1 0 0 0 0-2h-2a1 1 0 0 0 0 2z"/><path d="m23 11h2a1 1 0 0 0 0-2h-2a1 1 0 0 0 0 2z"/><path d="m37 6.05c.6 0 .83-.41 2.12-1.71a1 1 0 0 0 -1.41-1.41l-1.47 1.41a1 1 0 0 0 .76 1.71z"/><path d="m26.34 14.24-1.41 1.42a1 1 0 0 0 1.41 1.41l1.42-1.41a1 1 0 0 0 -1.42-1.42z"/><path d="m36.24 15.66 1.42 1.41a1 1 0 0 0 1.41-1.41l-1.41-1.42a1 1 0 0 0 -1.42 1.42z"/><path d="m26.34 5.76a1 1 0 0 0 1.42-1.42l-1.42-1.41a1 1 0 0 0 -1.41 1.41z"/></svg>