<svg viewBox="0 0 64 64" xmlns="http://www.w3.org/2000/svg" xmlns:xlink="http://www.w3.org/1999/xlink"><linearGradient id="a" gradientUnits="userSpaceOnUse" x1="3.72" x2="63" y1="16.48" y2="16.48"><stop offset="0" stop-color="#6ab891"/><stop offset="1" stop-color="#85cba9"/></linearGradient><linearGradient id="b" x1="60.28" x2="1" xlink:href="#a" y1="47.52" y2="47.52"/><linearGradient id="c" gradientUnits="userSpaceOnUse" x1="32" x2="32" y1="52" y2="12"><stop offset="0" stop-color="#e9a254"/><stop offset="1" stop-color="#f4bb79"/></linearGradient><path d="m63 32h-6c0-22-26.85-33.51-42.68-17.68l-2.83 2.83 2.83 2.85-10.6.71.7-10.61 2.83 2.83 2.83-2.83c19.59-19.61 52.92-5.47 52.92 21.9z" fill="url(#a)"/><path d="m60.28 43.31-.7 10.61-2.83-2.83-2.83 2.83c-19.59 19.59-52.92 5.45-52.92-21.92h6c0 22 26.85 33.51 42.68 17.68l2.83-2.83-2.83-2.85z" fill="url(#b)"/><path d="m42.77 32-7.69-3.08v-16.92l-13.85 20 7.69 3.08v16.92z" fill="url(#c)"/><path d="m42.77 32-13.85 20v-4l11.68-16.87z" fill="#dd8b37"/><path d="m9.37 9.37-2.12 2.12c-1.95-1.94-2.34-2.66-3.18-2.35s-.58-.14-1.35 11.48a1 1 0 0 0 1.06 1.06c11.2-.74 11.16-.51 11.48-1.35s-.26-1.09-2.35-3.18l2.09-2.15c15-15 41-4.35 41 17a1 1 0 0 0 1 1h6a1 1 0 0 0 1-1c0-28.44-34.6-42.65-54.63-22.63zm48.63 21.63c-.86-22.4-28.27-33.5-44.38-17.38l-2.83 2.82a1 1 0 0 0 0 1.42l1.27 1.27-7.27.48.48-7.26 1.27 1.27a1 1 0 0 0 1.42 0l2.83-2.83c18.55-18.56 50.35-5.79 51.21 20.21z"/><path d="m60.22 42.32c-11.31.75-11.16.51-11.48 1.35s.26 1.09 2.35 3.18l-2.09 2.15c-15 15-41 4.33-41-17a1 1 0 0 0 -1-1h-6a1 1 0 0 0 -1 1c0 28.49 34.64 42.62 54.63 22.63l2.12-2.12c1.9 1.9 2.33 2.66 3.18 2.35s.58.11 1.35-11.48a1 1 0 0 0 -1.06-1.06zm-1.49 9.33c-2.33-2.32-1.63-2.32-5.52 1.56-18.56 18.56-50.35 5.79-51.21-20.21h4c.84 22.37 28.22 33.53 44.36 17.38l2.83-2.82a1 1 0 0 0 0-1.42l-1.27-1.27 7.27-.48z"/><path d="m34.25 11.43-13.84 20a1 1 0 0 0 .45 1.5l7.06 2.82v16.25a1 1 0 0 0 1 1c.75 0-.43 1.38 14.67-20.43a1 1 0 0 0 -.45-1.5l-7.06-2.82v-16.25a1 1 0 0 0 -1.83-.57zm7 21-11.33 16.37v-13.72c0-.92-.16-.75-7.15-3.54l11.31-16.34v13.72c0 .92.16.75 7.15 3.54z"/></svg>