<svg viewBox="0 0 64 64" xmlns="http://www.w3.org/2000/svg" xmlns:xlink="http://www.w3.org/1999/xlink"><linearGradient id="a" gradientUnits="userSpaceOnUse" x1="28" x2="28" y1="63" y2="11"><stop offset="0" stop-color="#6ab891"/><stop offset="1" stop-color="#85cba9"/></linearGradient><linearGradient id="b" x1="32" x2="32" xlink:href="#a" y1="11" y2="5.01"/><linearGradient id="c" x2="28" xlink:href="#a" y1="7" y2="1"/><linearGradient id="d" gradientUnits="userSpaceOnUse" x1="45" x2="45" y1="63" y2="47"><stop offset="0" stop-color="#474f72"/><stop offset="1" stop-color="#878c9f"/></linearGradient><linearGradient id="e" gradientUnits="userSpaceOnUse" x1="45" x2="45" y1="58" y2="52"><stop offset="0" stop-color="#949aaf"/><stop offset="1" stop-color="#c6ccda"/></linearGradient><path d="m50 11c-.27 2.85.27-2.82-3.48 36.14-6.38 13-4.89 9.94-6.81 13.86h-19.71l-1 2h-7c-1-8.27-5.84-50.59-6-52z" fill="url(#a)"/><path d="m61 8a3 3 0 0 1 -3 3h-55v-4h52.18a3 3 0 0 1 5.82 1z" fill="url(#b)"/><path d="m50 7h-44l4-6h36z" fill="url(#c)"/><path d="m41.18 58-1.47 3h-19.71l-1 2h-7l-.58-5z" fill="#4da67f"/><circle cx="45" cy="55" fill="url(#d)" r="8"/><path d="m45 63a8 8 0 0 1 -7.94-9 8 8 0 0 0 15.88 0 8 8 0 0 1 -7.94 9z" fill="#42455e"/><circle cx="45" cy="55" fill="url(#e)" r="3"/><path d="m50 11-.19 2h-43.58l-.23-2z" fill="#78c19b"/><path d="m50 7h-44l1.33-2h41.34z" fill="#4da67f"/><path d="m31.56 30.09a1 1 0 0 0 1 1.26c.36 0 .41-.08 2-1 .09.16 1.87 3.25 2 3.39a1 1 0 0 1 -.85 1.49h-3.52a1 1 0 0 0 0 2c3.16 0 5 .33 6.09-1.57a3 3 0 0 0 0-3l-2-3.38c1.64-.95 2.12-1.09 2-1.88s-.69-.82-4.52-1.85a1 1 0 0 0 -.76.1c-.43.35-.33.35-1.44 4.44z"/><path d="m20.35 37.26h3.88v1.74a1 1 0 0 0 1 1c.57 0 .54-.13 3.48-3.07a1 1 0 0 0 .29-.71c0-.54-.12-.53-3.06-3.47a1 1 0 0 0 -1.71.7v1.77h-3.88a1 1 0 0 1 -.87-1.49l1.77-3.11a1 1 0 0 0 -1.74-1l-1.77 3.11a3 3 0 0 0 2.61 4.53z"/><path d="m21.49 26.82a1 1 0 0 0 1 .74c.19 0 0 0 4.06-1a1 1 0 0 0 .24-1.84l-1.53-.88 1.92-3.34a1 1 0 0 1 1.74 0l1.73 3a1 1 0 0 0 1.73-1c-1.5-2.6-2.16-4.64-4.52-4.49-2.1.13-2.61 1.85-4.33 4.83l-1.54-.89a1 1 0 0 0 -1.51 1.05c1.19 4.49 1.01 3.72 1.01 3.82z"/><path d="m54.55 6h-4c-4-6-3.82-6-4.54-6-38.37 0-36.4-.22-36.84.45l-3.71 5.55h-2.46a1 1 0 0 0 -1 1v4a1 1 0 0 0 1 1h2.11l5.89 51.11a1 1 0 0 0 1 .89c7.59 0 7.12 0 7.43-.11s.43-.37 1.19-1.89h18.74a9 9 0 1 0 8.24-15.61l3.31-34.39h7.09a4 4 0 1 0 -3.45-6zm-44-4h34.91l2.67 4h-40.26zm41.45 53a7 7 0 1 1 -7-7 7 7 0 0 1 7 7zm-6.38-9a9 9 0 0 0 -8.1 14h-17.52c-.73 0-.84.44-1.62 2h-5.49l-5.77-50h41.78zm12.38-36h-54v-2c55.26 0 51.75.3 52.11-.65a2 2 0 1 1 1.89 2.65z"/><path d="m41 55a4 4 0 1 0 4-4 4 4 0 0 0 -4 4zm6 0a2 2 0 1 1 -2-2 2 2 0 0 1 2 2z"/></svg>