<svg viewBox="0 0 64 64" xmlns="http://www.w3.org/2000/svg" xmlns:xlink="http://www.w3.org/1999/xlink"><linearGradient id="a" gradientUnits="userSpaceOnUse" x1="19.99" x2="19.99" y1="59" y2="25.64"><stop offset="0" stop-color="#949aaf"/><stop offset="1" stop-color="#c6ccda"/></linearGradient><linearGradient id="b" gradientUnits="userSpaceOnUse" x1="18" x2="18" y1="20.18" y2="1"><stop offset="0" stop-color="#d4d8e1"/><stop offset="1" stop-color="#f3f4f5"/></linearGradient><linearGradient id="c" x1="30.61" x2="30.61" xlink:href="#b" y1="34.45" y2="22.45"/><linearGradient id="d" x1="9.41" x2="9.41" xlink:href="#b" y1="34.71" y2="23.55"/><linearGradient id="e" gradientUnits="userSpaceOnUse" x1="20" x2="20" y1="63" y2="59"><stop offset="0" stop-color="#474f72"/><stop offset="1" stop-color="#878c9f"/></linearGradient><linearGradient id="f" x1="20" x2="20" xlink:href="#a" y1="26" y2="20"/><path d="m23 59h-6c0-25.58-.48-18.69 1.58-33.36h2.84c1.99 14.15 1.58 8.36 1.58 33.36z" fill="url(#a)"/><path d="m17 56h6v3h-6z" fill="#8288a1"/><path d="m21 2.15v18a2.77 2.77 0 0 0 -1-.15c-1.32 0-.2.8-3.12-2.12-1-1-1.88-1.71-1.88-3.35 0-.74-.15 0 3.75-12.72a1.15 1.15 0 0 1 2.25.34z" fill="url(#b)"/><path d="m39.28 33.3a1.14 1.14 0 0 1 -1.72 1l-15.62-9a2.9 2.9 0 0 0 1-1.6c4.31-1.15 6-2 7.74-.12 9 9.7 8.6 9.08 8.6 9.72z" fill="url(#c)"/><path d="m18 25.19c-1 3.68-.72 2.69-1.13 4.22a3.57 3.57 0 0 1 -2.68 2.59c-12.71 2.86-11.97 2.71-12.19 2.71a1.16 1.16 0 0 1 -.58-2.15l15.61-9a3 3 0 0 0 .97 1.63z" fill="url(#d)"/><path d="m17.05 23.55a3 3 0 0 0 .9 1.64l-.82 3.07a5.94 5.94 0 0 1 -2.75-3.17z" fill="#c7cdd8"/><path d="m19.13 20.13-2.25-2.25a6 6 0 0 1 4.12-.79v3.09a2.9 2.9 0 0 0 -1.87-.05z" fill="#c7cdd8"/><path d="m21.42 25.64.43 3.06a5.85 5.85 0 0 1 -3.7 0l.43-3.06z" fill="#adb3c4"/><path d="m26 23a5.86 5.86 0 0 1 -1.39 3.82l-2.67-1.54a2.9 2.9 0 0 0 1-1.6c3.37-.91 3.06-.88 3.06-.68z" fill="#c7cdd8"/><path d="m17 59h6a3 3 0 0 1 3 3v1a0 0 0 0 1 0 0h-12a0 0 0 0 1 0 0v-1a3 3 0 0 1 3-3z" fill="url(#e)"/><circle cx="20" cy="23" fill="url(#f)" r="3"/><path d="m63 62h-36a4 4 0 0 0 -3-3.86c0-26.1.37-18.56-1.41-31.33 15.5 8.94 14.91 8.88 16.1 8.56a2.14 2.14 0 0 0 1.59-2.07c0-1.18 0-.88-8.88-10.42a4.62 4.62 0 0 0 -4.52-1.3l-2.88.79a4 4 0 0 0 -2-2.83v-17.39a2.15 2.15 0 0 0 -4.21-.63l-3.58 11.66a4.54 4.54 0 0 0 1.12 4.57l2.15 2.15a4 4 0 0 0 -1.48 3.1c0 .1 1-.56-15.06 8.7a2.15 2.15 0 0 0 1.56 3.95c12.31-2.82 12.88-2.65 14.25-4.13-1 7.23-.75 1.18-.75 26.62a4 4 0 0 0 -3 3.86h-12a1 1 0 0 0 0 2h62a1 1 0 0 0 0-2zm-42.32-40.87a2 2 0 1 1 -2.68 1.87 2 2 0 0 1 2.68-1.87zm-1.27 5.8a2.6 2.6 0 0 0 1.18 0c1.78 12.77 1.41 5.95 1.41 31.07h-4c0-25.12-.37-18.3 1.41-31.07zm8-3.41a2.57 2.57 0 0 1 2.53.72c8.92 9.61 8.37 9 8.34 9.13s.6.52-14.81-8.37c.42-.72-.47-.3 3.93-1.48zm-11.4-9c0-.52-.24.42 3.7-12.42a.15.15 0 0 1 .3 0v16.9h-.55c-2.6-2.56-3.46-3.06-3.46-4.47zm-2.01 16.48c-12.69 2.87-12 2.78-12.12 2.63s-.75.27 14.66-8.63c.07.13.23.36.3.46-.9 3.37-.94 5.06-2.84 5.54zm1 31a2 2 0 0 1 2-2h6a2 2 0 0 1 2 2z"/><path d="m37 12h18a1 1 0 0 0 0-2h-18a4 4 0 0 1 -2.84-6.83 4.67 4.67 0 0 1 3.84-1.17 1 1 0 0 0 0-2c-1.8 0-3.49 0-5.25 1.76a6 6 0 0 0 4.25 10.24z"/><path d="m59 12h4a1 1 0 0 0 0-2h-4a1 1 0 0 0 0 2z"/><path d="m38 16a1 1 0 0 0 0 2h1a1 1 0 0 0 0-2z"/><path d="m53 16h-10a1 1 0 0 0 0 2h10a1 1 0 0 0 0-2z"/><path d="m30 18h4a1 1 0 0 0 0-2h-4a1 1 0 0 0 0 2z"/><path d="m53 24h7a1 1 0 0 0 0-2h-7a1 1 0 0 0 0 2z"/><path d="m46 24h3a1 1 0 0 0 0-2h-3a5 5 0 0 0 0 10 1 1 0 0 0 0-2 3 3 0 0 1 0-6z"/><path d="m43 6h17a1 1 0 0 0 0-2h-17a1 1 0 0 0 0 2z"/></svg>